<svg xmlns="http://www.w3.org/2000/svg" xmlns:xlink="http://www.w3.org/1999/xlink" version="1.1" x="0px" y="0px" viewBox="0 0 1350 550" enable-background="new 0 0 300 300" xml:space="preserve">
   <style>
    @-webkit-keyframes float1 {
      0% {transform: translate(0, 0) rotate(0);}
      20% {transform: translate(-5px, 0) rotate(3deg);}
      80% {transform: translate(5px, -5px) rotate(-3deg);}
      100% {transform: translate(0, 0) rotate(0deg);}
    }

    @keyframes float1 {
      0% {transform: translate(0, 0) rotate(0);}
      20% {transform: translate(-5px, 0) rotate(3deg);}
      80% {transform: translate(5px, -5px) rotate(-3deg);}
      100% {transform: translate(0, 0) rotate(0deg);}
    }

    @-webkit-keyframes float2 {
      0% {transform: translate(0, 0) rotate(0deg);}
      20% {transform: translate(5px, 0) rotate(1deg);}
      60% {transform: translate(3px, 3px) rotate(4deg);}
      80% {transform: translate(3px, 2px) rotate(2deg);}
      100% {transform: translate(0, 0) rotate(0deg);}
    }

    @keyframes float2 {
      0% {transform: translate(0, 0) rotate(0deg);}
      20% {transform: translate(5px, 0) rotate(1deg);}
      60% {transform: translate(3px, 3px) rotate(4deg);}
      80% {transform: translate(3px, 2px) rotate(2deg);}
      100% {transform: translate(0, 0) rotate(0deg);}
    }

    @-webkit-keyframes float3 {
      0% {transform: translate(0, 0) rotate(0deg);}
      20% {transform: translate(2px, -3px) rotate(-1deg);}
      60% {transform: translate(5px, -5px) rotate(1deg);}
      100% {transform: translate(0, 0) rotate(0deg);}
    }

    @keyframes float3 {
      0% {transform: translate(0, 0) rotate(0deg);}
      20% {transform: translate(2px, -3px) rotate(-1deg);}
      60% {transform: translate(5px, -5px) rotate(1deg);}
      100% {transform: translate(0, 0) rotate(0deg);}
    }

    .icon {
      transform: translate(0, 0) rotate(0);
      transform-origin: center bottom;
    }

    #html5 {
      -webkit-animation: float1 5s infinite;
      animation: float1 5s infinite;
    }

    #js {
      -webkit-animation: float2 5s infinite;
      animation: float2 5s infinite;
    }

    #css3 {
      -webkit-animation: float3 5s infinite;
      animation: float3 5s infinite;    
    }
   </style>
  
  <g id="html5" class="icon">
    <g>
      <polygon fill="#E45126" points="315.765,498.428 247.809,252.942 492.297,208.165 515.724,461.764 420.687,507.858    "/>
      <polygon fill="#F1682B" points="416.95,486.614 493.745,449.368 473.727,232.655 373.79,250.958    "/>
      <polygon fill="#EBEBEB" points="390.742,343.517 350.241,350.935 341.703,320.105 385.002,312.175 379.396,281.566      379.29,281.586 302.646,295.623 304.884,303.701 327.854,386.667 396.348,374.123    "/>
      <polygon fill="#EBEBEB" points="405.3,423.006 405.174,423.069 369.4,420.106 362.749,396.096 346.186,399.129 332.024,401.723      345.114,448.995 410.999,454.917 411.133,454.852    "/>
      <g>
        <path fill="#FFFFFF" d="M258.134,180.955l15.555-2.849l2.814,15.367l14.229-2.606l-2.814-15.367l15.555-2.849l8.523,46.538      l-15.554,2.849l-2.854-15.583l-14.229,2.606l2.854,15.583l-15.556,2.849L258.134,180.955L258.134,180.955z"/>
        <path fill="#FFFFFF" d="M326.753,184.339l-13.693,2.508l-2.827-15.432l42.948-7.866l2.827,15.432l-13.699,2.509l5.697,31.105      l-15.554,2.849L326.753,184.339L326.753,184.339z"/>
        <path fill="#FFFFFF" d="M359.998,162.299l16.219-2.97l12.971,14.525l6.973-18.178l16.225-2.972l8.523,46.538l-15.49,2.837      l-4.225-23.066l-7.673,18.506l-0.268,0.049l-13.738-14.584l4.225,23.066l-15.22,2.788L359.998,162.299L359.998,162.299z"/>
        <path fill="#FFFFFF" d="M420.127,151.286l15.558-2.849l5.706,31.154l21.874-4.006l2.817,15.382l-37.433,6.855L420.127,151.286      L420.127,151.286z"/>
      </g>
      <polygon fill="#FFFFFF" points="390.636,343.537 396.242,374.143 433.932,367.239 437.648,407.584 405.199,423.052      411.032,454.897 470.594,426.014 470.107,420.759 462.542,338.862 461.782,330.506 453.536,332.017    "/>
      <polygon fill="#FFFFFF" points="379.29,281.586 382.771,300.596 384.882,312.119 384.896,312.194 458.729,298.672      458.729,298.672 458.828,298.654 458.182,291.662 456.734,275.89 455.963,267.543    "/>
    </g>
  </g>
  <g id="js" class="icon">
    <g>
      <polygon fill="#E4A227" points="551.063,463.696 527.794,202.713 783.473,202.713 760.181,463.655 655.477,492.682   "/>
      <polygon fill="#F0BF26" points="655.418,470.171 740.023,446.717 759.93,223.731 655.418,223.731   "/>
      <g>
        <polygon fill="#FFFFFF" points="701.135,145.07 679.913,145.07 701.983,169.018 701.983,180.416 656.526,180.416       656.526,167.069 678.591,167.069 656.526,143.123 656.526,131.707 701.135,131.707    "/>
        <path fill="#FFFFFF" d="M648.43,131.729v48.666h-39.147v-16.086h22.875v-32.58h16.27H648.43z"/>
      </g>
      <polygon fill="#EBEBEB" points="627.125,432.963 624.888,284.395 650.423,284.395 650.423,253.146 595.949,253.146      562.371,252.885 562.371,284.395 595.321,284.395 599.272,405.365 559.219,400.908 561.555,425.273   "/>
      <polyline fill="#FFFFFF" points="742.45,286.455 746.318,253.029 662.51,252.885 662.51,286.455 683.848,286.455 742.45,286.455        "/>
      <polygon fill="#FFFFFF" points="662.51,253.032 662.51,354.519 713.942,351.111 711.29,402.521 662.51,407.463 662.51,434.542      733.576,425.615 742.124,321.06 690.446,324.181 690.876,253.032   "/>
      <path fill="#FFFFFF" d="M722.251,268.093"/>
    </g>    
  </g>
  <g id="css3" class="icon">
    <g>
      <polygon fill="#FFFFFF" points="1032.557,202.724 1012.997,198.332 1028.384,224.971 1026.024,235.477 984.126,226.069      986.888,213.77 1007.227,218.336 991.844,191.697 994.206,181.175 1035.322,190.406    "/>
      <polygon fill="#FFFFFF" points="983.138,191.628 963.577,187.236 978.962,213.875 976.604,224.38 934.706,214.973      937.468,202.673 957.808,207.24 942.424,180.601 944.786,170.079 985.903,179.311    "/>
      <polygon fill="#FFFFFF" points="934.088,181.14 912.982,176.401 908.657,195.664 929.763,200.402 926.886,213.217 890.78,205.11      900.86,160.216 936.966,168.322    "/>
    </g>
    <polygon fill="#1673B6" points="803.406,459.694 835.971,214.333 1071.629,267.245 996.159,502.932 893.647,508.019   "/>
    <polygon fill="#35A9DB" points="898.383,487.603 981.218,483.491 1045.71,282.086 949.384,260.458   "/>
    <g>
      <polygon fill="#FFFFFF" points="929.816,347.606 968.855,356.372 978.334,326.767 936.6,317.396 943.224,287.893      943.325,287.916 1017.2,304.503 1014.717,312.26 989.211,391.929 923.192,377.106    "/>
      <polygon fill="#EBEBEB" points="912.791,424.264 912.653,424.271 881.787,408.021 884.97,384.021 869.005,380.437      855.355,377.372 849.089,424.623 905.753,454.968 905.898,454.96    "/>
      <polygon fill="#FFFFFF" points="960.005,384.06 947.579,422.772 912.682,424.267 905.79,454.959 970.035,451.778      971.598,446.894 989.603,390.706    "/>
      <polygon fill="#EBEBEB" points="943.325,287.916 939.211,306.239 936.718,317.346 936.701,317.419 865.533,301.44      865.533,301.44 865.44,301.419 866.337,294.655 868.351,279.396 869.423,271.323    "/>
      <polygon fill="#EBEBEB" points="929.815,347.609 925.701,365.934 923.208,377.038 923.191,377.111 890.845,369.848      890.845,369.848 890.75,369.827 891.647,363.064 893.661,347.807 894.732,339.732    "/>
    </g>
  </g>
  
</svg>