<svg width="172" height="98" viewBox="0 0 172 98" fill="none" xmlns="http://www.w3.org/2000/svg">
<path d="M167.955 62.7064H2.58107V63.4167H167.955V62.7064Z" fill="#FAF9F5"/>
<path fill-rule="evenodd" clip-rule="evenodd" d="M169.515 82.7942C168.575 82.7942 167.785 83.5144 167.785 84.4948C167.785 85.4752 168.575 86.2055 169.515 86.2055C170.456 86.2055 171.246 85.4852 171.246 84.4948C171.246 83.5045 170.446 82.7942 169.515 82.7942ZM169.515 85.9254C168.735 85.9254 168.125 85.3151 168.125 84.4948C168.125 83.6745 168.735 83.0743 169.515 83.0743C170.296 83.0743 170.896 83.6845 170.896 84.4948C170.896 85.3051 170.286 85.9254 169.515 85.9254Z" fill="#FAF9F5"/>
<path fill-rule="evenodd" clip-rule="evenodd" d="M170.296 84.0747C170.296 83.6846 170.066 83.5145 169.606 83.5145H168.855V85.4852H169.155V84.6349H169.495L170.016 85.4852H170.346L169.786 84.6249C170.076 84.5849 170.296 84.4348 170.296 84.0847V84.0747ZM169.145 84.3748V83.7646H169.556C169.766 83.7646 169.986 83.8146 169.986 84.0547C169.986 84.3548 169.756 84.3748 169.506 84.3748H169.145Z" fill="#FAF9F5"/>
<path fill-rule="evenodd" clip-rule="evenodd" d="M145.466 58.5848H145.806L146.327 59.4352H146.657L146.097 58.5748C146.387 58.5348 146.607 58.3848 146.607 58.0346C146.607 57.6445 146.377 57.4744 145.916 57.4744H145.166V59.4452H145.466V58.5848ZM145.466 57.7245H145.876C146.087 57.7245 146.307 57.7745 146.307 58.0146C146.307 58.3147 146.077 58.3347 145.826 58.3347H145.466V57.7245Z" fill="#FAF9F5"/>
<path fill-rule="evenodd" clip-rule="evenodd" d="M145.836 60.1655C146.767 60.1655 147.557 59.4452 147.557 58.4548C147.557 57.4644 146.757 56.7542 145.836 56.7542C144.916 56.7542 144.106 57.4744 144.106 58.4548C144.106 59.4352 144.896 60.1655 145.836 60.1655ZM145.836 57.0343C146.607 57.0343 147.217 57.6445 147.217 58.4548C147.217 59.2651 146.607 59.8854 145.836 59.8854C145.066 59.8854 144.446 59.2851 144.446 58.4548C144.446 57.6245 145.056 57.0343 145.836 57.0343Z" fill="#FAF9F5"/>
<path fill-rule="evenodd" clip-rule="evenodd" d="M23.189 84.835C22.8888 84.835 22.4387 84.815 21.7784 84.6049C21.0981 84.3948 20.8681 83.7346 20.658 82.304L18.5772 68.2086C18.5071 67.7284 18.3771 67.4983 18.167 67.4983C17.9569 67.4983 17.8269 67.6784 17.6668 68.0385L11.4644 81.0635L5.23202 68.2086C4.94191 67.6183 4.80185 67.4983 4.62178 67.4983C4.44172 67.4983 4.30166 67.6984 4.23163 68.0885L1.97076 82.9643C1.85071 83.7446 1.67065 84.6349 1.0404 84.765C0.70027 84.835 0.540209 84.835 0.360139 84.835C0.13005 84.835 0 84.885 0 84.995C0 85.1951 0.18007 85.2451 0.410158 85.2451C1.14044 85.2451 2.24087 85.1751 2.67103 85.1751C3.08119 85.1751 4.10158 85.2451 5.06195 85.2451C5.40209 85.2451 5.61217 85.2051 5.61217 84.995C5.61217 84.885 5.45211 84.835 5.27204 84.835C5.04195 84.835 4.72182 84.815 4.31166 84.7249C3.92151 84.6349 3.6314 84.4248 3.6314 83.9947C3.6314 83.6345 3.65141 83.3344 3.70143 82.9242L4.88189 73.8407H4.97192C5.77223 75.5514 7.14276 78.4225 7.34284 78.9127C7.61294 79.5529 9.42364 83.0343 9.96385 84.0847C10.334 84.765 10.5541 85.2251 10.7642 85.2251C10.9742 85.2251 11.0843 85.0251 11.6045 83.9546L16.5764 73.5906H16.6664L18.037 83.6345C18.127 84.2748 18.057 84.5649 17.9269 84.6149C17.7669 84.6849 17.6768 84.755 17.6768 84.865C17.6768 85.0051 17.8169 85.0651 18.3371 85.1151C19.2474 85.1751 22.3986 85.2451 22.9689 85.2451C23.289 85.2451 23.5591 85.1751 23.5591 84.995C23.5591 84.855 23.399 84.835 23.199 84.835H23.189Z" fill="#FAF9F5"/>
<path fill-rule="evenodd" clip-rule="evenodd" d="M42.2164 77.092C42.3765 77.092 42.5065 77.052 42.5065 76.9119C42.5065 76.7319 42.3464 76.6818 42.0463 76.6818C41.296 76.6818 40.0856 76.7519 39.3753 76.7519C38.665 76.7519 37.2545 76.6818 36.064 76.6818C35.7439 76.6818 35.5838 76.7219 35.5838 76.9119C35.5838 77.052 35.7239 77.092 35.924 77.092C36.2441 77.092 36.6342 77.112 36.8143 77.162C37.5646 77.3221 37.7747 77.6822 37.7947 78.4625C37.8147 79.1428 37.8147 80.0131 37.8147 81.1536V83.3044C37.8147 83.6945 37.7247 83.9847 37.3845 84.1447C36.8343 84.3948 36.034 84.3948 35.4438 84.3948C30.6319 84.3948 27.5107 80.7234 27.5107 75.8215C27.5107 73.0204 28.331 71.3098 29.6115 70.2294C31.2122 68.9088 32.8728 68.8188 34.1333 68.8188C36.7143 68.8188 38.535 69.8692 39.2152 70.5995C39.8055 71.2397 39.9255 71.97 39.9955 72.4902C40.0155 72.6703 40.0656 72.7903 40.2256 72.7903C40.4057 72.7903 40.4757 72.6703 40.4757 72.3102C40.4757 69.4591 40.6358 68.8188 40.6358 68.5687C40.6358 68.4086 40.5858 68.3186 40.3157 68.2986C39.7955 68.2686 38.9952 68.1385 38.515 68.0485C38.0548 67.9585 36.054 67.6884 34.4734 67.6884C32.5527 67.6884 30.5319 67.8484 28.331 69.1689C26.2502 70.4194 24.3595 72.9704 24.3595 76.6318C24.3595 82.9243 29.3114 85.5653 34.8936 85.5653C36.6743 85.5653 38.9051 85.3152 40.3957 84.5349C40.6658 84.3748 40.6958 84.3348 40.6958 83.7146V81.2036C40.6958 80.0631 40.6958 79.1528 40.7158 78.4725C40.7358 77.6822 40.9659 77.2921 41.5862 77.172C41.8663 77.122 42.0263 77.102 42.2064 77.102L42.2164 77.092Z" fill="#FAF9F5"/>
<path fill-rule="evenodd" clip-rule="evenodd" d="M61.814 84.6049C61.6539 84.6749 61.5639 84.7449 61.5639 84.855C61.5639 84.995 61.7039 85.0551 62.2241 85.1051C63.1445 85.1651 66.2857 85.2351 66.8559 85.2351C67.1761 85.2351 67.4462 85.1651 67.4462 84.985C67.4462 84.845 67.2861 84.825 67.086 84.825C66.7859 84.825 66.3357 84.805 65.6755 84.5949C64.9952 84.3848 64.7651 83.7246 64.555 82.294L62.4842 68.1986C62.4142 67.7184 62.2742 67.4883 62.0641 67.4883C61.854 67.4883 61.724 67.6683 61.5639 68.0285L55.3615 81.0535L49.1291 68.1986C48.829 67.6083 48.6989 67.4883 48.5189 67.4883C48.3388 67.4883 48.1987 67.6884 48.1287 68.0785L45.8678 82.9543C45.7478 83.7346 45.5677 84.6249 44.9275 84.7549C44.5873 84.825 44.4273 84.825 44.2472 84.825C44.0171 84.825 43.8871 84.875 43.8871 84.985C43.8871 85.1851 44.0671 85.2351 44.2972 85.2351C45.0275 85.2351 46.1279 85.1651 46.5581 85.1651C46.9883 85.1651 47.9987 85.2351 48.959 85.2351C49.2992 85.2351 49.5092 85.1951 49.5092 84.985C49.5092 84.875 49.3492 84.825 49.1691 84.825C48.939 84.825 48.6189 84.805 48.2087 84.7149C47.8186 84.6249 47.5185 84.4148 47.5185 83.9846C47.5185 83.6245 47.5485 83.3244 47.5885 82.9142L48.779 73.8307H48.869C49.6693 75.5414 51.0398 78.4125 51.2399 78.9027C51.52 79.5429 53.3207 83.0243 53.8609 84.0747C54.2211 84.7549 54.4511 85.2151 54.6612 85.2151C54.8713 85.2151 54.9813 85.015 55.5015 83.9446L60.4735 73.5806H60.5635L61.934 83.6245C62.0241 84.2648 61.954 84.5549 61.824 84.6049H61.814Z" fill="#FAF9F5"/>
<path fill-rule="evenodd" clip-rule="evenodd" d="M91.7656 83.7146V81.2036C91.7656 80.0632 91.7656 79.1528 91.7856 78.4725C91.8056 77.6822 92.0357 77.2921 92.6559 77.172C92.926 77.122 93.0861 77.102 93.2661 77.102C93.4262 77.102 93.5662 77.062 93.5662 76.9219C93.5662 76.7419 93.4062 76.6919 93.1061 76.6919C92.3558 76.6919 91.1453 76.7619 90.435 76.7619C89.7248 76.7619 88.3142 76.6919 87.1238 76.6919C86.8036 76.6919 86.6436 76.7319 86.6436 76.9219C86.6436 77.062 86.7736 77.102 86.9837 77.102C87.3038 77.102 87.694 77.122 87.874 77.172C88.6243 77.3321 88.8344 77.6922 88.8544 78.4725C88.8744 79.1528 88.8744 80.0231 88.8744 81.1636V83.3144C88.8744 83.7046 88.7844 83.9947 88.4343 84.1547C87.884 84.4048 87.0837 84.4048 86.4935 84.4048C81.6817 84.4048 78.5504 80.7334 78.5504 75.8315C78.5504 73.0304 79.3708 71.3198 80.6513 70.2394C82.2419 68.9189 83.9125 68.8288 85.163 68.8288C87.744 68.8288 89.5647 69.8792 90.245 70.6095C90.8352 71.2498 90.9552 71.98 91.0253 72.5002C91.0453 72.6803 91.0953 72.8004 91.2554 72.8004C91.4354 72.8004 91.5054 72.6803 91.5054 72.3202C91.5054 69.4691 91.6655 68.8288 91.6655 68.5787C91.6655 68.4187 91.6155 68.3286 91.3454 68.3086C90.8252 68.2786 90.0249 68.1486 89.5447 68.0585C89.0845 67.9685 87.0737 67.6984 85.5031 67.6984C83.5924 67.6984 81.5616 67.8584 79.3708 69.179C77.3 70.4294 75.3992 72.9804 75.3992 76.6418C75.3992 82.9343 80.3511 85.5753 85.9433 85.5753C87.724 85.5753 89.9548 85.3252 91.4354 84.5449C91.7155 84.3848 91.7355 84.3448 91.7355 83.7246L91.7656 83.7146Z" fill="#FAF9F5"/>
<path fill-rule="evenodd" clip-rule="evenodd" d="M146.307 68.4787C146.577 68.4086 146.767 68.4086 146.987 68.4086C147.257 68.4086 147.397 68.3386 147.397 68.2086C147.397 68.0285 147.167 67.9985 146.877 67.9985C145.756 67.9985 144.896 68.0685 144.646 68.0685C144.166 68.0685 143.065 67.9985 141.885 67.9985C141.545 67.9985 141.295 68.0185 141.295 68.2086C141.295 68.3386 141.385 68.4086 141.655 68.4086C141.975 68.4086 142.515 68.4086 142.865 68.5487C143.416 68.7788 143.626 69.209 143.646 70.5995L143.876 80.8434H143.766C143.375 80.4833 140.294 77.192 138.744 75.6414C135.412 72.3402 131.951 68.6187 131.671 68.3186C131.281 67.9084 131.081 67.6083 130.831 67.6083C130.601 67.6083 130.541 67.9285 130.541 68.3786L130.33 81.8838C130.31 83.8646 130.22 84.5249 129.63 84.7149C129.31 84.805 128.9 84.825 128.6 84.825C128.52 84.825 128.47 84.845 128.41 84.855C128.36 84.835 128.29 84.825 128.21 84.825C127.94 84.825 127.599 84.805 127.249 84.7349C126.769 84.6249 126.109 84.2948 125.238 82.254C123.778 78.7826 120.127 69.4791 119.586 68.2286C119.356 67.6984 119.226 67.4983 119.016 67.4983C118.786 67.4983 118.656 67.7484 118.376 68.4086L112.654 82.7342C112.343 83.5045 112.043 84.1047 111.563 84.4548C111.133 84.2448 110.583 83.8746 109.943 83.2144C108.602 81.8038 107.021 79.773 104.991 77.222C107.292 75.3513 108.002 73.8007 108.002 72.1101C108.002 70.5795 107.091 69.419 106.451 68.9889C105.221 68.1485 103.69 68.0085 102.25 68.0085C101.539 68.0085 99.8087 68.0785 99.0384 68.0785C98.5582 68.0785 97.1176 68.0085 95.9072 68.0085C95.567 68.0085 95.407 68.0485 95.407 68.2186C95.407 68.3886 95.547 68.4186 95.7971 68.4186C96.1172 68.4186 96.5074 68.4387 96.6875 68.4887C97.4377 68.6487 97.6178 69.0089 97.6678 69.7892C97.7078 70.5195 97.7078 71.1597 97.7078 74.621V78.6326C97.7078 80.7334 97.7078 82.5341 97.5978 83.4945C97.5078 84.1547 97.3877 84.6649 96.9375 84.755C96.7375 84.795 96.4574 84.845 96.1172 84.845C95.8471 84.845 95.7571 84.915 95.7571 85.0251C95.7571 85.1851 95.9171 85.2551 96.2173 85.2551C97.1276 85.2551 98.5682 85.1851 98.9983 85.1851C99.3385 85.1851 101.029 85.2551 102.35 85.2551C102.65 85.2551 102.81 85.1851 102.81 85.0251C102.81 84.915 102.72 84.845 102.54 84.845C102.26 84.845 101.769 84.795 101.419 84.755C100.739 84.6649 100.599 84.1547 100.529 83.4945C100.419 82.5441 100.419 80.7334 100.419 78.6126V78.2925C100.419 78.1524 100.489 78.1124 100.599 78.1124L102.58 78.1624C102.74 78.1624 102.88 78.1824 102.99 78.3225C103.28 78.6626 104.33 80.2132 105.251 81.4737C106.521 83.2244 107.392 84.3048 108.372 84.825C108.962 85.1451 109.532 85.2551 110.813 85.2551H115.045C115.045 85.2551 115.085 85.2551 115.105 85.2551C115.165 85.2551 115.225 85.2551 115.285 85.2551C115.535 85.2551 115.675 85.2151 115.675 85.0251C115.675 84.895 115.605 84.845 115.335 84.845H115.215C115.215 84.845 115.095 84.845 114.975 84.845C114.284 84.845 114.074 84.5449 114.074 84.1347C114.074 83.8646 114.184 83.3144 114.414 82.7442L115.645 79.4829C115.685 79.3429 115.735 79.3028 115.845 79.3028H120.937C121.047 79.3028 121.117 79.3429 121.167 79.4629L122.998 84.2948C123.108 84.5649 122.958 84.775 122.788 84.825C122.557 84.845 122.467 84.895 122.467 85.0251C122.467 85.1851 122.738 85.1851 123.148 85.2051C124.978 85.2451 126.639 85.2451 127.459 85.2451C127.93 85.2451 128.19 85.2351 128.34 85.1851C128.43 85.2351 128.56 85.2451 128.73 85.2451C129.91 85.2451 130.991 85.1751 131.191 85.1751C131.621 85.1751 132.531 85.2451 134.022 85.2451C134.342 85.2451 134.542 85.2051 134.542 85.0151C134.542 84.885 134.402 84.835 134.152 84.835C133.792 84.835 133.352 84.815 132.961 84.6749C132.501 84.5149 132.211 83.9146 132.161 82.1439L131.911 72.5602H131.981C132.391 72.9904 134.922 75.8515 137.413 78.3025C139.784 80.6534 142.705 83.6445 144.146 85.0151C144.396 85.2651 144.666 85.5152 144.916 85.5152C145.116 85.5152 145.216 85.3052 145.216 84.805L145.466 70.4094C145.486 69.1289 145.666 68.6487 146.307 68.4687V68.4787ZM103.95 76.6618C103.54 76.9619 103.24 77.052 102.33 77.052C101.759 77.052 101.079 76.982 100.599 76.8219C100.439 76.7519 100.389 76.6618 100.389 76.4117V69.4791C100.389 69.299 100.429 69.1989 100.599 69.1589C100.829 69.0889 101.229 69.0689 101.809 69.0689C103.15 69.0689 105.301 69.9993 105.301 73.2405C105.301 75.1112 104.641 76.1516 103.96 76.6618H103.95ZM120.487 78.1524H116.285C116.195 78.1524 116.165 78.0824 116.195 77.9923L118.296 72.3802C118.316 72.2901 118.366 72.1801 118.436 72.1801C118.506 72.1801 118.526 72.2901 118.546 72.3802L120.597 78.0123C120.617 78.0824 120.597 78.1524 120.487 78.1524Z" fill="#FAF9F5"/>
<path fill-rule="evenodd" clip-rule="evenodd" d="M167.995 76.3917C167.995 73.6807 166.925 71.7799 165.784 70.5995C163.303 67.9985 159.492 67.9985 156.641 67.9985C155.27 67.9985 153.839 68.0685 153.129 68.0685C152.489 68.0685 151.048 67.9985 149.848 67.9985C149.508 67.9985 149.348 68.0385 149.348 68.2086C149.348 68.3786 149.488 68.4086 149.738 68.4086C150.058 68.4086 150.448 68.4286 150.628 68.4787C151.379 68.6387 151.569 68.9989 151.609 69.7792C151.649 70.5095 151.649 71.1497 151.649 74.611V78.6226C151.649 80.7234 151.649 82.5241 151.539 83.4845C151.449 84.1447 151.328 84.6549 150.878 84.745C150.668 84.785 150.398 84.835 150.058 84.835C149.788 84.835 149.688 84.905 149.688 85.0151C149.688 85.1751 149.848 85.2451 150.148 85.2451C151.058 85.2451 152.499 85.1751 153.019 85.1751C154.16 85.1751 156.21 85.4552 157.881 85.4552C162.103 85.4552 164.474 83.8346 165.524 82.7642C166.804 81.4637 168.005 79.2728 168.005 76.4017L167.995 76.3917ZM163.023 82.7342C161.652 83.9246 160.102 84.3748 157.771 84.3748C155.97 84.3748 155.08 83.8946 154.78 83.4645C154.6 83.2044 154.55 82.294 154.53 81.7238C154.51 81.2936 154.49 79.5329 154.49 77.112V74.2409C154.49 72.4402 154.49 70.4594 154.51 69.6791C154.51 69.429 154.58 69.319 154.79 69.229C154.97 69.1389 155.82 69.0689 156.27 69.0689C158.051 69.0689 160.652 69.349 162.743 71.3498C163.723 72.2801 164.934 74.1509 164.934 77.052C164.934 79.4029 164.474 81.4737 163.013 82.7242L163.023 82.7342Z" fill="#FAF9F5"/>
<path fill-rule="evenodd" clip-rule="evenodd" d="M32.8227 16.4186C33.0227 16.2185 33.3229 16.4686 33.573 16.3686V16.3185C33.773 16.2685 33.673 15.9684 33.773 15.8183C33.4229 15.9184 33.0728 16.0184 32.7726 16.1185C32.3725 16.1685 31.8223 15.9684 31.5722 16.2185C31.5222 16.7187 31.9723 16.9688 32.2224 17.3189C32.7226 18.1192 32.8727 19.2597 33.9231 19.5098C35.1736 19.6598 36.7142 19.0096 37.7546 20.01C37.9046 20.11 37.9046 20.3601 38.0547 20.3601L37.9547 20.7603C37.7046 21.2104 37.2544 21.5606 36.7042 21.5105C35.9039 21.1104 35.2136 20.5102 34.2632 20.4701C33.9131 20.5202 34.1132 20.9703 33.9631 21.2204C34.1132 21.4205 34.2132 21.6706 34.2132 21.8707C34.5633 22.3209 34.8134 22.8711 35.0135 23.3613C35.2136 24.2616 36.0639 24.7118 36.8542 24.9019C36.9543 24.4017 37.2044 23.9515 37.6545 23.7014C38.6549 23.5013 39.7453 22.8611 40.1455 21.8107C40.4956 21.3105 40.8458 20.5102 41.496 20.5602C42.5364 21.3605 42.2463 22.9511 41.9962 24.0015C42.2463 23.8514 42.3964 23.4513 42.6965 23.4013L42.5464 24.5017C42.2463 26.4925 42.5964 28.4932 43.7469 30.0338C43.4968 28.4432 43.6469 26.5925 43.8969 25.0019C43.947 24.8018 43.947 24.5017 44.047 24.3016H43.997C44.097 24.0015 44.147 23.6013 44.1971 23.3012C44.4972 22.601 44.6372 21.8507 45.0374 21.2104L45.0874 21.2604C44.4171 24.9719 43.7369 28.0931 44.5372 31.3343L44.4872 31.4344C44.137 31.2843 43.8869 30.9342 43.5368 30.7841C43.3867 31.4344 43.3867 31.9746 43.4368 32.6749C43.5868 35.3159 44.9273 37.6068 47.1282 39.2574C45.1674 35.766 46.4779 34.7757 47.5784 33.075C47.6784 32.7749 47.6784 32.4748 47.7784 32.1747L47.8285 32.0246C47.9285 32.2247 47.9785 32.4748 48.0285 32.7249C48.0786 34.0154 48.9889 35.4959 49.7392 36.5964C50.8296 38.187 52.2102 39.2474 52.1601 41.2982C51.91 40.798 51.6599 40.1978 51.2598 39.7076C49.8693 38.107 47.9185 36.3663 47.4783 34.2755C46.628 36.3163 46.9781 38.8572 48.5187 40.4579C50.5095 42.0485 52.7604 43.6991 53.7508 46.04C54.351 44.6395 54.0509 42.9988 53.8008 41.6083C55.0012 41.7083 56.1917 41.8584 57.3421 42.1585V42.0585C55.9416 41.0181 54.2009 40.1677 53.3006 38.5671C52.5003 37.1766 53.0005 35.2759 51.76 34.0854C50.6596 33.2851 49.7292 31.6044 49.6292 30.364C49.4791 27.773 50.0693 25.7622 51.0097 23.5713C51.1097 23.4713 51.1097 23.2712 51.2598 23.3212C51.0597 24.2716 50.7596 25.162 50.6195 26.1623C50.4695 28.1531 49.8993 30.0538 51.1497 31.9546C52.1501 32.955 53.5607 33.5852 54.2009 34.9757C54.2009 35.0258 54.2009 35.1758 54.1509 35.1758C53.5507 34.6856 53.0005 33.8853 52.2102 33.6852C53.3106 34.5756 53.3506 35.8761 53.6007 37.1666C53.8008 38.6171 55.0012 39.8576 56.3418 40.3578C57.8823 41.1081 59.7831 40.708 61.3737 40.4579C60.6234 40.2078 59.9631 40.0977 59.2129 39.6976C57.7223 39.0773 56.6319 38.317 56.2817 37.0165C56.0316 36.2662 56.4318 35.2659 56.982 34.7256C56.0816 33.8753 55.7815 32.6849 55.7315 31.4844C55.8316 30.9342 55.6815 30.434 55.8816 29.9938V30.0438C56.0316 31.7345 56.4318 33.5852 57.9224 34.6256C57.7723 34.8757 57.4722 34.8757 57.3721 35.0758C57.022 35.576 57.2721 36.6364 57.5222 37.1866C58.6727 39.2274 60.5134 39.6075 62.4541 40.2578C61.3037 38.9173 59.7331 37.0365 59.1828 35.4359C58.2325 33.145 59.0628 30.584 59.3229 28.0431C59.3229 27.4929 59.2729 26.9526 59.3229 26.3524C59.3729 26.3524 59.4229 26.4024 59.473 26.4524C59.8731 28.1531 59.3729 30.0438 59.473 31.7845C59.4229 34.8757 60.9635 37.4167 62.9643 39.6575C66.3556 42.9488 70.4372 45.7399 72.3379 49.9215C72.638 50.9719 73.5384 51.8723 73.0382 53.1127C72.2879 54.5133 70.4972 54.3632 69.0467 54.3632C68.2563 54.6133 67.9062 55.4637 67.356 56.0039C67.0059 56.454 66.4557 56.8542 66.7058 57.4544H67.9963C68.1963 57.3044 68.0963 57.0543 68.1963 56.8542C68.5965 56.304 69.0967 55.6537 69.6469 55.2136C70.1871 55.0635 70.6473 54.8134 71.1875 54.8134C71.0875 54.8634 71.1375 54.9134 71.0874 54.9635C70.3372 55.3136 69.4968 55.7137 69.1467 56.5041C68.9966 56.8042 68.7465 57.1043 68.8466 57.4044C69.3468 57.5044 70.047 57.4544 70.5873 57.4544C70.8874 57.1043 70.9374 56.6141 71.1375 56.1539C71.5876 55.4036 72.488 55.2036 73.2783 55.2036C72.7281 55.5537 71.7877 55.7037 71.6377 56.5541C71.5876 56.8542 71.4376 57.1543 71.6377 57.4044C72.8781 57.5545 74.2287 57.4544 75.5292 57.4544C75.9293 57.5044 76.0794 57.2043 76.3295 56.9542C77.1798 55.8038 79.2206 55.8638 79.2206 54.1131C79.0205 51.4721 77.78 49.0812 77.0698 46.5802C76.7196 45.5298 76.2794 44.3894 76.3195 43.2389C76.5696 43.5891 76.9697 43.9892 77.3699 44.1393C76.8197 43.289 76.7696 42.1985 76.8697 41.1481L76.9697 41.0481C77.2698 41.4482 77.67 41.8984 78.2102 41.7984C76.6696 39.8576 78.3603 36.5163 76.3195 34.7757C74.5788 33.5752 72.638 31.7845 72.3279 29.6437L72.3779 29.5937L72.428 29.7437C72.428 29.7437 72.3779 29.5937 72.428 29.5937C73.1182 31.2943 75.099 32.7849 76.7896 33.7853C79.3306 35.4259 77.4499 38.8172 78.4003 41.1081C81.2914 41.1581 84.3826 41.2081 87.0736 40.3578C91.1652 39.3674 94.7966 37.1666 98.5881 35.3259C100.679 34.4755 102.87 33.3351 105.271 33.7353C107.912 34.5356 109.802 36.8765 111.803 38.8672C114.744 41.5083 118.036 43.459 121.667 44.5494C125.058 45.6999 128.99 45.6499 132.631 46.1401C134.172 46.2401 135.622 46.9404 136.613 48.2309C137.363 49.6314 138.213 51.122 138.103 52.8226C137.753 53.673 136.913 54.0231 136.213 54.4132C135.412 54.8634 134.372 54.5133 133.572 54.8634C133.021 55.4637 132.771 56.2039 132.321 56.8542C132.221 57.0042 132.171 57.3044 132.421 57.3544C132.971 57.4044 133.472 57.4044 134.012 57.3544C134.262 56.8042 134.712 56.354 134.912 55.8038C135.212 55.4036 135.662 55.3536 136.113 55.2036C136.413 55.2536 136.613 55.0035 136.913 55.1035C136.513 55.6537 135.572 55.4536 135.372 56.254C135.222 56.6541 134.822 56.9442 134.822 57.3444C135.522 57.3944 136.373 57.3944 137.173 57.3444L137.523 56.494C137.773 55.6437 138.714 55.3536 139.464 55.2536C139.164 55.6537 138.624 55.7538 138.323 56.2039C138.173 56.5541 137.923 57.0042 137.923 57.4044C138.774 57.4544 139.874 57.4544 140.714 57.4044C141.565 56.6541 141.765 55.3136 143.005 54.7634C143.555 54.2632 144.106 53.713 143.856 52.9727C142.855 50.9319 141.705 48.9811 141.505 46.6402C141.305 45.2997 141.655 43.6991 141.014 42.4486C139.814 41.1581 137.823 41.3082 136.133 40.958C132.691 40.5079 129.8 38.7672 127.259 36.5764C126.159 35.536 125.108 34.4855 124.418 33.2351C124.718 33.2851 124.918 33.6352 125.268 33.7353C128.109 35.2759 131.051 36.7264 134.342 37.0765C135.392 37.2766 136.583 37.1766 137.583 36.7764C139.174 36.3763 140.624 34.7857 140.974 33.1951C142.125 29.4536 139.334 25.9122 141.024 22.3309C140.474 22.5309 140.074 23.0311 139.724 23.5313C139.624 23.6314 139.624 23.4813 139.624 23.4313C139.924 22.2908 139.874 20.9403 139.674 19.7899C139.474 18.9395 139.284 18.1492 138.984 17.3489C138.533 17.6991 138.333 18.1993 138.133 18.6995C138.033 18.9996 138.133 19.4497 137.933 19.6498C137.383 18.6995 137.093 17.609 137.093 16.4086L136.993 16.3586C135.742 18.0992 134.152 19.6998 133.402 21.6406C133.001 24.0815 135.542 25.332 137.143 26.7226C138.143 27.5229 138.784 28.6633 139.184 29.8638C139.584 31.6545 139.084 33.6552 137.743 34.6456C136.693 35.2458 135.302 35.4959 134.052 35.2458C129.02 33.9954 125.078 29.3136 121.937 25.232C120.146 22.741 117.555 20.9403 114.864 19.8999C108.532 17.6591 102.049 15.3682 94.8766 15.5082C91.5854 15.5582 88.3441 16.2585 85.3029 16.9088C84.2125 17.1088 83.3122 16.6587 82.3118 16.5086C80.5711 16.1085 78.5703 16.5086 77.0798 15.5082C75.3891 13.7676 73.5884 12.1669 71.2975 11.6167C70.1071 11.2166 68.7565 11.2666 67.5061 10.9665C68.5565 10.6664 69.6969 10.6664 70.8473 10.8164L70.1971 9.96608C68.6065 7.37508 65.9655 5.37431 62.7742 5.53437C61.1736 3.64364 59.3329 1.79293 56.892 1.40278C53.4506 1.25272 50.3594 2.4932 48.1686 5.18424L48.1186 5.13422C48.4687 4.18385 49.3691 3.2835 50.2594 2.69327L50.3094 2.54322C50.1093 2.09304 49.8592 1.65287 49.5591 1.30274C48.9089 0.752525 48.2686 -0.0477838 47.4183 0.00223556C47.0682 1.10266 46.618 2.19308 45.9277 3.19347C44.6772 5.18424 42.4864 5.73445 40.8458 7.27504C40.3456 7.57516 39.7453 7.57516 39.2451 7.77524C38.0947 7.97531 37.4545 9.06574 37.1043 10.0661L36.1039 10.9665C35.6037 11.9669 34.6634 12.7572 33.763 13.4574C33.1628 14.1077 32.4225 14.7479 32.0724 15.4982C32.7226 15.4482 33.563 15.6483 34.0631 15.1481C34.3132 15.6483 34.0631 16.0484 33.8631 16.4886C33.563 16.8387 33.0127 16.8387 32.7626 17.1889C32.7126 17.2889 32.5626 17.3889 32.4625 17.3389C32.5126 17.0388 32.4625 16.6387 32.8127 16.4386L32.8227 16.4186ZM136.753 43.379C138.093 43.6291 139.394 44.7195 139.794 46.07C140.344 47.6606 140.944 49.2613 141.595 50.8019L141.445 50.7518C140.494 49.1512 139.884 47.7907 138.964 46.05C136.583 43.519 135.142 43.8892 132.571 43.429C131.621 43.2289 130.58 43.2789 129.83 42.7287L129.73 42.4786C131.971 42.9788 134.422 43.0789 136.763 43.379H136.753ZM109.572 33.4452C112.313 36.1862 114.924 38.8072 118.296 40.4178C120.787 41.5683 123.358 42.3186 126.299 42.0685L126.339 41.9784C126.189 39.7376 125.158 38.207 123.758 36.4163C122.807 35.0158 122.197 33.2551 121.747 31.6645C121.247 29.5737 120.206 27.5729 118.506 26.2324C118.756 26.1823 118.896 26.4825 119.096 26.5825C120.597 27.833 121.757 29.0234 122.257 30.7741C122.707 33.3151 124.828 35.5059 125.779 37.8468C126.429 39.2974 126.779 40.6879 126.779 42.3786C122.747 43.0789 118.356 41.9784 115.114 39.7376C111.773 37.7968 110.133 33.9053 106.841 32.0146C106.741 31.9646 106.641 31.9146 106.591 31.8645C107.592 32.1146 108.672 32.7949 109.572 33.4452ZM93.1059 34.5856C90.715 36.3763 87.8039 37.4967 85.0128 38.4371C84.6127 38.5371 84.1125 38.5871 83.7123 38.5871C89.5446 36.9965 93.9863 31.8545 99.3183 28.9634C100.359 28.4132 101.409 27.963 102.56 27.6629L102.96 27.7129C99.2283 29.1135 96.3472 32.0346 93.1059 34.5756V34.5856ZM91.5253 22.791C95.3668 21.7906 99.5184 21.4405 103.75 22.2408C101.259 20.3501 98.538 19.6998 95.5469 18.7995C94.1463 18.4494 92.3857 18.0992 90.9351 17.8491C92.5757 17.649 95.3568 17.9492 96.9974 18.2993C99.8385 19.0496 101.649 20.12 104.14 21.9107C104.29 22.0608 104.59 22.3809 104.64 22.581C104.39 22.631 104.09 22.4809 103.84 22.4809C97.5977 21.9707 95.1668 22.8811 86.9436 25.4421C84.1325 26.5625 81.0113 27.7229 78.2202 28.7633C82.3518 26.2224 86.9236 24.1316 91.5153 22.781L91.5253 22.791ZM39.2351 18.3093L38.1647 17.9092C38.0147 17.459 38.6149 17.6591 38.815 17.6591C39.7654 17.9092 40.8058 18.0592 41.7561 18.4093C40.9558 18.4093 40.3656 18.5594 39.2351 18.3093ZM38.0647 15.8684C37.9647 15.4682 38.4148 15.5682 38.6649 15.4182C40.1555 14.968 41.6561 14.3678 43.1467 14.0176C41.5961 15.0681 39.9854 15.6883 38.0647 15.8684ZM39.1751 16.9988L38.2148 16.9088C38.2148 16.8087 38.2148 16.7087 38.2648 16.6086C39.8554 16.4086 41.456 16.1085 43.0966 15.9584C41.8462 16.5586 40.6657 17.0688 39.1751 16.9888V16.9988ZM53.3206 14.4478C53.2205 13.7475 53.2205 12.6271 53.5707 11.9268L53.6207 11.9769C53.6207 13.4674 54.2209 14.918 54.371 16.4586C53.9708 15.7583 53.5207 15.1881 53.3306 14.4378L53.3206 14.4478ZM74.0586 37.8468C75.199 38.6472 75.109 40.0877 75.3491 41.3382C75.5992 43.2289 75.7493 45.1697 76.4495 46.9704C77.1498 48.9111 78.2402 51.062 77.3999 53.2528L77.3499 53.2028C77.2998 52.1524 77.3499 51.112 77.0497 50.1116C75.9993 47.0204 74.8689 45.6899 74.4287 42.3986C74.2787 41.4983 74.2587 39.6575 73.3483 38.5771C71.8077 38.0769 70.3272 36.4963 70.027 34.8057C71.0774 36.2963 72.468 37.2466 74.0686 37.8468H74.0586ZM68.9666 39.2974L69.0667 39.4475C67.1259 38.147 64.815 37.9469 62.9743 36.5063C62.074 35.8561 61.2436 34.6656 61.1936 33.5152C61.2937 33.5152 61.2436 33.7153 61.3437 33.7653C61.5438 34.2555 61.8439 34.7657 62.2941 35.0558C62.144 34.5556 61.8439 33.8553 62.094 33.2651C62.3441 34.4655 62.9443 35.706 64.0847 36.3563C64.1348 36.1062 63.9847 35.8061 63.9347 35.5059C63.8847 35.2558 63.7846 35.0058 63.9347 34.7557C64.2348 35.656 64.785 36.9965 65.9755 37.2466C65.7754 36.7964 65.4753 36.3463 65.5253 35.7961H65.5753C65.9755 37.6368 68.0663 37.7868 68.9666 39.2874V39.2974ZM56.7219 17.7291C56.7719 16.2385 57.8023 14.4678 58.9528 13.4774C59.7031 12.8272 60.3033 12.0869 60.5934 11.1866C60.7435 11.6367 60.3933 12.1369 60.1932 12.5271C58.8427 14.1177 57.7423 16.0584 57.7423 18.2493C57.6423 21.1904 60.0932 22.751 60.9935 25.342L61.0436 25.292C61.5438 22.2508 59.2029 20.3401 59.3029 17.399C59.2529 15.6983 60.4533 13.8276 61.6438 12.5771C62.5942 11.7268 63.6846 10.8264 63.8346 9.53592C64.0347 9.78601 63.8346 10.1862 63.8346 10.5363C63.3845 12.0769 62.3741 12.8272 61.8739 14.3278C61.6738 15.5682 61.1936 17.3189 61.7338 18.4193C63.1844 16.3786 65.1752 13.8376 68.0663 14.6279C65.8254 14.6279 64.1348 16.3686 62.8343 18.0692C62.4341 18.6194 62.184 19.2697 61.7839 19.7599C61.5338 19.7599 61.6838 19.5598 61.5838 19.4597C60.5334 17.1889 60.6634 16.5086 60.9335 14.7779C60.5334 15.2781 60.4333 16.0184 60.3833 16.7687C60.1832 18.9596 61.0836 20.7603 61.4737 22.751C61.6238 24.5417 61.3237 26.1923 60.7735 27.7329C60.6234 27.5829 60.7735 27.2828 60.6734 27.0827C60.5234 26.3824 60.3733 25.6321 60.0732 24.9919C58.7827 22.5509 56.3017 20.7703 56.7019 17.7291H56.7219ZM55.7115 6.99494C54.9112 8.29544 55.0913 9.78601 55.3914 11.3266C55.8416 13.2173 56.6019 15.3682 55.5615 17.409H55.5114C55.5114 17.3089 55.5615 17.1589 55.5615 17.0588C56.3117 14.1177 53.7207 11.7768 54.7111 8.83565C54.8112 8.13538 55.2113 7.54515 55.6615 6.94492L55.7115 6.99494ZM49.5291 10.0361H49.5791C49.4291 9.33584 49.179 8.78563 49.279 8.03534C49.6792 9.43588 50.2294 10.7264 51.0197 12.0269C50.8196 10.9265 50.3194 9.98609 50.3194 8.78563C50.2194 6.69482 51.2598 4.65403 53.1605 3.75368C53.6607 3.55361 54.1609 3.35353 54.7011 3.15345C54.7511 3.20347 54.9012 3.20347 55.0012 3.20347C54.7011 4.20386 54.2409 5.18424 54.2409 6.28466C54.2509 8.28543 53.6507 9.88605 52.7103 11.4266C52.7103 11.0765 52.9604 10.7764 53.0105 10.4263C53.4606 9.07574 53.1805 7.56516 53.3906 6.25465C53.4406 5.55438 53.8008 4.74407 54.0509 4.09382L54.0008 4.0438C52.1601 4.79409 51.2298 6.58478 51.1898 8.57555C51.0897 11.6667 52.9604 14.3078 51.81 17.2989C50.9097 19.6398 48.7188 21.2404 47.5784 23.5313C46.8281 25.0819 45.6376 26.7226 45.7377 28.5733C45.5876 28.6233 45.6876 28.7733 45.6376 28.7733H45.5876C44.7873 26.1823 45.2875 23.0912 46.2379 20.7502C46.2879 22.1508 45.8377 23.5913 45.8377 25.0919C46.8281 22.5409 47.8285 20.6502 48.4787 18.2593C48.5287 18.1092 48.6288 17.9592 48.7288 17.8591C48.4787 19.0096 48.3787 20.2 48.0285 21.3005C48.8789 20.4601 49.6192 19.4598 50.3194 18.5094C51.5099 16.9088 52.0101 14.6179 51.0197 12.7271L49.6592 10.9965C48.4087 10.3962 47.5784 9.38586 46.9881 8.08536C46.9381 7.88528 46.8381 7.6852 46.8881 7.43511C47.3383 8.58555 48.5287 9.42587 49.5291 10.0261V10.0361ZM46.7581 10.8364C47.2082 11.0365 47.6384 11.5067 47.8385 11.9969C48.8289 14.2878 47.1882 16.6187 45.6476 18.2093C44.4071 19.4597 43.0566 20.8503 43.1066 22.691H43.0566C42.7065 21.8907 43.1066 20.9503 43.4068 20.15C44.147 18.5094 45.7977 17.1288 46.598 15.4782C47.0982 14.3778 47.6484 13.3174 47.0482 12.1269C46.648 11.5767 45.9477 11.3766 45.2575 11.4767C43.1166 11.7268 41.566 13.7175 39.2752 13.2173C39.4252 13.0173 39.8754 13.2173 40.1755 13.0673C42.3163 12.467 44.3271 10.3762 46.7781 10.8264L46.7581 10.8364ZM37.1744 11.0365C37.8246 10.9365 38.3148 10.5363 38.965 10.2862C39.0151 10.1862 38.915 10.0861 38.865 10.0361C38.7149 9.93607 38.6149 10.1862 38.4648 10.0361C38.4648 9.63596 38.5649 9.18578 38.865 8.88567C39.5153 9.63596 40.6657 9.38586 41.556 9.58594C41.7061 9.63596 41.6561 9.78601 41.7561 9.78601C41.8562 9.83603 41.6561 9.88605 41.7561 9.93607C40.4056 10.0361 39.3652 10.6864 38.1147 11.1265C37.7646 11.2266 37.3144 11.2766 36.9143 11.2266C36.9143 11.0765 37.0643 11.0765 37.1643 11.0265L37.1744 11.0365ZM36.6742 17.3189C36.8742 16.6187 36.6241 15.9184 36.7242 15.2281C37.3244 16.1785 37.4945 17.449 36.5741 18.6194C36.4741 18.7695 36.274 18.7195 36.174 18.8695C36.174 18.3193 36.6241 17.8691 36.6742 17.3289V17.3189Z" fill="#FAF9F5"/>
<path fill-rule="evenodd" clip-rule="evenodd" d="M102.059 45.7199C104.11 42.6787 107.241 40.1878 109.932 37.6968V37.5467C108.292 35.9561 106.591 34.0054 104.05 34.1554C100.459 34.5556 97.4676 36.4963 94.3864 38.137L94.2864 38.287C94.1864 39.5275 94.2864 40.678 94.4365 41.8284C94.6866 44.1693 95.3868 46.7103 94.7866 49.0512C94.2864 51.242 91.9455 52.4925 90.2048 53.5329C89.0044 54.1832 87.6138 54.3332 86.2133 54.2332C85.363 54.2832 84.6627 54.9335 84.3125 55.5737L84.3626 55.6237C84.0625 55.9739 83.7123 56.374 83.5122 56.8242C83.4122 57.0243 83.4122 57.2744 83.6123 57.4244C84.0625 57.4244 84.5126 57.4744 84.9628 57.3744C85.0128 56.7742 85.7131 56.4741 85.9032 55.9238C86.2533 55.0735 87.2037 55.0235 87.954 54.8234C87.7539 55.2236 87.2037 55.2736 86.9036 55.6237C86.6034 56.1739 85.7531 56.6741 85.8031 57.3244C86.0032 57.4744 86.4034 57.3744 86.7535 57.4244C87.1536 57.3244 87.954 57.6745 88.004 57.0743C88.204 56.1739 89.2044 55.6237 90.0448 55.4837C90.2448 55.4337 90.4949 55.0835 90.645 55.2336C90.4449 55.6337 89.9947 55.7338 89.6546 55.8838C89.0544 56.1839 88.8043 56.8342 88.7042 57.3744L91.7954 57.4244L92.6958 57.1743C93.8462 56.384 94.9367 55.7338 96.0871 54.8834C98.0879 53.1928 97.6377 50.3517 98.1779 48.0008C98.328 47.5006 98.428 46.9004 98.7781 46.5502C98.8282 46.6503 98.7281 46.7003 98.7781 46.8503C98.2279 48.3909 98.6981 49.9916 98.5981 51.6822C98.2679 53.3428 97.7377 53.5729 97.3876 54.3232C97.8878 54.1231 98.388 53.823 98.9282 53.623C99.6785 53.2728 100.879 52.8727 100.879 51.7222C100.679 50.4717 100.479 49.1812 100.479 47.8307C100.579 44.6395 101.679 41.7984 103.37 39.3574C102.42 41.9985 101.589 43.7792 101.179 47.5306C101.479 46.9304 101.729 46.2801 102.079 45.6899L102.059 45.7199Z" fill="#FAF9F5"/>
<path fill-rule="evenodd" clip-rule="evenodd" d="M27.8908 57.4844C28.0408 57.1343 28.2909 56.6341 28.6411 56.394C29.0913 55.8938 29.3414 55.2936 29.7915 54.8934C29.9416 54.9434 30.1417 54.7934 30.3417 54.7934C30.3918 54.8434 30.4918 54.7434 30.5418 54.7934V54.7434C30.7919 54.7934 30.992 54.6933 31.2421 54.7934C30.942 54.9935 30.4418 54.9935 30.1917 55.3436C30.0416 55.3436 29.9916 55.5937 29.8916 55.6437C29.7915 55.7437 29.8415 55.9938 29.6915 55.9938C29.5414 56.294 29.2913 56.6441 28.9912 56.9442C28.9912 57.1443 28.8412 57.2443 28.8912 57.3944H28.8412L28.8912 57.4944C29.4414 57.4944 29.8415 57.5444 30.4318 57.4444C30.7319 57.0442 31.032 56.6041 31.1821 56.2039L31.082 56.304V56.2039C31.4322 55.7538 32.0824 55.4036 32.6826 55.3036C32.7827 55.4536 32.8827 55.2536 33.0328 55.2536C33.1328 55.2035 33.1828 55.3536 33.1828 55.4036C32.9327 55.6037 32.5326 55.7037 32.2825 55.9038L32.3325 55.9538C31.7823 56.2539 31.5322 56.9042 31.2921 57.4044V57.4544C32.2425 57.6045 33.1328 57.5044 34.1832 57.5044L34.6334 57.3544C35.1336 56.7041 35.8339 56.314 36.6742 56.2639C37.4745 56.0639 38.0747 55.5637 38.665 54.9634C40.0655 53.0227 39.8754 50.2116 40.7758 48.0708C41.276 46.3801 42.9066 45.0496 44.4472 44.1493C44.0971 44.7495 43.4468 45.1497 43.0066 45.6999C40.8158 48.3409 41.1659 51.9323 39.6153 54.8234L39.6653 54.8734C41.316 53.873 42.8566 52.4825 44.1071 50.9319C45.8977 48.641 48.2387 46.8503 50.5896 45.2497C50.9897 44.8996 51.5399 44.7995 51.9401 44.4494C49.5992 42.0084 46.658 40.2578 44.4172 37.6668C43.6669 39.8576 42.4264 41.8484 41.1259 43.8492C39.9354 45.5398 38.685 47.2905 37.4845 48.8311C37.2844 49.0812 37.0343 49.2312 36.9843 49.5313C35.8339 50.6318 35.2836 52.4225 33.8931 53.3728C32.6426 54.3132 30.902 53.9731 29.3113 54.0231C28.1109 54.4232 27.4706 55.6637 26.7203 56.464C26.5703 56.8142 26.2702 57.1143 26.4202 57.5044C26.9204 57.5044 27.4606 57.6045 27.9108 57.5044L27.8908 57.4844Z" fill="#FAF9F5"/>
<path fill-rule="evenodd" clip-rule="evenodd" d="M128.69 84.2447C128.83 84.2447 128.95 84.2347 129.03 84.2247C129.07 84.2247 129.1 84.2247 129.13 84.2247H129.17C129.25 84.2147 129.31 84.1447 129.3 84.0647C129.3 83.9846 129.22 83.9246 129.14 83.9346H129.11C129.11 83.9346 129.06 83.9346 129.02 83.9346C128.94 83.9346 128.83 83.9446 128.69 83.9546C128.419 83.9546 128.069 83.9546 127.749 83.9246C127.559 83.9046 127.429 83.8546 127.319 83.7745C127.209 83.6945 127.109 83.5745 126.999 83.4144L126.909 83.4744L126.889 83.4944L127.009 83.4144C127.009 83.4144 126.919 83.2744 126.849 83.1143C126.769 82.9542 126.679 82.7542 126.569 82.5041C126.349 82.0039 126.059 81.3436 125.738 80.5733C125.088 79.0327 124.288 77.062 123.508 75.1112C122.717 73.1605 121.957 71.2497 121.387 69.8092C121.107 69.0889 120.867 68.4986 120.707 68.0785C120.626 67.8684 120.556 67.7083 120.516 67.5983C120.496 67.5383 120.476 67.4983 120.466 67.4683C120.466 67.4582 120.456 67.4382 120.456 67.4382C120.456 67.4382 120.456 67.4282 120.326 67.4783L120.196 67.5283V67.5683C120.196 67.5683 120.236 67.6383 120.256 67.6983C120.296 67.8084 120.366 67.9684 120.446 68.1785C120.606 68.5987 120.847 69.1889 121.127 69.9092C121.697 71.3397 122.457 73.2605 123.247 75.2112C124.028 77.162 124.838 79.1328 125.488 80.6733C125.808 81.4436 126.099 82.1039 126.319 82.6041C126.429 82.8542 126.529 83.0643 126.609 83.2243C126.689 83.3844 126.749 83.5044 126.799 83.5645C126.919 83.7345 127.039 83.8846 127.189 83.9946C127.339 84.1047 127.519 84.1747 127.759 84.2047C128.099 84.2447 128.47 84.2447 128.74 84.2347L128.69 84.2447Z" fill="#FAF9F5"/>
<path fill-rule="evenodd" clip-rule="evenodd" d="M132.331 67.8284L142.925 78.9027C142.975 78.9627 143.065 78.9627 143.125 78.9027C143.185 78.8526 143.185 78.7626 143.125 78.7026L132.531 67.6283C132.481 67.5683 132.381 67.5683 132.331 67.6283C132.271 67.6783 132.271 67.7684 132.331 67.8284Z" fill="#FAF9F5"/>
<path fill-rule="evenodd" clip-rule="evenodd" d="M120.216 67.3682C120.146 67.3983 120.106 67.4783 120.136 67.5483L120.406 67.4483C120.376 67.3783 120.296 67.3382 120.226 67.3682H120.216Z" fill="#FAF9F5"/>
<path fill-rule="evenodd" clip-rule="evenodd" d="M79.5108 76.2617H79.6308C79.5808 74.421 80.111 72.6403 80.7913 71.6899L80.6912 71.6199L80.6612 71.5999L80.7813 71.6899C81.2815 70.9796 82.0318 70.5095 82.782 70.2094C83.5423 69.9092 84.2926 69.7992 84.7928 69.7992C85.293 69.7992 85.9633 69.8792 86.4935 69.9693C86.7636 70.0093 86.9937 70.0493 87.1637 70.0793C87.2438 70.0993 87.3138 70.1093 87.3638 70.1193H87.4338L87.4539 70.0293L87.4338 70.1293C87.5139 70.1493 87.5839 70.0993 87.6039 70.0193C87.6239 69.9392 87.5739 69.8692 87.4939 69.8492H87.4238C87.4238 69.8492 87.3138 69.8092 87.2238 69.7992C87.0537 69.7692 86.8136 69.7292 86.5435 69.6792C86.0033 69.5991 85.333 69.5091 84.7928 69.5091C84.2526 69.5091 83.4623 69.6291 82.672 69.9392C81.8817 70.2494 81.0814 70.7496 80.5412 71.5199C79.8209 72.5402 79.2807 74.381 79.3307 76.2617C79.3707 77.7222 79.951 79.593 80.6812 80.6634C81.3015 81.5737 82.3319 82.5341 83.5423 83.0743C84.5327 83.5145 85.8532 83.8646 86.8336 83.8646C86.9136 83.8646 86.9737 83.8046 86.9737 83.7246C86.9737 83.6445 86.9136 83.5845 86.8336 83.5845C85.9133 83.5845 84.6228 83.2444 83.6524 82.8142C82.4919 82.304 81.5015 81.3837 80.9113 80.5133C80.2111 79.4929 79.6408 77.6822 79.6008 76.2717H79.4808L79.5108 76.2617Z" fill="#FAF9F5"/>
<path fill-rule="evenodd" clip-rule="evenodd" d="M93.7662 77.7622H93.7261C93.7261 77.7622 93.6661 77.7622 93.6261 77.7522C93.5461 77.7522 93.426 77.7522 93.306 77.7522C93.1859 77.7622 93.0559 77.7822 92.9358 77.8323C92.8158 77.8823 92.6957 77.9623 92.6257 78.0924C92.6257 78.0924 92.5857 78.2124 92.5657 78.2824C92.5557 78.3525 92.5357 78.4425 92.5257 78.5425C92.5057 78.7426 92.4857 79.0027 92.4857 79.3028C92.4657 79.8931 92.4556 80.6333 92.4657 81.3636C92.4657 82.0939 92.4857 82.8042 92.4957 83.3244C92.4957 83.5845 92.5057 83.8046 92.5057 83.9646C92.5057 84.0447 92.5057 84.1047 92.5057 84.1447C92.5057 84.1647 92.5057 84.1847 92.5057 84.1947V84.2147C92.5057 84.2948 92.5757 84.3548 92.6557 84.3548C92.7358 84.3548 92.7958 84.2848 92.7958 84.2047V84.1847C92.7958 84.1847 92.7958 84.1547 92.7958 84.1347C92.7958 84.0947 92.7958 84.0347 92.7958 83.9546C92.7958 83.8046 92.7958 83.5845 92.7758 83.3144C92.7658 82.7842 92.7558 82.0739 92.7458 81.3536C92.7458 80.6333 92.7458 79.8931 92.7658 79.3028C92.7758 79.0127 92.7958 78.7626 92.8058 78.5625C92.8158 78.4625 92.8258 78.3825 92.8358 78.3225C92.8458 78.2524 92.8558 78.2224 92.8658 78.2124L92.7358 78.1424L92.8558 78.2024C92.8558 78.2024 92.9358 78.1124 93.0159 78.0724C93.0959 78.0423 93.2059 78.0223 93.306 78.0123C93.416 78.0123 93.5161 78.0123 93.5861 78.0123C93.6261 78.0123 93.6561 78.0123 93.6761 78.0123H93.7061C93.7862 78.0223 93.8562 77.9723 93.8662 77.8923C93.8662 77.8123 93.8162 77.7422 93.7461 77.7322L93.7662 77.7622Z" fill="#FAF9F5"/>
<path fill-rule="evenodd" clip-rule="evenodd" d="M168.695 79.703C169.045 78.6126 169.225 77.4921 169.225 76.5218C169.225 75.2713 168.935 73.7307 168.555 72.7103C168.195 71.7499 167.395 70.5795 166.674 69.8092C166.494 69.6191 166.134 69.289 165.734 68.9689C165.334 68.6487 164.874 68.3386 164.483 68.2086C164.403 68.1785 164.323 68.2286 164.303 68.2986C164.273 68.3686 164.323 68.4587 164.393 68.4787C164.724 68.5887 165.154 68.8788 165.554 69.1889C165.954 69.4991 166.294 69.8292 166.464 69.9993C167.164 70.7495 167.945 71.89 168.285 72.8003L168.415 72.7503H168.375L168.275 72.8003C168.655 73.7807 168.935 75.2813 168.935 76.5018C168.935 77.4321 168.755 78.5325 168.415 79.593C167.995 80.9035 167.094 82.334 166.444 83.1343L166.534 83.2043L166.554 83.2244L166.434 83.1343C165.884 83.8246 165.474 84.1747 164.193 84.885C164.123 84.925 164.103 85.005 164.143 85.0751C164.183 85.1451 164.263 85.1651 164.333 85.1351C165.624 84.4148 166.074 84.0447 166.654 83.3144C167.315 82.4941 168.235 81.0335 168.675 79.683L168.695 79.703Z" fill="#FAF9F5"/>
<path fill-rule="evenodd" clip-rule="evenodd" d="M147.307 69.0189C147.037 69.0189 146.797 69.0989 146.597 69.269C146.397 69.4391 146.267 69.6792 146.217 69.9893L146.347 70.0093H146.377L146.217 69.9893C146.217 69.9893 146.207 70.1393 146.197 70.2694C146.197 70.4094 146.187 70.5995 146.177 70.8296C146.157 71.2898 146.147 71.92 146.127 72.6603C146.087 74.1309 146.046 76.0516 146.016 77.9423C145.976 79.8331 145.946 81.7138 145.926 83.1143C145.916 83.8146 145.906 84.3948 145.896 84.805C145.896 85.0051 145.896 85.1651 145.896 85.2752C145.896 85.3252 145.896 85.3752 145.896 85.3952V85.4252H146.036C146.13 85.4386 146.177 85.4452 146.177 85.4452V85.4052C146.177 85.4052 146.177 85.3352 146.177 85.2852C146.177 85.1751 146.177 85.0151 146.177 84.815C146.177 84.4048 146.197 83.8246 146.207 83.1243C146.227 81.7238 146.267 79.8431 146.297 77.9523C146.337 76.0616 146.367 74.1409 146.407 72.6703C146.427 71.93 146.447 71.3098 146.457 70.8496C146.457 70.6195 146.477 70.4294 146.477 70.2894C146.477 70.1493 146.487 70.0693 146.497 70.0393C146.537 69.7792 146.647 69.5991 146.777 69.4891C146.917 69.369 147.097 69.309 147.307 69.309C147.387 69.309 147.447 69.249 147.447 69.169C147.447 69.0889 147.387 69.0289 147.307 69.0289V69.0189Z" fill="#FAF9F5"/>
<path fill-rule="evenodd" clip-rule="evenodd" d="M155.46 70.0093C155.38 70.0093 155.32 70.0693 155.32 70.1493L155.42 83.1744C155.42 83.2544 155.49 83.3144 155.56 83.3144C155.64 83.3144 155.7 83.2544 155.7 83.1744L155.61 70.1493C155.61 70.0693 155.54 70.0093 155.47 70.0093H155.46Z" fill="#FAF9F5"/>
<path fill-rule="evenodd" clip-rule="evenodd" d="M146.026 85.5953C146.107 85.5953 146.167 85.5353 146.177 85.4552H145.896C145.896 85.5253 145.956 85.5953 146.036 85.5953H146.026Z" fill="#FAF9F5"/>
<path fill-rule="evenodd" clip-rule="evenodd" d="M132.721 74.3309C132.641 74.3309 132.581 74.4009 132.581 74.4809H132.871C132.871 74.3909 132.801 74.3309 132.721 74.3309Z" fill="#FAF9F5"/>
<path fill-rule="evenodd" clip-rule="evenodd" d="M133.492 84.1147C133.692 84.1647 133.912 84.1947 134.072 84.2147C134.152 84.2147 134.232 84.2347 134.282 84.2347H134.362C134.442 84.2447 134.512 84.1847 134.512 84.1047C134.512 84.0246 134.462 83.9546 134.382 83.9546H134.302C134.302 83.9546 134.182 83.9346 134.102 83.9246C133.942 83.9046 133.732 83.8746 133.552 83.8246L133.532 83.9146V83.9646L133.552 83.8246C133.442 83.7945 133.372 83.7045 133.312 83.4744C133.251 83.2443 133.231 82.9542 133.181 82.6041L133.061 82.6241L133.191 82.6041C133.171 82.474 133.141 81.9038 133.101 81.1135C133.061 80.3232 133.021 79.3228 132.991 78.3324C132.951 77.3421 132.921 76.3717 132.891 75.6514C132.881 75.2913 132.871 74.9911 132.861 74.7811C132.861 74.681 132.861 74.591 132.861 74.541C132.861 74.511 132.861 74.491 132.861 74.4809V74.4609C132.861 74.4609 132.861 74.4609 132.721 74.4609H132.581V74.491C132.581 74.491 132.581 74.531 132.581 74.551C132.581 74.611 132.581 74.691 132.581 74.7911C132.581 75.0012 132.601 75.3013 132.611 75.6614C132.641 76.3817 132.671 77.3521 132.711 78.3424C132.751 79.3328 132.791 80.3332 132.821 81.1235C132.851 81.9138 132.891 82.494 132.911 82.6441C132.961 82.9642 132.981 83.2944 133.041 83.5344C133.101 83.7845 133.221 84.0246 133.492 84.0847V84.1147Z" fill="#FAF9F5"/>
<path fill-rule="evenodd" clip-rule="evenodd" d="M36.7042 69.9492C36.7242 69.8692 36.6742 69.7991 36.5942 69.7791L36.5341 70.0592C36.6142 70.0793 36.6842 70.0292 36.7042 69.9492Z" fill="#FAF9F5"/>
<path fill-rule="evenodd" clip-rule="evenodd" d="M16.1661 75.7515L11.7945 85.1151C11.7644 85.1851 11.7945 85.2751 11.8645 85.3051C11.9345 85.3352 12.0245 85.3051 12.0546 85.2351L16.4262 75.8715C16.4563 75.8015 16.4262 75.7114 16.3562 75.6814C16.2862 75.6514 16.1962 75.6814 16.1661 75.7515Z" fill="#FAF9F5"/>
<path fill-rule="evenodd" clip-rule="evenodd" d="M5.77228 67.3682C5.70226 67.3982 5.67225 67.4883 5.71226 67.5583L11.3644 79.0527C11.3945 79.1228 11.4845 79.1528 11.5545 79.1228C11.6245 79.0927 11.6546 79.0027 11.6145 78.9327L5.95235 67.4382C5.92234 67.3682 5.83231 67.3382 5.76228 67.3782L5.77228 67.3682Z" fill="#FAF9F5"/>
<path fill-rule="evenodd" clip-rule="evenodd" d="M5.49223 83.8846H5.46222C5.46222 83.8846 5.40219 83.8846 5.36218 83.8846C5.28215 83.8846 5.1721 83.8846 5.06206 83.8846C4.95202 83.8746 4.84198 83.8546 4.76195 83.8146C4.68192 83.7845 4.6519 83.7445 4.6419 83.7045V83.6745C4.6419 83.6745 4.6419 83.6245 4.6419 83.5945C4.6419 83.5244 4.6419 83.4344 4.6519 83.3144C4.67191 83.0843 4.69192 82.7742 4.73193 82.414C4.80196 81.6937 4.912 80.7634 5.01204 79.853C5.12209 78.9427 5.23213 78.0323 5.31216 77.3621C5.35217 77.0219 5.39219 76.7418 5.4122 76.5518L5.44221 76.3217V76.2516H5.45221C5.45221 76.1716 5.40219 76.1016 5.33217 76.0916C5.25214 76.0916 5.18211 76.1416 5.1721 76.2116V76.2917L5.13209 76.5217C5.11208 76.7218 5.07207 77.0019 5.03205 77.3321C4.95202 78.0023 4.84198 78.9127 4.73193 79.823C4.62189 80.7334 4.52185 81.6637 4.45183 82.394C4.41181 82.7542 4.3918 83.0643 4.3718 83.3044C4.3718 83.4244 4.36179 83.5244 4.36179 83.5945C4.36179 83.6645 4.36179 83.7345 4.36179 83.7745C4.40181 83.9346 4.52185 84.0246 4.6419 84.0747C4.76195 84.1247 4.902 84.1547 5.02205 84.1647C5.1521 84.1747 5.27214 84.1747 5.36218 84.1647C5.4122 84.1647 5.44221 84.1647 5.47222 84.1647H5.51224C5.59227 84.1647 5.65229 84.0847 5.64229 84.0046C5.64229 83.9246 5.56226 83.8646 5.48222 83.8746L5.49223 83.8846Z" fill="#FAF9F5"/>
<path fill-rule="evenodd" clip-rule="evenodd" d="M60.1433 75.7515L55.7716 85.1151C55.7416 85.1851 55.7716 85.2751 55.8417 85.3051C55.9117 85.3352 56.0017 85.3051 56.0317 85.2351L60.4034 75.8715C60.4334 75.8015 60.4034 75.7114 60.3334 75.6814C60.2634 75.6514 60.1733 75.6814 60.1433 75.7515Z" fill="#FAF9F5"/>
<path fill-rule="evenodd" clip-rule="evenodd" d="M19.3575 67.5383C19.2775 67.5483 19.2275 67.6183 19.2375 67.6983L19.5176 67.6583C19.5076 67.5783 19.4375 67.5283 19.3575 67.5383Z" fill="#FAF9F5"/>
<path fill-rule="evenodd" clip-rule="evenodd" d="M23.469 83.9146C23.469 83.8346 23.389 83.7846 23.309 83.7846H23.299C23.299 83.7846 23.269 83.7846 23.2489 83.7846C23.2089 83.7846 23.1389 83.7846 23.0589 83.7746C22.8988 83.7545 22.6587 83.6945 22.3886 83.5645L22.3186 83.6945L22.3786 83.5645C22.1585 83.4544 21.9785 83.1843 21.8384 82.5641C21.7484 82.1739 21.1681 78.4525 20.6079 74.8211C20.3278 73.0104 20.0577 71.2197 19.8476 69.8792C19.7476 69.2089 19.6576 68.6587 19.5975 68.2686C19.5675 68.0785 19.5475 67.9184 19.5275 67.8184L19.5075 67.6984V67.6683C19.5075 67.6683 19.5075 67.6583 19.3675 67.6783C19.2741 67.6917 19.2274 67.6984 19.2274 67.6984V67.7384L19.2474 67.8584L19.3174 68.3086C19.3775 68.6987 19.4575 69.249 19.5675 69.9192C19.7676 71.2597 20.0477 73.0504 20.3278 74.8611C20.888 78.4825 21.4683 82.2239 21.5683 82.6241C21.7084 83.2543 21.9084 83.6445 22.2586 83.8146C22.5587 83.9646 22.8188 84.0347 23.0189 84.0547C23.1189 84.0647 23.1889 84.0747 23.2489 84.0747C23.279 84.0747 23.299 84.0747 23.309 84.0747H23.339C23.339 84.0747 23.339 84.0747 23.319 83.9346V83.8046L23.339 84.0747C23.419 84.0747 23.469 83.9946 23.469 83.9146Z" fill="#FAF9F5"/>
<path fill-rule="evenodd" clip-rule="evenodd" d="M116.255 79.8231C116.185 79.7931 116.095 79.8331 116.075 79.9131V79.9431L116.035 80.0332C116.005 80.1032 115.975 80.2132 115.925 80.3433C115.835 80.6034 115.715 80.9535 115.585 81.3136C115.334 82.0439 115.064 82.8042 115.004 82.9843L115.064 83.0043L115.134 83.0343L115.004 82.9843C114.934 83.1744 114.854 83.4045 114.834 83.6045C114.824 83.7046 114.834 83.8046 114.864 83.9047C114.904 84.0047 114.974 84.0847 115.094 84.1247C115.254 84.1748 115.414 84.2048 115.545 84.2148C115.605 84.2148 115.665 84.2148 115.695 84.2248H115.755C115.835 84.2248 115.895 84.1647 115.895 84.0847C115.895 84.0047 115.835 83.9447 115.755 83.9447H115.705C115.705 83.9447 115.625 83.9447 115.565 83.9347C115.454 83.9247 115.304 83.9047 115.184 83.8546L115.154 83.9547V83.9947L115.184 83.8546C115.184 83.8546 115.144 83.8346 115.134 83.8046C115.124 83.7746 115.114 83.7146 115.124 83.6345C115.144 83.4745 115.204 83.2744 115.274 83.0843C115.344 82.9043 115.615 82.134 115.865 81.4137C115.995 81.0535 116.115 80.7034 116.205 80.4433C116.245 80.3133 116.285 80.2032 116.315 80.1332L116.345 80.0432V80.0231H116.355L116.315 80.0031H116.355C116.385 79.9431 116.345 79.8631 116.265 79.8331L116.255 79.8231Z" fill="#FAF9F5"/>
<path fill-rule="evenodd" clip-rule="evenodd" d="M28.6211 76.1917H28.7212C28.6711 74.3609 29.2013 72.5803 29.8816 71.6199L29.8016 71.5599L29.7816 71.5399L29.8816 71.6099C30.3818 70.8996 31.1321 70.4294 31.8824 70.1393C32.6427 69.8392 33.393 69.7292 33.9032 69.7292C34.4134 69.7292 35.0736 69.8092 35.6038 69.8892C35.8739 69.9292 36.104 69.9693 36.2641 69.9993C36.3441 70.0193 36.4141 70.0293 36.4641 70.0393H36.5342L36.5642 69.9092L36.5942 69.7692H36.5242C36.5242 69.7692 36.4141 69.7292 36.3241 69.7192C36.154 69.6891 35.9239 69.6491 35.6538 69.6091C35.1136 69.5291 34.4434 69.439 33.9132 69.439C33.383 69.439 32.5826 69.5591 31.7923 69.8692C31.002 70.1793 30.2017 70.6795 29.6615 71.4498C28.9412 72.4702 28.401 74.3109 28.441 76.1917C28.4811 77.6522 29.0613 79.5229 29.7916 80.5934C30.4018 81.4937 31.2021 82.334 32.4126 82.8742C32.9028 83.0943 33.543 83.3244 34.1733 83.4945C34.8035 83.6645 35.4437 83.7946 35.9339 83.7946C36.014 83.7946 36.074 83.7346 36.074 83.6545C36.074 83.5745 36.014 83.5145 35.9339 83.5145C35.4738 83.5145 34.8735 83.4044 34.2433 83.2244C33.623 83.0543 33.0028 82.8342 32.5226 82.6141L32.4626 82.7342L32.5126 82.6141C31.3622 82.1039 30.6019 81.3036 30.0117 80.4333C29.3114 79.4129 28.7412 77.6022 28.7011 76.1817H28.6011L28.6211 76.1917Z" fill="#FAF9F5"/>
<path fill-rule="evenodd" clip-rule="evenodd" d="M102.83 84.0547C102.82 83.9746 102.75 83.9246 102.67 83.9346L102.71 84.2147C102.79 84.2047 102.84 84.1347 102.83 84.0547Z" fill="#FAF9F5"/>
<path fill-rule="evenodd" clip-rule="evenodd" d="M42.6366 77.8123H42.6066C42.6066 77.8123 42.5665 77.7923 42.5365 77.7923C42.4765 77.7923 42.3965 77.7723 42.3064 77.7723C42.1364 77.7723 41.8863 77.8123 41.7262 78.0024C41.6862 78.0524 41.6562 78.1224 41.6362 78.1924C41.6162 78.2625 41.5962 78.3525 41.5862 78.4525C41.5562 78.6526 41.5361 78.9127 41.5261 79.2028C41.4961 79.7931 41.4961 80.5333 41.5061 81.2636C41.5061 81.9939 41.5361 82.7142 41.5562 83.2444C41.5562 83.5145 41.5762 83.7346 41.5762 83.8846C41.5762 83.9647 41.5762 84.0247 41.5762 84.0647V84.1347C41.5762 84.2148 41.6462 84.2748 41.7262 84.2748C41.8063 84.2748 41.8663 84.2048 41.8663 84.1247V84.0647C41.8663 84.0647 41.8663 83.9647 41.8663 83.8846C41.8663 83.7346 41.8563 83.5045 41.8463 83.2444C41.8263 82.7142 41.8063 81.9939 41.7962 81.2736C41.7962 80.5433 41.7962 79.8031 41.8163 79.2228C41.8263 78.9327 41.8463 78.6826 41.8763 78.4926C41.8863 78.4025 41.9063 78.3225 41.9163 78.2725C41.9163 78.2425 41.9263 78.2225 41.9363 78.2125V78.1924C42.0163 78.1024 42.1464 78.0624 42.2964 78.0624C42.3665 78.0624 42.4265 78.0624 42.4765 78.0824C42.4965 78.0824 42.5165 78.0824 42.5265 78.0924H42.5465C42.6266 78.1124 42.6966 78.0724 42.7166 77.9924C42.7366 77.9123 42.6966 77.8423 42.6166 77.8223L42.6366 77.8123Z" fill="#FAF9F5"/>
<path fill-rule="evenodd" clip-rule="evenodd" d="M49.4692 83.8846H49.4392C49.4392 83.8846 49.3791 83.8846 49.3391 83.8846C49.2591 83.8846 49.1491 83.8846 49.039 83.8846C48.929 83.8746 48.8189 83.8546 48.7489 83.8146C48.6689 83.7745 48.6389 83.7445 48.6289 83.7045V83.6745C48.6289 83.6745 48.6289 83.6245 48.6289 83.5945C48.6289 83.5244 48.6289 83.4344 48.6389 83.3144C48.6589 83.0843 48.6789 82.7741 48.7189 82.414C48.7889 81.6937 48.889 80.7634 48.999 79.853C49.109 78.9427 49.2191 78.0323 49.2991 77.3621C49.3391 77.0219 49.3791 76.7418 49.3992 76.5517L49.4292 76.3217V76.2516H49.4392L49.2991 76.2316C49.2057 76.2183 49.1591 76.2116 49.1591 76.2116V76.2917L49.119 76.5217C49.099 76.7218 49.059 77.0019 49.019 77.332C48.939 78.0023 48.8289 78.9127 48.7189 79.823C48.6088 80.7334 48.5088 81.6637 48.4388 82.394C48.3988 82.7541 48.3788 83.0643 48.3587 83.3044C48.3587 83.4244 48.3487 83.5244 48.3487 83.5945C48.3487 83.6645 48.3487 83.7345 48.3587 83.7745C48.3988 83.9246 48.5188 84.0146 48.6389 84.0747C48.7589 84.1247 48.899 84.1547 49.019 84.1647C49.1491 84.1747 49.2691 84.1747 49.3591 84.1647C49.4092 84.1647 49.4392 84.1647 49.4692 84.1647H49.5092C49.5892 84.1547 49.6492 84.0847 49.6392 84.0046C49.6392 83.9246 49.5592 83.8746 49.4792 83.8746L49.4692 83.8846Z" fill="#FAF9F5"/>
<path fill-rule="evenodd" clip-rule="evenodd" d="M49.3089 76.0916C49.2289 76.0916 49.1589 76.1416 49.1489 76.2116L49.4292 76.2516C49.4292 76.1716 49.3789 76.1016 49.3089 76.0916Z" fill="#FAF9F5"/>
<path fill-rule="evenodd" clip-rule="evenodd" d="M101.309 78.9027V78.8627C101.309 78.7727 101.249 78.7026 101.169 78.7026C101.089 78.7026 101.029 78.7627 101.019 78.8427V78.8927C101.019 78.8927 101.019 78.9727 101.019 79.0428C101.019 79.1728 101.019 79.3529 101.019 79.563C101.019 79.9931 101.019 80.5834 101.039 81.1736C101.059 81.7638 101.089 82.3841 101.149 82.8642C101.179 83.1043 101.219 83.3244 101.259 83.4945C101.279 83.5845 101.309 83.6545 101.339 83.7246C101.369 83.7846 101.409 83.8546 101.459 83.8946C101.729 84.1047 102.039 84.1848 102.279 84.2148C102.4 84.2248 102.51 84.2248 102.58 84.2148C102.62 84.2148 102.65 84.2148 102.67 84.2148L102.71 84.2147L102.69 84.0647L102.67 83.9246H102.65C102.65 83.9246 102.61 83.9246 102.58 83.9246C102.51 83.9246 102.42 83.9246 102.319 83.9246C102.109 83.9046 101.849 83.8346 101.649 83.6645L101.559 83.7746L101.599 83.7246L101.649 83.6645C101.649 83.6645 101.629 83.6445 101.609 83.5945C101.589 83.5545 101.569 83.4945 101.549 83.4145C101.509 83.2644 101.469 83.0643 101.449 82.8242C101.389 82.354 101.359 81.7538 101.339 81.1536C101.319 80.5634 101.319 79.9831 101.319 79.553C101.319 79.3329 101.319 79.1528 101.319 79.0328C101.319 78.9727 101.319 78.9227 101.319 78.8927L101.309 78.9027Z" fill="#FAF9F5"/>
<path fill-rule="evenodd" clip-rule="evenodd" d="M105.861 77.272V77.2921C105.861 77.2921 105.901 77.3321 105.931 77.3621C105.981 77.4221 106.051 77.5021 106.131 77.6122C106.301 77.8223 106.531 78.1024 106.771 78.4125C107.271 79.0327 107.842 79.743 108.132 80.1231C108.682 80.8434 109.352 81.6337 109.942 82.264C110.243 82.5841 110.523 82.8642 110.763 83.0743C110.883 83.1843 110.993 83.2744 111.093 83.3444C111.193 83.4144 111.283 83.4744 111.373 83.5045C111.453 83.5345 111.533 83.4944 111.553 83.4144C111.583 83.3444 111.543 83.2543 111.463 83.2343C111.413 83.2143 111.343 83.1743 111.253 83.1143C111.163 83.0543 111.063 82.9642 110.943 82.8642C110.713 82.6541 110.433 82.384 110.142 82.0739C109.552 81.4437 108.892 80.6633 108.342 79.9531C108.042 79.5629 107.471 78.8527 106.971 78.2324C106.721 77.9223 106.491 77.6422 106.331 77.4321C106.261 77.3421 106.201 77.272 106.161 77.222C106.241 77.172 106.361 77.092 106.491 76.9819C106.771 76.7618 107.151 76.4417 107.521 76.0216C108.272 75.1712 109.032 73.9007 109.032 72.2401C109.032 71.0096 108.732 70.2093 108.462 69.7491C108.462 69.7491 108.462 69.7291 108.462 69.7191C108.462 69.6891 108.442 69.6591 108.412 69.6091C108.372 69.5191 108.292 69.379 108.182 69.2189C107.962 68.8988 107.611 68.4887 107.091 68.1585C107.021 68.1185 106.941 68.1385 106.891 68.1985C106.851 68.2686 106.871 68.3486 106.931 68.3986C107.411 68.7087 107.742 69.0889 107.942 69.379C108.042 69.5291 108.112 69.6491 108.152 69.7291C108.172 69.7691 108.182 69.7992 108.182 69.8092C108.182 69.8092 108.182 69.7691 108.182 69.7491C108.182 69.7391 108.192 69.7091 108.212 69.6891C108.242 69.6591 108.282 69.6391 108.322 69.6391C108.352 69.6391 108.382 69.6491 108.392 69.6591C108.402 69.6591 108.412 69.6691 108.412 69.6791C108.412 69.6791 108.422 69.6891 108.432 69.6991L108.192 69.8492C108.442 70.2593 108.742 71.0296 108.742 72.2401C108.742 73.8107 108.032 75.0112 107.301 75.8315C106.941 76.2416 106.581 76.5518 106.311 76.7518C106.171 76.8519 106.061 76.9319 105.981 76.9819C105.941 77.0119 105.911 77.022 105.891 77.042H105.871V77.062L105.731 77.142L105.831 77.272H105.861Z" fill="#FAF9F5"/>
<path fill-rule="evenodd" clip-rule="evenodd" d="M67.446 83.9146C67.446 83.8346 67.3659 83.7846 67.2859 83.7846H67.2759C67.2759 83.7846 67.2459 83.7846 67.2259 83.7846C67.1859 83.7846 67.1158 83.7846 67.0358 83.7746C66.8757 83.7545 66.6356 83.6945 66.3655 83.5645L66.2955 83.6945L66.3555 83.5645C66.1355 83.4544 65.9554 83.1843 65.8153 82.5641L65.6753 82.5941L65.8053 82.5641C65.7153 82.1739 65.1351 78.4525 64.5749 74.8211C64.2948 73.0104 64.0246 71.2197 63.8146 69.8792C63.7145 69.2089 63.6245 68.6587 63.5645 68.2686L63.4944 67.8184L63.4744 67.6984V67.6683C63.4744 67.6683 63.4744 67.6583 63.3344 67.6783C63.241 67.6917 63.1943 67.6984 63.1943 67.6984V67.7384L63.2143 67.8584C63.2343 67.9585 63.2543 68.1185 63.2844 68.3086C63.3444 68.6987 63.4244 69.249 63.5345 69.9192C63.7345 71.2597 64.0146 73.0504 64.2947 74.8611C64.855 78.4825 65.4352 82.2239 65.5352 82.6241C65.6753 83.2543 65.8754 83.6445 66.2255 83.8146C66.5256 83.9646 66.7957 84.0347 66.9858 84.0547C67.0858 84.0647 67.1559 84.0747 67.2159 84.0747C67.2459 84.0747 67.2659 84.0747 67.2759 84.0747H67.3059C67.3059 84.0747 67.3059 84.0747 67.2859 83.9346V83.8046L67.3059 84.0747C67.3859 84.0747 67.436 83.9946 67.436 83.9146H67.446Z" fill="#FAF9F5"/>
<path fill-rule="evenodd" clip-rule="evenodd" d="M101.279 69.5391C101.199 69.5391 101.139 69.5991 101.139 69.6791V76.0916C101.129 76.1716 101.189 76.2316 101.269 76.2316C101.349 76.2316 101.409 76.1716 101.409 76.0916V69.6791C101.419 69.5991 101.359 69.5391 101.279 69.5391Z" fill="#FAF9F5"/>
<path fill-rule="evenodd" clip-rule="evenodd" d="M92.3656 68.7387L92.1755 72.8303C92.1755 72.9104 92.2355 72.9804 92.3155 72.9804C92.3956 72.9804 92.4656 72.9204 92.4656 72.8403L92.6557 68.7488C92.6557 68.6687 92.5957 68.5987 92.5156 68.5987C92.4356 68.5987 92.3656 68.6587 92.3656 68.7387Z" fill="#FAF9F5"/>
<path fill-rule="evenodd" clip-rule="evenodd" d="M118.336 73.9508L117.055 77.5622C117.025 77.6322 117.065 77.7222 117.145 77.7422C117.215 77.7723 117.305 77.7322 117.325 77.6522L118.606 74.0408C118.636 73.9708 118.596 73.8808 118.516 73.8608C118.446 73.8307 118.356 73.8707 118.336 73.9508Z" fill="#FAF9F5"/>
<path fill-rule="evenodd" clip-rule="evenodd" d="M41.446 68.6687L41.2559 72.7603C41.2559 72.8403 41.3159 72.9103 41.396 72.9103C41.476 72.9103 41.546 72.8503 41.546 72.7703L41.7361 68.6787C41.7361 68.5987 41.6761 68.5287 41.5961 68.5287C41.516 68.5287 41.446 68.5887 41.446 68.6687Z" fill="#FAF9F5"/>
<path fill-rule="evenodd" clip-rule="evenodd" d="M63.3344 67.5383C63.2544 67.5483 63.2044 67.6183 63.2144 67.6983L63.4945 67.6583C63.4845 67.5783 63.4145 67.5283 63.3344 67.5383Z" fill="#FAF9F5"/>
<path fill-rule="evenodd" clip-rule="evenodd" d="M49.7592 67.3682C49.6892 67.3982 49.6592 67.4883 49.6892 67.5583L55.3414 79.0527C55.3714 79.1228 55.4614 79.1528 55.5315 79.1228C55.6015 79.0928 55.6315 79.0027 55.6015 78.9327L49.9493 67.4382C49.9193 67.3682 49.8293 67.3382 49.7592 67.3682Z" fill="#FAF9F5"/>
<path fill-rule="evenodd" clip-rule="evenodd" d="M56.1916 92.608H55.1612V97.87H60.0031V96.9596H56.1916V92.608Z" fill="#FAF9F5"/>
<path fill-rule="evenodd" clip-rule="evenodd" d="M63.9748 92.608L61.3838 97.87H62.4742L63.0244 96.6595H66.0656L66.6158 97.87H67.7063L65.1453 92.608H63.9748ZM63.4546 95.7792L64.555 93.4383L65.6555 95.7792H63.4546Z" fill="#FAF9F5"/>
<path fill-rule="evenodd" clip-rule="evenodd" d="M72.828 94.7688L71.5875 94.5887C70.5371 94.4587 70.4071 94.2186 70.4071 93.9985C70.4071 93.5083 71.1074 93.3382 71.8076 93.3382C73.0581 93.3382 73.4883 93.7384 73.6483 94.2186L74.6187 93.8985C74.4887 93.5383 74.0985 92.4879 71.8276 92.4879C71.4275 92.4879 69.3767 92.4879 69.3767 94.0685C69.3767 94.8688 70.057 95.399 71.2774 95.5591L72.5379 95.7292C73.2882 95.8292 73.6784 96.0493 73.6784 96.3894C73.6784 96.8396 72.9881 97.1197 72.1478 97.1197C70.7572 97.1197 70.3671 96.5595 70.177 96.1794L69.1866 96.4895C69.3067 96.8896 69.8569 98.0001 72.1178 98.0001C73.5183 98.0001 74.7088 97.5399 74.7088 96.2894C74.7088 95.4091 74.0085 94.9489 72.838 94.7688H72.828Z" fill="#FAF9F5"/>
<path fill-rule="evenodd" clip-rule="evenodd" d="M82.8119 96.8096L80.8312 92.608H79.7307L82.2717 97.87H83.3421L85.9231 92.608H84.8227L82.8119 96.8096Z" fill="#FAF9F5"/>
<path fill-rule="evenodd" clip-rule="evenodd" d="M88.8543 95.5991H92.0356V94.7088H88.8543V93.4883H92.5458V92.608H87.824V97.87H92.6258V96.9897H88.8543V95.5991Z" fill="#FAF9F5"/>
<path fill-rule="evenodd" clip-rule="evenodd" d="M97.2275 95.9893H99.0682C98.8181 96.7295 98.2579 97.0797 97.2475 97.0797C96.1371 97.0797 95.2968 96.4394 95.2968 95.1989C95.2968 94.4687 95.6769 93.3582 97.3376 93.3582C98.548 93.3582 98.8281 93.9785 98.9482 94.2486H99.9986C99.7485 92.9181 98.418 92.4679 97.2175 92.4679C95.1167 92.4679 94.2664 93.8384 94.2664 95.239C94.2664 97.3298 95.897 97.99 97.2375 97.99C98.2579 97.99 98.8081 97.6299 99.2083 97.3798L99.4084 97.92H100.029V95.1589H97.2175V95.9793L97.2275 95.9893Z" fill="#FAF9F5"/>
<path fill-rule="evenodd" clip-rule="evenodd" d="M104.24 92.608L101.639 97.87H102.73L103.29 96.6595H106.321L106.871 97.87H107.952L105.401 92.608H104.23H104.24ZM103.72 95.7792L104.821 93.4383L105.911 95.7792H103.71H103.72Z" fill="#FAF9F5"/>
<path fill-rule="evenodd" clip-rule="evenodd" d="M113.074 94.7688L111.833 94.5887C110.783 94.4587 110.653 94.2186 110.653 93.9985C110.653 93.5083 111.353 93.3382 112.053 93.3382C113.304 93.3382 113.734 93.7384 113.904 94.2186L114.874 93.8985C114.744 93.5383 114.354 92.4879 112.093 92.4879C111.683 92.4879 109.642 92.4879 109.642 94.0685C109.642 94.8688 110.322 95.399 111.533 95.5591L112.793 95.7292C113.544 95.8292 113.934 96.0493 113.934 96.3894C113.934 96.8396 113.244 97.1197 112.403 97.1197C111.013 97.1197 110.623 96.5595 110.433 96.1794L109.442 96.4895C109.562 96.8896 110.112 98.0001 112.373 98.0001C113.784 98.0001 114.964 97.5399 114.964 96.2894C114.964 95.4091 114.264 94.9489 113.094 94.7688H113.074Z" fill="#FAF9F5"/>
</svg>
