<svg width="200" height="55" viewBox="0 0 200 55" fill="none" xmlns="http://www.w3.org/2000/svg">
<path d="M11.5031 25.0995C11.5031 29.8054 11.5031 35.9491 11.7646 39.4786C12.5489 39.6093 13.2025 39.6093 14.1175 39.6093C18.9541 39.3478 21.4378 39.2171 24.8365 37.7792C24.9672 36.472 25.2286 34.7727 25.4901 34.1191C25.4901 33.9884 25.8822 33.7269 26.1437 33.7269C26.5358 33.7269 27.0587 34.1191 27.0587 34.5112C27.0587 35.0341 26.6665 36.9949 26.6665 38.6942C26.6665 40.2629 27.0587 42.6158 27.0587 43.4001C27.0587 43.7923 26.6665 44.1844 26.1437 44.1844C25.8822 44.1844 25.4901 43.923 25.3593 43.6616C25.0979 43.1387 24.9672 42.3544 24.9672 42.0929C21.4378 41.5701 21.9607 41.4393 13.9868 41.4393C10.4574 41.4393 7.58157 41.4393 5.22862 41.5701C3.13712 41.5701 1.56849 41.7008 1.30706 41.7008C1.04562 41.7008 0.78418 41.3086 0.78418 40.9165C0.78418 40.655 1.04562 40.2629 1.17634 40.2629C2.35281 39.8707 5.09791 39.6093 5.88222 39.6093C6.14366 35.9491 6.14366 29.4132 6.14366 24.5766C6.14366 19.74 6.14366 13.0733 5.88222 9.54391C5.22862 9.67463 2.35281 9.41319 1.17634 9.02104C1.04562 9.02104 0.78418 8.62888 0.78418 8.36744C0.78418 7.97529 1.04562 7.58313 1.30706 7.58313C1.56849 7.58313 3.13712 7.58313 5.22862 7.71385C7.32013 7.71385 10.3267 7.84457 13.9868 7.84457C21.3071 7.84457 20.9149 7.58313 24.575 7.45241C24.7057 6.6681 24.8365 5.75306 24.9672 5.36091C24.9672 5.23019 25.3593 4.96875 25.6208 4.96875C26.0129 4.96875 26.4051 5.36091 26.4051 5.62234C26.4051 6.40666 26.0129 8.62888 26.0129 10.0668C26.0129 11.6354 26.4051 13.7269 26.4051 14.7727C26.4051 15.1648 26.0129 15.557 25.4901 15.557C25.2286 15.557 24.8365 15.2955 24.7057 14.9034C24.3136 13.8576 24.3136 12.1583 24.3136 11.374C21.3071 9.80535 18.8234 9.80535 13.9868 9.54391C13.2025 9.54391 12.2874 9.54391 11.6339 9.67463C11.3724 13.0733 11.3724 18.825 11.3724 23.923H13.9868C17.1241 23.923 20.392 23.5308 23.0064 22.3544C23.1371 21.4393 23.3986 20.3936 23.66 19.3478C23.7907 19.0864 24.1829 18.9557 24.4443 18.9557C24.8365 18.9557 25.2286 19.3478 25.2286 19.6093C25.2286 20.2629 24.8365 21.8315 24.8365 24.4459C24.8365 27.3217 25.2286 29.1518 25.2286 30.0668C25.2286 30.4589 24.8365 30.7204 24.4443 30.7204C24.1829 30.7204 23.7907 30.5897 23.66 30.3282C23.2678 29.4132 23.0064 27.3217 22.8757 26.4067C20.392 25.6223 17.2548 25.3609 13.9868 25.3609C14.1175 25.0995 11.5031 25.0995 11.5031 25.0995Z" fill="#FAF9F5"/>
<path d="M44.0528 30.1946C45.36 28.7567 46.6672 27.188 47.8437 25.6194C47.4515 25.6194 45.8829 25.358 45.2293 24.9658C45.0986 24.9658 44.8371 24.7044 44.8371 24.5737C44.8371 24.1815 45.0986 24.0508 45.36 24.0508C45.6214 24.0508 47.3208 24.4429 49.543 24.4429C51.5038 24.4429 52.811 24.0508 53.0724 24.0508C53.4646 24.0508 53.5953 24.3122 53.5953 24.5737C53.5953 24.8351 53.3339 24.9658 53.2031 24.9658C52.6803 25.358 51.3731 25.4887 51.1116 25.6194C48.7587 27.3188 46.1443 29.541 44.7064 31.1096C47.1901 34.1161 63.2685 53.3318 61.6999 53.3318C60.262 53.3318 42.2228 34.7697 41.6999 33.9854C39.8698 36.0769 38.4319 38.4299 37.6476 39.8678C38.0397 39.8678 40.0005 40.1292 40.6541 40.5214C40.7848 40.5214 41.0463 40.7828 41.0463 40.9135C41.0463 41.3057 40.7848 41.4364 40.5234 41.4364C40.1312 41.4364 38.0397 41.0442 35.2946 41.0442C33.0724 41.0442 31.3731 41.4364 31.2424 41.4364C30.8502 41.4364 30.7195 41.175 30.7195 40.9135C30.7195 40.6521 30.9809 40.5214 31.1116 40.5214C31.7652 40.1292 33.3339 39.9985 33.8567 39.8678C35.8175 38.5606 38.9548 35.1619 41.177 33.2011C39.4777 31.1096 35.5561 27.188 33.8567 25.6194C33.4646 25.6194 31.896 25.358 31.2424 24.9658C31.1116 24.9658 30.8502 24.7044 30.8502 24.5737C30.8502 24.1815 31.1116 24.0508 31.3731 24.0508C31.6345 24.0508 34.2489 24.4429 37.7783 24.4429C40.7848 24.4429 43.1378 24.0508 43.3992 24.0508C43.7914 24.0508 43.9221 24.3122 43.9221 24.5737C43.9221 24.8351 43.6607 24.9658 43.5299 24.9658C42.8763 25.358 41.3077 25.4887 40.9156 25.6194L44.0528 30.1946Z" fill="#FAF9F5"/>
<path d="M64.4442 41.9625C58.8233 41.9625 55.4246 37.9102 55.4246 33.335C55.4246 27.5834 60.3919 23.6618 66.7971 23.6618C69.4115 23.6618 71.3723 24.3154 72.418 24.7076C72.8102 23.4004 72.9409 21.5703 73.5945 21.5703C73.9867 21.5703 73.9866 21.8318 73.9866 22.2239C73.9866 23.1389 73.5945 25.2304 73.3331 27.0605C73.2023 28.4984 73.0716 30.8514 73.0716 31.3742C73.0716 31.7664 72.9409 32.1585 72.6795 32.1585C72.2873 32.1585 72.1566 31.505 71.8951 30.7206C71.503 28.4984 69.8036 24.969 66.1435 24.969C62.8755 24.969 60.784 27.9755 60.784 31.8971C60.784 36.603 63.6599 39.3481 67.1893 39.3481C71.2416 39.3481 72.2873 36.2108 73.3331 36.2108C73.5945 36.2108 73.7252 36.3416 73.7252 36.603C73.5945 37.7795 70.7187 41.9625 64.4442 41.9625Z" fill="#FAF9F5"/>
<path fill-rule="evenodd" clip-rule="evenodd" d="M85.882 26.1456C88.7578 26.1456 89.1499 27.845 89.1499 30.0672H88.8885V32.1587C88.6464 32.0927 88.3931 32.0192 88.1293 31.9427C86.8268 31.565 85.2683 31.1129 83.529 31.1129C80.5225 31.1129 77.1238 32.8123 77.1238 36.6031C77.1238 39.6097 79.346 41.7012 82.3525 41.7012C84.615 41.7012 86.8775 40.0369 88.2928 38.9959C88.5129 38.8339 88.7125 38.6871 88.8885 38.5639V39.6097C88.8885 40.6554 89.1499 41.7012 90.5878 41.7012C94.3787 41.7012 98.3002 38.9561 98.3002 37.6489C98.3002 37.5182 98.3003 37.2567 97.9081 37.2567C97.7774 37.2567 97.5305 37.4601 97.2012 37.7312C96.5428 38.2734 95.5552 39.0868 94.5094 39.0868C93.9865 39.0868 93.8558 38.6946 93.8558 38.1718C93.8558 37.6051 93.9167 36.612 93.9905 35.4087C94.104 33.5586 94.248 31.2114 94.248 29.1522C94.248 25.3613 92.5486 23.5312 87.9734 23.5312C83.9212 23.5312 78.6924 26.0149 78.6924 27.1914C78.6924 27.5835 78.8231 27.7143 79.2153 27.7143C79.4576 27.7143 79.8498 27.5645 80.3918 27.3575C80.7267 27.2295 81.1189 27.0797 81.5682 26.9299C82.7447 26.5378 84.1826 26.1456 85.882 26.1456ZM88.0389 33.2158C88.3849 33.3418 88.7491 33.4744 89.1501 33.5947V37.2549C87.9736 38.1699 86.405 39.2156 84.9671 39.2156C83.6599 39.2156 82.7449 38.1699 82.7449 36.2091C82.7449 33.8562 83.7906 32.6797 85.7514 32.6797C86.567 32.6797 87.2569 32.931 88.0389 33.2158Z" fill="#FAF9F5"/>
<path d="M112.026 41.6993C111.634 41.6993 109.019 41.3072 105.621 41.3072C102.222 41.3072 99.7384 41.6993 99.3462 41.6993C98.9541 41.6993 98.8233 41.4379 98.8233 41.1765C98.8233 40.915 99.0848 40.7843 99.2155 40.7843C100.131 40.3922 102.222 40.2614 103.006 40.1307C103.268 36.2091 103.268 27.9739 103.268 21.9608C103.268 17.1242 103.268 9.41176 103.268 5.62091C103.268 3.92157 103.268 3.00654 102.222 3.00654C101.307 3.00654 99.8691 3.39869 99.2155 3.39869C98.8233 3.39869 98.6926 3.26797 98.6926 2.87582C98.6926 2.61438 98.9541 2.48366 99.0848 2.48366C100.392 2.0915 102.091 1.69935 103.66 1.30719C105.751 0.784314 107.712 0 108.104 0C108.497 0 108.758 0.653595 108.758 1.43791C108.758 7.84314 108.366 16.9935 108.366 21.8301C108.366 27.7124 108.366 36.0784 108.497 40C108.889 40 111.503 40.2614 112.418 40.6536C112.549 40.6536 112.81 40.915 112.81 41.0458C112.418 41.4379 112.287 41.6993 112.026 41.6993Z" fill="#FAF9F5"/>
<path fill-rule="evenodd" clip-rule="evenodd" d="M116.731 14.1159C116.731 15.8153 118.038 17.1224 119.737 17.1224C121.306 17.1224 122.744 15.8153 122.744 14.1159C122.744 12.4166 121.437 11.1094 119.737 11.1094C118.038 11.1094 116.731 12.4166 116.731 14.1159ZM112.809 25.7499C112.809 26.1421 112.94 26.2728 113.332 26.2728C113.696 26.2728 114.398 26.2446 115.15 26.2144C116.019 26.1796 116.955 26.1421 117.515 26.1421C117.777 30.5865 117.777 36.4689 117.515 39.9983C117.3 40.0341 116.987 40.0699 116.627 40.1111C115.673 40.2203 114.389 40.3672 113.724 40.6519C113.594 40.6519 113.332 40.7826 113.332 41.044C113.332 41.3055 113.463 41.5669 113.855 41.5669C113.955 41.5669 114.188 41.5417 114.538 41.504C115.566 41.3932 117.593 41.1747 120.13 41.1747C122.677 41.1747 124.907 41.413 125.89 41.5181C126.168 41.5478 126.346 41.5669 126.404 41.5669C126.666 41.5669 126.927 41.4362 126.927 41.044C126.927 40.9133 126.666 40.6519 126.535 40.6519C125.751 40.3904 123.267 40.129 122.875 40.129C122.744 38.5604 122.744 35.4231 122.744 33.2009C122.744 32.0551 122.779 30.2488 122.812 28.499C122.844 26.8555 122.875 25.2617 122.875 24.312C122.875 23.6584 122.744 23.5277 122.352 23.5277C122.202 23.5277 121.881 23.6228 121.411 23.7623C120.648 23.9884 119.493 24.3309 118.038 24.5734C117.139 24.7232 116.393 24.8349 115.756 24.9302C114.725 25.0845 113.979 25.1962 113.332 25.3577C112.809 25.3577 112.809 25.4885 112.809 25.7499Z" fill="#FAF9F5"/>
<path fill-rule="evenodd" clip-rule="evenodd" d="M133.332 41.3054C135.032 41.3054 136.6 41.5668 137.254 41.6975L136.992 39.7367H137.123C137.777 40.7825 139.345 42.2204 142.483 42.2204C147.842 42.2204 151.372 38.5603 151.372 32.155C151.372 26.5341 148.365 23.9198 144.705 23.9198C141.899 23.9198 139.549 25.3996 137.548 26.6597C137.404 26.7499 137.263 26.839 137.123 26.9263C137.123 24.7988 137.199 21.1539 137.284 17.0706C137.392 11.8708 137.515 5.96004 137.515 1.56681C137.515 0.782501 137.254 0.128906 136.862 0.128906C136.677 0.128906 136.143 0.303476 135.41 0.542804C134.59 0.810763 133.522 1.1599 132.417 1.4361C132.025 1.53413 131.625 1.63217 131.224 1.73021C130.023 2.02433 128.822 2.31845 127.842 2.61257C127.711 2.61257 127.45 2.74329 127.45 3.00472C127.45 3.39688 127.581 3.5276 127.973 3.5276C128.272 3.5276 128.736 3.44532 129.239 3.35615C129.834 3.25063 130.483 3.13544 130.979 3.13544C132.156 3.13544 132.156 4.05047 132.156 5.74982V21.8283C132.156 27.7106 132.156 36.2073 132.025 40.1289C131.81 40.1647 131.497 40.2006 131.137 40.2418C130.183 40.3509 128.898 40.4978 128.234 40.7825C128.104 40.7825 127.842 40.9132 127.842 41.1747C127.842 41.4361 128.104 41.6975 128.365 41.6975C128.428 41.6975 128.596 41.6749 128.852 41.6405C129.662 41.5317 131.346 41.3054 133.332 41.3054ZM141.437 40.5211C137.777 40.5211 137.254 37.6452 137.254 33.2008V27.8413C137.375 27.7562 137.498 27.6688 137.622 27.5804C138.834 26.7176 140.193 25.7498 142.09 25.7498C145.489 25.7498 146.012 29.2792 146.012 32.6779C146.012 35.9459 145.358 40.5211 141.437 40.5211Z" fill="#FAF9F5"/>
<path d="M171.111 33.0719C171.111 30.5882 171.111 27.9738 170.98 26.1438C169.934 26.1438 167.712 26.1438 167.059 26.1438C166.667 26.1438 166.536 26.0131 166.536 25.6209C166.536 25.3595 166.536 25.2287 167.059 25.2287C168.104 24.9673 169.412 24.8366 171.765 24.4444C174.117 24.0523 175.686 23.3987 176.078 23.3987C176.47 23.3987 176.601 23.5294 176.601 24.183C176.47 26.2745 176.47 30.5882 176.47 33.0719C176.47 35.2941 176.47 38.4314 176.601 40C176.993 40 179.346 40.2614 180.131 40.6536C180.261 40.6536 180.523 40.915 180.523 41.0457C180.523 41.4379 180.261 41.5686 180 41.5686C179.738 41.5686 177.385 41.1765 173.987 41.1765C172.68 41.1765 171.895 41.4379 171.242 41.5686C171.372 40.2614 171.372 39.085 171.372 38.5621C170.196 39.3464 166.536 41.9608 162.353 41.9608C158.562 41.9608 157.647 39.8693 157.647 36.2091V33.3333C157.647 31.2418 157.647 27.9738 157.516 26.1438C156.601 26.1438 154.771 26.1438 154.248 26.1438C153.856 26.1438 153.725 26.0131 153.725 25.6209C153.725 25.3595 153.725 25.2287 154.248 25.2287C155.163 24.9673 156.209 24.8366 158.17 24.4444C160.653 24.0523 162.091 23.3987 162.484 23.3987C162.876 23.3987 163.006 23.5294 163.006 24.183C162.745 26.2745 162.745 31.1111 162.745 33.2026C162.745 37.5163 162.745 39.4771 165.751 39.4771C168.497 39.4771 170.457 37.9085 171.372 37.3856V33.0719H171.111Z" fill="#FAF9F5"/>
<path d="M195.686 41.7012C195.294 41.7012 192.287 41.309 187.974 41.309C184.575 41.309 182.091 41.7012 181.699 41.7012C181.307 41.7012 181.176 41.4397 181.176 41.1783C181.176 40.9169 181.438 40.7862 181.568 40.7862C182.483 40.394 184.575 40.2633 185.359 40.1326C185.49 38.6946 185.49 35.4267 185.49 33.2045C185.49 31.1129 185.49 28.1064 185.359 26.2763C184.313 26.2763 182.091 26.2763 181.438 26.2763C181.046 26.2763 180.915 26.1456 180.915 25.7535C180.915 25.492 180.915 25.3613 181.438 25.3613C182.483 25.0999 183.791 24.9692 186.144 24.577C188.366 24.1848 189.804 23.5312 190.065 23.5312C190.457 23.5312 190.588 23.662 190.588 24.3156C190.588 25.492 190.588 28.2371 190.588 29.9365H190.719C191.634 27.845 193.333 23.5312 196.601 23.5312C198.431 23.5312 199.608 24.577 199.608 26.2763C199.608 27.9757 198.3 29.0214 196.732 29.0214C194.64 29.0214 194.51 27.0607 193.856 27.0607C193.202 27.0607 192.157 28.4986 191.764 29.4136C191.111 30.7208 190.849 33.2045 190.849 35.4267C190.849 36.8646 190.849 38.4332 190.98 40.1326C191.503 40.1326 195.032 40.394 196.078 40.7862C196.209 40.7862 196.47 41.0476 196.47 41.1783C196.078 41.4397 195.947 41.7012 195.686 41.7012Z" fill="#FAF9F5"/>
<path d="M68.4968 47.3203H69.5426V49.5425H72.2877V47.3203H73.3334V53.0719H72.2877V50.4576H69.5426V53.0719H68.4968V47.3203Z" fill="#FAF9F5"/>
<path fill-rule="evenodd" clip-rule="evenodd" d="M81.1764 50.1979C81.1764 48.3679 79.9999 47.1914 78.1699 47.1914C76.3398 47.1914 75.1633 48.3679 75.1633 50.1979C75.1633 51.8973 76.3398 53.2045 78.1699 53.2045C79.8692 53.2045 81.1764 52.028 81.1764 50.1979ZM80.2614 50.1979C80.2614 51.3744 79.4771 52.2894 78.1699 52.2894C76.9934 52.2894 76.2091 51.3744 76.0784 50.1979C76.0784 49.0215 76.8627 48.1064 78.1699 48.1064C79.4771 48.1064 80.2614 49.0215 80.2614 50.1979Z" fill="#FAF9F5"/>
<path d="M84.1824 48.2353H82.3523V47.3203H87.0582V48.2353H85.2281V53.0719H84.1824V48.2353Z" fill="#FAF9F5"/>
<path d="M88.6277 47.3203H92.5493V48.2353H89.6734V49.6733H92.4185V50.5883H89.6734V52.1569H92.68V53.0719H88.7584V47.3203H88.6277Z" fill="#FAF9F5"/>
<path d="M94.3796 47.3203H95.4254V52.1569H97.909V53.0719H94.3796V47.3203Z" fill="#FAF9F5"/>
<path d="M101.439 48.7617C102.223 48.7617 102.877 49.4153 102.877 50.1996C102.877 50.9839 102.223 51.6375 101.439 51.6375C100.654 51.6375 100.001 50.9839 100.001 50.1996C100.001 49.4153 100.654 48.7617 101.439 48.7617Z" fill="#FAF9F5"/>
<path d="M109.412 48.6293C109.02 48.2372 108.627 48.1064 108.105 48.1064C106.797 48.1064 106.013 49.0215 106.013 50.1979C106.013 51.5051 106.797 52.2894 108.105 52.2894C108.497 52.2894 109.02 52.028 109.412 51.6358L110.327 52.1587C109.804 52.8123 109.02 53.2045 108.235 53.2045C106.405 53.2045 105.229 51.8973 105.229 50.1979C105.229 48.3679 106.536 47.1914 108.235 47.1914C109.02 47.1914 109.673 47.4528 110.327 48.1064L109.412 48.6293Z" fill="#FAF9F5"/>
<path fill-rule="evenodd" clip-rule="evenodd" d="M114.64 47.3203H113.725L111.241 53.0719H112.417L112.94 51.7648H115.424L115.947 53.0719H117.123L114.64 47.3203ZM114.117 48.6289L115.032 50.9818H113.202L114.117 48.6289Z" fill="#FAF9F5"/>
<path d="M121.439 48.6275C121.177 48.2353 120.916 48.2353 120.393 48.2353C120.001 48.2353 119.478 48.4968 119.478 49.0197C119.478 50.1961 122.223 49.4118 122.223 51.634C122.223 52.9412 121.177 53.4641 120.131 53.4641C119.478 53.4641 118.694 53.2027 118.171 52.6798L118.955 51.8955C119.216 52.2876 119.609 52.4184 120.131 52.4184C120.524 52.4184 121.177 52.1569 121.177 51.634C121.177 50.3268 118.432 51.1112 118.432 49.0197C118.432 47.7125 119.478 47.3203 120.524 47.3203C121.046 47.3203 121.831 47.5818 122.223 47.8432L121.439 48.6275Z" fill="#FAF9F5"/>
<path d="M124.182 47.3203H125.228V53.0719H124.182V47.3203Z" fill="#FAF9F5"/>
<path d="M127.19 47.3203H128.497L131.373 51.634V47.3203H132.419V53.0719H131.112L128.236 48.6275V53.0719H127.19V47.3203Z" fill="#FAF9F5"/>
<path fill-rule="evenodd" clip-rule="evenodd" d="M140.523 50.1979C140.523 48.3679 139.346 47.1914 137.516 47.1914C135.686 47.1914 134.379 48.3679 134.51 50.1979C134.51 51.8973 135.817 53.2045 137.516 53.2045C139.216 53.2045 140.523 52.028 140.523 50.1979ZM139.608 50.1979C139.608 51.3744 138.823 52.2894 137.516 52.2894C136.209 52.2894 135.425 51.3744 135.425 50.1979C135.425 49.0215 136.209 48.1064 137.516 48.1064C138.823 48.1064 139.608 49.0215 139.608 50.1979Z" fill="#FAF9F5"/>
<path d="M144.314 48.7617C145.099 48.7617 145.752 49.4153 145.752 50.1996C145.752 50.9839 145.099 51.6375 144.314 51.6375C143.53 51.6375 142.876 50.9839 142.876 50.1996C142.746 49.4153 143.53 48.7617 144.314 48.7617Z" fill="#FAF9F5"/>
<path d="M148.235 47.3203H149.281V52.1569H151.765V53.0719H148.235V47.3203Z" fill="#FAF9F5"/>
<path fill-rule="evenodd" clip-rule="evenodd" d="M156.079 47.3203H155.164L152.68 53.0719H153.857L154.38 51.7648H156.863L157.386 53.0719H158.563L156.079 47.3203ZM155.556 48.6289L156.471 50.9818H154.641L155.556 48.6289Z" fill="#FAF9F5"/>
<path d="M162.876 48.6275C162.615 48.2353 162.353 48.2353 161.83 48.2353C161.308 48.2353 160.915 48.4968 160.915 49.0197C160.915 50.1961 163.66 49.4118 163.66 51.634C163.66 52.9412 162.615 53.4641 161.569 53.4641C160.915 53.4641 160.131 53.2027 159.608 52.6798L160.392 51.8955C160.654 52.2876 161.046 52.4184 161.569 52.4184C162.092 52.4184 162.615 52.1569 162.615 51.634C162.615 50.3268 159.87 51.1112 159.87 49.0197C159.87 47.7125 160.915 47.3203 161.961 47.3203C162.484 47.3203 163.268 47.5818 163.66 47.8432L162.876 48.6275Z" fill="#FAF9F5"/>
<path d="M168.235 47.3203H169.542L171.111 51.7648L172.68 47.3203H173.856L171.503 53.0719H170.588L168.235 47.3203Z" fill="#FAF9F5"/>
<path d="M175.163 47.3203H179.084V48.2353H176.209V49.6733H178.954V50.5883H176.209V52.1569H179.215V53.0719H175.294V47.3203H175.163Z" fill="#FAF9F5"/>
<path d="M186.144 52.6816C185.49 53.0738 184.706 53.2045 183.791 53.2045C181.961 53.2045 180.784 51.8973 180.784 50.1979C180.784 48.3679 182.092 47.1914 183.791 47.1914C184.706 47.1914 185.49 47.4528 186.013 47.845L185.229 48.6293C184.837 48.2372 184.314 48.1064 183.791 48.1064C182.484 48.1064 181.699 49.0215 181.699 50.1979C181.699 51.5051 182.484 52.2894 183.791 52.2894C184.314 52.2894 184.837 52.1587 185.098 51.8973V50.5901H183.922V49.6751H186.144V52.6816Z" fill="#FAF9F5"/>
<path fill-rule="evenodd" clip-rule="evenodd" d="M190.981 47.3203H190.066L187.583 53.0719H188.759L189.282 51.7648H191.766L192.289 53.0719H193.465L190.981 47.3203ZM190.459 48.6289L191.374 50.9818H189.544L190.459 48.6289Z" fill="#FAF9F5"/>
<path d="M197.778 48.6275C197.517 48.2353 197.256 48.2353 196.733 48.2353C196.21 48.2353 195.818 48.4968 195.818 49.0197C195.818 50.1961 198.563 49.4118 198.563 51.634C198.563 52.9412 197.517 53.4641 196.471 53.4641C195.818 53.4641 195.033 53.2027 194.51 52.6798L195.295 51.8955C195.556 52.2876 195.948 52.4184 196.471 52.4184C196.994 52.4184 197.517 52.1569 197.517 51.634C197.517 50.3268 194.772 51.1112 194.772 49.0197C194.772 47.7125 195.818 47.3203 196.863 47.3203C197.386 47.3203 198.171 47.5818 198.563 47.8432L197.778 48.6275Z" fill="#FAF9F5"/>
</svg>
