<svg width="198" height="82" viewBox="0 0 198 82" fill="none" xmlns="http://www.w3.org/2000/svg">
<path d="M10.76 70.1399L6.52002 81.0699H8.73001L9.57001 78.7799H13.63L14.49 81.0699H16.78L12.6 70.1399H10.76ZM10.31 76.7499L11.63 73.2299L12.92 76.7499H10.31Z" fill="#FAF9F5"/>
<path d="M48.98 75.2599V77.0899H53.27C52.75 78.3399 51.56 79.0899 50.26 79.0899C48.34 79.0899 46.85 77.5699 46.85 75.5999C46.85 73.6299 48.32 72.1299 50.2 72.1299C51.26 72.1299 52.12 72.5299 52.75 73.3099H55.35C54.41 71.0999 52.66 69.9299 50.32 69.9299C48.69 69.9299 47.39 70.4499 46.31 71.5099C45.17 72.6299 44.57 74.02 44.57 75.5399C44.57 77.0599 45.08 78.3799 46 79.4099C47.12 80.6599 48.53 81.2899 50.18 81.2899C52.42 81.2899 54.27 80.1399 55.3 78.0799C55.65 77.3699 55.82 76.5699 55.82 75.6399C55.82 75.5199 55.8 75.3899 55.8 75.2699H48.98V75.2599Z" fill="#FAF9F5"/>
<path d="M18.5699 54.5899L6.01989 35.2H0.389892V65.5599H6.22989V45.58L18.8699 65.5599H24.3799V35.2H18.5699V54.5899Z" fill="#FAF9F5"/>
<path d="M37.6699 81.0599H43.5699V79.1399H39.7899V76.4399H43.5699V74.5499H39.7899V72.0599H43.5699V70.1399H37.6699V81.0599Z" fill="#FAF9F5"/>
<path d="M32.0899 77.4199L29.7099 70.1399H27.4199L31.3399 81.0599H32.8599L36.7699 70.1399H34.4899L32.0899 77.4199Z" fill="#FAF9F5"/>
<path d="M21.3699 74.5299L20.6999 74.2299C19.9199 73.8799 19.3299 73.5599 19.3299 72.9799C19.3299 72.2899 19.8999 71.7699 20.6499 71.7699C21.2999 71.7699 21.6999 72.0299 22.0799 72.6899L22.2699 73.0199L22.5899 72.8099L23.4899 72.2299L23.7699 72.0499L23.6099 71.7499C23.0099 70.6299 21.9299 69.9899 20.6699 69.9899C18.8499 69.9899 17.4699 71.26 17.4699 72.9299C17.4699 74.5999 18.6599 75.2999 19.8899 75.8499L20.5099 76.1199L20.5499 76.1399C21.5499 76.5899 22.1599 76.9199 22.1599 77.7999C22.1599 78.6799 21.3899 79.4099 20.4399 79.4099C19.5899 79.4099 18.8999 78.7599 18.7699 77.8399L18.7099 77.4299L18.3099 77.5399L17.2099 77.8499L16.8799 77.9399L16.9499 78.2699C17.3099 80.0399 18.6899 81.1799 20.4599 81.1799C22.4499 81.1799 24.0099 79.6399 24.0099 77.6899C24.0099 75.7399 22.6399 75.0699 21.3599 74.5099L21.3699 74.5299Z" fill="#FAF9F5"/>
<path d="M177.26 35.2H171.32V65.5499H177.26V35.2Z" fill="#FAF9F5"/>
<path d="M128.59 31.54C133.16 31.54 137.09 29.79 140.16 26.42C142.85 23.48 144.17 19.89 144.17 15.58C144.17 11.27 142.59 7.46999 139.52 4.44C136.53 1.5 132.9 0 128.63 0C124.36 0 120.86 1.49 117.91 4.4C114.83 7.42999 113.17 11.36 113.17 15.58C113.17 24.63 119.87 31.55 128.58 31.55L128.59 31.54ZM118.98 5.33C121.54 2.72 124.96 1.27 128.59 1.27C133.11 1.27 136.83 3.19 139.69 6.95C141.61 9.50999 142.64 12.41 142.64 15.49C142.64 23.86 136.62 30.26 128.59 30.26C125.05 30.26 121.33 28.72 118.68 25.95C116.2 23.35 114.75 19.63 114.75 15.58C114.75 11.91 116.29 8.10999 118.97 5.34L118.98 5.33Z" fill="#FAF9F5"/>
<path d="M101.35 30.94H102.93V20.53L112.79 0.589996H111.13L102.12 18.86L93.1599 0.589996H91.4499L101.35 20.53V30.94Z" fill="#FAF9F5"/>
<path d="M172.88 22.7L179.9 14.82L190.49 30.94H192.33L180.8 13.66L192.24 0.589996H190.45L172.88 20.57V0.589996H171.38V30.94H172.88V22.7Z" fill="#FAF9F5"/>
<path d="M2.12 70.1399H0V81.0599H5.55V79.1399H2.12V70.1399Z" fill="#FAF9F5"/>
<path d="M99.05 65.5599H104.98V54.6299L113.82 35.2H107.33L102.12 48.27L96.87 35.2H90.34L99.05 54.6299V65.5599Z" fill="#FAF9F5"/>
<path d="M148.53 2.07999H155.62C161.81 2.07999 164.97 5.32999 164.97 10.32C164.97 14.85 161.85 18.09 156.98 18.09H153.48L162.62 30.94H164.37L156.22 19.46H156.99C162.84 19.46 166.47 15.74 166.47 10.37C166.47 6.99999 164.98 4.04999 162.54 2.33999C160.41 0.849996 158.06 0.589996 155.2 0.589996H147.05V30.94H148.54V2.07999H148.53Z" fill="#FAF9F5"/>
<path d="M1.87989 2.63999L21.5599 30.94H23.5699V0.589996H22.0699V28.89L2.26989 0.589996H0.389892V30.94H1.87989V2.63999Z" fill="#FAF9F5"/>
<path d="M59.37 30.94L67.12 3.05999L74.86 30.94H76.49L85.43 0.589996H83.93L75.66 28.47L67.91 0.589996H66.28L58.53 28.47L50.3 0.589996H48.76L57.74 30.94H59.37Z" fill="#FAF9F5"/>
<path d="M45.8499 60.2199H35.3499V52.71H45.8499V47.46H35.3499V40.54H45.8499V35.2H29.4599V65.5599H45.8499V60.2199Z" fill="#FAF9F5"/>
<path d="M45.4299 29.45H30.9499V16.64H45.4299V15.15H30.9499V2.07999H45.8499V0.589996H29.4599V30.94H45.4299V29.45Z" fill="#FAF9F5"/>
<path d="M85.9198 75.0399H80.7299V70.1399H79.6499V81.0599H80.7299V76.0899H85.9198V81.0599H86.9998V70.1399H85.9198V75.0399Z" fill="#FAF9F5"/>
<path d="M142.1 70.9799C143.79 70.9799 144.93 71.7299 145.82 72.9599H147.11C146.1 71.0099 144.28 69.9199 142.12 69.9199C140.61 69.9199 139.31 70.4599 138.26 71.4999C137.14 72.5999 136.56 74.0099 136.56 75.5299C136.56 78.7899 138.94 81.2799 142.18 81.2799C144.29 81.2799 146.02 80.2199 147.02 78.3599H145.75C144.84 79.6199 143.61 80.2499 142.11 80.2499C139.73 80.2499 137.7 78.2499 137.7 75.5499C137.7 73.1199 139.64 70.9899 142.11 70.9899L142.1 70.9799Z" fill="#FAF9F5"/>
<path d="M167.52 44.68C167.52 40.79 165.69 37.85 162.23 36.23C160.23 35.29 157.62 35.2 154.25 35.2H147.04V65.5599H152.97V51.47L160.83 65.5599H167.92L160.32 53.78C164.8 52.8799 167.53 49.38 167.53 44.68H167.52ZM154.29 49.98H152.97V40.16H155.19C159.5 40.16 161.64 41.57 161.64 44.86C161.64 48.15 159.12 49.98 154.29 49.98Z" fill="#FAF9F5"/>
<path d="M167.27 70.1399H166.19V81.0699H167.27V70.1399Z" fill="#FAF9F5"/>
<path d="M151.81 70.1399L147.57 81.0699H148.71L150.01 77.6399H154.87L156.18 81.0699H157.33L153.11 70.1399H151.81ZM150.38 76.6599L152.42 71.1699L154.49 76.6599H150.37H150.38Z" fill="#FAF9F5"/>
<path d="M162.13 74.85L161.4 74.53C160.67 74.2 159.66 73.74 159.66 72.7599C159.66 71.7799 160.48 71 161.53 71C162.38 71 162.95 71.36 163.44 72.18L164.33 71.61C163.75 70.57 162.74 69.97 161.56 69.97C159.83 69.97 158.53 71.15 158.53 72.72C158.53 74.29 159.65 74.92 160.89 75.49L161.56 75.78L161.61 75.7999C162.6 76.2499 163.62 76.7099 163.62 78.0099C163.62 79.2199 162.58 80.1999 161.31 80.1999C160.18 80.1999 159.27 79.3699 159.07 78.1699L157.97 78.4799C158.33 80.1499 159.65 81.2399 161.34 81.2399C163.25 81.2399 164.74 79.77 164.74 77.9C164.74 76.14 163.51 75.46 162.13 74.86V74.85Z" fill="#FAF9F5"/>
<path d="M186.53 35.2L177.35 50.49L186.53 65.5599H193.14L183.41 50.28L193.14 35.2H186.53Z" fill="#FAF9F5"/>
<path d="M176.55 79.7599L170.56 70.1399H169.27V81.0599H170.32L170.2 71.4299L176.2 81.0599H177.48V70.1399H176.42L176.55 79.7599Z" fill="#FAF9F5"/>
<path d="M184.55 69.9199C183.05 69.9199 181.76 70.4599 180.69 71.4999C179.59 72.5899 178.99 74.0099 178.99 75.5299C178.99 78.7899 181.4 81.2799 184.54 81.2799C186.18 81.2799 187.6 80.6499 188.71 79.4399C189.68 78.3799 190.15 77.0899 190.15 75.5399C190.15 73.9899 189.58 72.6199 188.48 71.5299C187.4 70.4699 186.1 69.9299 184.56 69.9299L184.55 69.9199ZM184.61 80.2499C182.11 80.2499 180.11 78.2499 180.11 75.5499C180.11 74.2099 180.76 72.8599 181.79 71.9799C182.57 71.3199 183.53 70.9699 184.54 70.9699C187.08 70.9699 189.04 73.0899 189.04 75.5199C189.04 78.2099 187.07 80.2499 184.62 80.2499H184.61Z" fill="#FAF9F5"/>
<path d="M106.8 81.0599H112.47V79.9999H107.88V76.1199H112.47V75.0399H107.88V71.2099H112.47V70.1399H106.8V81.0599Z" fill="#FAF9F5"/>
<path d="M94.0499 69.9199C92.5399 69.9199 91.2499 70.4599 90.1899 71.4999C89.0799 72.5899 88.4799 74.0099 88.4799 75.5299C88.4799 78.7899 90.8899 81.2799 94.0299 81.2799C95.6799 81.2799 97.0899 80.6499 98.1899 79.4399C99.1599 78.3799 99.6399 77.0899 99.6399 75.5399C99.6399 73.9899 99.0699 72.6199 97.9599 71.5299C96.8899 70.4699 95.5799 69.9299 94.0399 69.9299L94.0499 69.9199ZM94.1099 80.2499C91.5999 80.2499 89.6099 78.2499 89.6099 75.5499C89.6099 74.2099 90.2599 72.8599 91.2799 71.9799C92.0599 71.3199 93.0199 70.9699 94.0299 70.9699C96.5599 70.9699 98.5299 73.0899 98.5299 75.5199C98.5299 78.2099 96.5599 80.2499 94.0999 80.2499H94.1099Z" fill="#FAF9F5"/>
<path d="M79.6699 35.2L74.67 54.89L69.17 35.2H65.07L59.56 54.89L54.57 35.2H48.5L57.3 65.5599H61.99L67.12 46.6L72.2 65.5599H76.94L85.73 35.2H79.6699Z" fill="#FAF9F5"/>
<path d="M99.6398 71.2099H101.83V81.0599H102.9V71.2099H105.08V70.1399H99.6398V71.2099Z" fill="#FAF9F5"/>
<path d="M70.78 74.5299L70.11 74.2299C69.33 73.8799 68.74 73.5599 68.74 72.9799C68.74 72.2899 69.31 71.7699 70.06 71.7699C70.71 71.7699 71.11 72.0299 71.49 72.6899L71.68 73.0199L72 72.8099L72.9 72.2299L73.18 72.0499L73.02 71.7499C72.41 70.6299 71.34 69.9899 70.08 69.9899C68.26 69.9899 66.88 71.26 66.88 72.9299C66.88 74.5999 68.07 75.2999 69.3 75.8499L69.92 76.1199L69.96 76.1399C70.96 76.5899 71.57 76.9199 71.57 77.7999C71.57 78.6799 70.8 79.4099 69.85 79.4099C69 79.4099 68.31 78.7599 68.18 77.8399L68.12 77.4299L67.72 77.5399L66.3 77.9399L66.37 78.2699C66.73 80.0399 68.11 81.1799 69.88 81.1799C71.87 81.1799 73.43 79.6399 73.43 77.6899C73.43 75.7399 72.06 75.0699 70.78 74.5099V74.5299Z" fill="#FAF9F5"/>
<path d="M128.59 66.1599C132.82 66.1599 136.83 64.4499 139.77 61.3799C142.63 58.4299 144.17 54.55 144.17 50.2C144.17 45.85 142.55 42.17 139.52 39.14C136.57 36.24 132.73 34.61 128.68 34.61C123.3 34.61 118.6 37.08 115.62 41.44C113.87 44 112.97 46.95 112.97 50.32C112.97 54.59 114.46 58.3899 117.28 61.3799C120.27 64.5799 124.11 66.1599 128.59 66.1599ZM128.72 40.76C133.8 40.76 137.98 44.94 137.98 50.11C137.98 55.92 133.75 60.0099 128.59 60.0099C126.11 60.0099 123.64 58.8999 121.76 56.85C120.05 54.97 119.2 52.71 119.2 50.11C119.2 44.94 123.38 40.76 128.72 40.76Z" fill="#FAF9F5"/>
<path d="M115.9 70.1399H114.82V81.0599H119.74V79.9999H115.9V70.1399Z" fill="#FAF9F5"/>
<path d="M130.83 76.0099H132.27V75.0399H130.22L129.32 77.0899L127.15 74.9899C127.67 74.6799 128.2 74.3599 128.6 73.8799C128.77 73.6799 129.18 73.1499 129.18 72.3599C129.18 70.9699 127.99 69.9199 126.66 69.9199C125.33 69.9199 124.19 70.9199 124.19 72.2999C124.19 73.3599 124.75 73.9999 125.4 74.7099C124.82 75.0499 124.26 75.3799 123.82 75.9299C123.13 76.7599 123.05 77.6199 123.05 78.0299C123.05 78.9899 123.49 79.9199 124.19 80.4999C125.03 81.2099 125.97 81.2799 126.36 81.2799C127.91 81.2799 128.74 80.2299 129.04 79.7799C129.17 79.5799 129.35 79.2299 129.6 78.6899L132.26 81.2599L133.07 80.7099L130.04 77.7999L130.84 76.0199L130.83 76.0099ZM125.31 72.9699C125.19 72.6699 125.17 72.4499 125.17 72.3099C125.17 72.0599 125.28 71.3199 126 70.9799C126.11 70.9299 126.33 70.8399 126.64 70.8399C127.22 70.8399 127.77 71.1499 128.03 71.6899C128.08 71.7799 128.19 72.0299 128.19 72.3599C128.19 73.4099 127.22 73.9099 126.42 74.2999C125.97 73.9199 125.53 73.5299 125.31 72.9699ZM127.82 79.7099C127.24 80.2899 126.63 80.3499 126.29 80.3499C125.41 80.3499 124.55 79.7899 124.18 78.9699C123.99 78.5899 123.98 78.2499 123.98 78.0899C123.98 77.7499 124.07 77.4299 124.12 77.3099C124.48 76.3099 125.43 75.7899 125.69 75.6499L126.25 75.3699L128.93 77.9399C128.63 78.5699 128.33 79.2099 127.83 79.7099H127.82Z" fill="#FAF9F5"/>
<path d="M60.2099 70.1399L55.9699 81.0699H58.1799L59.0299 78.7799H63.0899L63.9499 81.0699H66.2399L62.0599 70.1399H60.2099ZM59.7599 76.7499L61.0799 73.2299L62.3699 76.7499H59.7599Z" fill="#FAF9F5"/>
<path d="M195.82 61.1599C194.6 61.1599 193.61 62.1399 193.61 63.3599C193.61 64.5799 194.6 65.5599 195.81 65.5599C197.02 65.5599 198 64.5699 198 63.3599C198 62.1499 197.03 61.1599 195.82 61.1599ZM195.81 65.1199C194.85 65.1199 194.09 64.3099 194.09 63.3599C194.09 62.4099 194.84 61.5999 195.82 61.5999C196.8 61.5999 197.53 62.4099 197.53 63.3599C197.53 64.3099 196.79 65.1199 195.82 65.1199H195.81Z" fill="#FAF9F5"/>
<path d="M196.4 63.4C196.65 63.29 196.8 63.09 196.8 62.81C196.8 62.3 196.35 62.12 195.91 62.12H194.88V64.56H195.49V63.62H195.73C196 63.62 196.13 63.71 196.17 63.98C196.19 64.12 196.2 64.46 196.25 64.56H196.84C196.69 64.15 196.92 63.61 196.42 63.4H196.4ZM195.79 63.23H195.47V62.54H195.8C196.02 62.54 196.18 62.6 196.18 62.86C196.18 63.13 196.04 63.23 195.78 63.23H195.79Z" fill="#FAF9F5"/>
</svg>
