<svg width="190" height="64" viewBox="0 0 190 64" fill="none" xmlns="http://www.w3.org/2000/svg">
<path d="M129.258 2.29364C129.871 2.29364 133.091 2.29364 134.325 1.80201C135.068 1.55118 134.576 0.939148 134.325 0.567917C133.583 -0.545776 122.968 0.196686 119.627 0.939148C113.456 2.42407 100.734 5.75512 83.8178 15.2667C80.4868 17.1228 63.1994 26.3835 52.3334 26.3835C49.7448 26.3835 44.3068 25.5207 43.8152 22.31C43.4439 17.2432 48.5107 15.0259 52.0926 13.3001C50.6077 13.3001 47.7683 14.2834 46.4138 14.7851C41.347 16.5108 37.1531 23.0625 40.7349 27.0056C43.5744 30.2162 48.2699 30.2162 52.223 30.2162C53.708 30.2162 59.2664 28.9821 60.8717 28.4905C79.2727 22.8117 95.6972 7.99254 114.71 4.29026C115.332 4.16986 117.058 3.6682 117.55 3.79863C110.386 5.77518 100.012 12.8085 100.012 21.2064C100.012 24.0458 101.366 27.136 104.336 27.8785V27.5072C103.222 26.0223 102.239 24.9187 102.359 23.0625C102.731 12.6881 120.389 3.67823 129.279 2.31371L129.258 2.29364Z" fill="#FAF9F5"/>
<path d="M151.733 17.2332L151.613 17.484C152.235 17.7348 152.355 18.1061 152.355 18.7181C152.355 20.3234 150.007 22.5508 148.773 23.4137C142.231 27.9788 128.155 27.9788 128.024 19.9522C127.904 12.4172 144.449 7.73167 144.94 6.98921C144.94 6.98921 145.683 6.73838 145.312 6.00595C141.359 6.00595 137.165 6.62801 133.091 7.24004C121.974 8.2233 110.617 16.1295 109.503 21.3167C109.383 21.9388 109.874 21.4371 109.874 21.4371C110.857 20.4539 111.359 19.4606 112.342 18.4773C116.787 13.5409 128.887 8.2233 135.559 8.72496C117.78 16.3803 119.877 31.5707 138.028 27.9888C142.472 27.126 149.385 25.2698 151.984 21.3167C152.596 20.3335 153.469 17.7348 151.733 17.2432V17.2332Z" fill="#FAF9F5"/>
<path d="M56.6477 11.7951C56.6477 12.2868 55.6645 13.4005 55.1628 14.1429C55.0424 14.2633 55.1628 14.2633 55.1628 14.3938C55.9053 14.3938 56.8885 12.2968 56.8885 11.6747C56.8885 9.08616 53.5575 8.71493 52.1929 8.71493C48.2398 8.71493 43.7951 11.1831 40.8353 13.7817C39.3504 15.1362 38.1163 17.2432 37.5042 18.8485C41.8286 13.9122 47.0158 10.0795 52.5742 10.0795C53.3167 10.0795 56.6477 10.1999 56.6477 11.8052V11.7951Z" fill="#FAF9F5"/>
<path d="M66.1594 36.0054C65.6477 36.0054 65.2062 36.0355 64.7447 36.0556C64.2029 36.0857 63.621 36.1258 62.8283 36.1258L61.9655 36.2462H59.7381C59.6177 36.2462 59.4872 36.3666 59.4872 36.3666C59.4471 36.4369 59.417 36.4971 59.3869 36.5472C59.3167 36.6676 59.2765 36.7278 59.3668 36.7278C60.3501 36.8482 60.8518 36.9787 60.8518 37.7111V42.8983L60.7314 48.6975C60.611 49.44 60.2397 49.5604 59.2464 49.6808C59.1261 49.6808 59.1261 49.9316 59.2464 50.052C59.2464 50.052 59.2464 50.1724 59.4973 50.1724H63.33L65.5574 50.052C67.0423 50.052 67.7848 50.052 68.8884 49.6808C69.0189 49.6407 69.1493 49.6005 69.2797 49.5704C70.3232 49.2694 71.166 49.0286 72.5907 47.7143C74.0756 46.2293 74.6877 44.1324 74.6877 43.0187C74.6877 41.0421 73.9452 39.4368 72.3399 37.9519C70.4837 36.2262 67.6443 35.9753 66.1694 35.9753L66.1594 36.0054ZM68.6276 48.3564C67.5139 49.0989 66.5306 49.3397 65.7881 49.3397C65.3768 49.3397 65.0557 49.2594 64.6744 49.1591C64.5942 49.139 64.5139 49.1189 64.4337 49.0989C64.1828 48.9785 64.0624 48.848 64.0624 48.7276C63.6912 47.3731 63.6912 45.517 63.6912 42.5572C63.6912 40.701 63.6912 38.7245 63.8116 38.1124C63.8116 37.8616 63.8116 37.7412 63.932 37.6208C64.1828 37.5004 65.0457 37.2496 65.4169 37.2496C66.4002 37.2496 67.7647 37.37 69.1192 38.4837C70.1024 39.3465 71.2161 40.8314 71.2161 43.1792C71.2161 45.8982 70.2329 47.3731 68.6276 48.3664V48.3564Z" fill="#FAF9F5"/>
<path d="M18.8625 50.2025C19.1134 50.2025 19.1134 50.0821 19.1134 50.0821C19.1134 49.8313 19.2338 49.7109 19.1134 49.7109C18.1301 49.5905 17.5081 49.5905 17.5081 48.848L17.2572 43.6608V43.0388L17.1368 37.8516C17.1368 37.1091 17.6285 36.9887 18.6217 36.8683C18.6217 36.8683 18.6217 36.6175 18.5013 36.4971C18.5013 36.4971 18.5013 36.3767 18.2505 36.3767H14.2974C14.177 36.7479 14.0466 37.3599 13.9262 37.4904C12.8125 39.7177 11.2072 42.9284 9.85267 45.3966C9.73227 45.517 9.60184 45.517 9.48144 45.2762C8.24735 43.0488 6.27079 39.5974 5.28753 37.5004C5.28753 37.2496 5.0367 36.7579 4.9163 36.2663H1.08359C0.963194 36.2663 0.832761 36.3867 0.832761 36.3867C0.712362 36.6375 0.58193 36.7579 0.712362 36.7579C1.69562 36.8783 2.19729 37.0088 2.19729 37.7412L1.94645 42.9284L1.57522 48.7276C1.45482 49.4701 1.08359 49.5905 0.0902994 49.7109C-0.0300998 49.7109 -0.0300998 49.9617 0.0902994 50.0821C0.0902994 50.0821 0.0902994 50.2025 0.341131 50.2025C0.712362 50.2025 0.220732 50.2025 0.963194 50.2025H4.17384C4.29424 50.2025 4.42467 50.0821 4.42467 50.0821C4.54507 49.8313 4.6755 49.7109 4.54507 49.7109C3.56181 49.5905 3.06015 49.5905 3.06015 48.848L3.18055 43.6608L3.55178 39.0957C4.29424 40.701 5.64873 43.42 7.50488 47.3731C8.12695 48.7276 8.61858 49.8413 8.73898 49.9617C8.85938 50.0821 8.98981 50.2125 9.11021 50.2125C9.36104 50.2125 9.48144 49.9617 9.73227 49.4701C9.85267 49.2193 10.2239 48.3564 11.2172 46.139C12.2005 44.1625 14.3074 39.5974 14.5482 39.0957C14.6686 38.9753 14.7991 38.9753 14.7991 39.2161L14.6787 43.5404L14.5583 48.7276C14.5583 49.4701 14.187 49.5905 13.2038 49.7109C13.0834 49.7109 13.0834 49.9617 13.2038 50.0821C13.2038 50.0821 13.2038 50.2025 13.4546 50.2025H18.8926H18.8625Z" fill="#FAF9F5"/>
<path d="M36.8723 49.6808C36.0395 49.5805 35.4977 49.5202 35.1666 48.848L32.2068 41.0722C32.0362 40.6107 31.8757 40.1893 31.7252 39.788C31.2336 38.4837 30.8322 37.4302 30.3607 36.0054C30.2403 35.6342 30.1098 35.6342 29.869 35.6342C29.4978 35.6342 29.1266 35.7546 28.8858 35.885C28.7654 36.0054 28.6349 36.1359 28.6349 36.2563C28.6349 36.3767 28.5446 36.5673 28.4343 36.778C28.3239 36.9987 28.2035 37.2395 28.1433 37.4904L24.0698 46.8715L23.3273 48.4768C22.9561 49.2193 22.5849 49.3397 21.4712 49.4601C21.3508 49.4601 21.3508 49.7109 21.3508 49.8313C21.3508 49.8313 21.2304 49.9517 21.4712 49.9517H25.5447C25.7955 49.9517 25.7955 49.8313 25.7955 49.8313C25.7955 49.731 25.8156 49.6407 25.8357 49.5804C25.8557 49.5002 25.8658 49.4601 25.7955 49.4601H25.6852C24.6718 49.3397 24.4511 49.3096 24.6818 48.5972L25.6651 46.0086C25.7855 45.7578 25.9159 45.517 26.4076 45.517H30.2403C30.4911 45.517 30.7319 45.7678 30.8623 46.0086L31.8456 48.7276C32.0964 49.4701 31.966 49.5905 30.9827 49.7109C30.9827 49.7109 30.9827 49.9617 31.1031 50.0821C31.1031 50.0821 31.1031 50.2025 31.354 50.2025H36.9124C37.1632 50.2025 37.1632 50.0821 37.1632 50.0821C37.1632 49.9818 37.1833 49.8915 37.2034 49.8313C37.2234 49.751 37.2335 49.7109 37.1632 49.7109C37.0729 49.7009 36.9826 49.6908 36.8923 49.6808H36.8723ZM29.9794 44.2829H27.14C26.8892 44.2829 26.6484 44.1625 26.7688 44.0321C27.0096 43.4301 27.1902 42.9284 27.3607 42.497C27.8022 41.3532 28.053 40.691 28.5045 39.7077C28.5045 39.7077 28.7553 39.7077 28.7553 39.8281C29.0062 40.4502 29.4978 41.6843 30.2403 44.022C30.3607 44.1424 30.1199 44.2729 29.9894 44.2729L29.9794 44.2829Z" fill="#FAF9F5"/>
<path d="M89.2459 50.2025H91.5937C91.8445 50.2025 91.8445 50.0821 91.8445 50.0821C91.8445 49.9818 91.8646 49.8915 91.8847 49.8313C91.9047 49.751 91.9148 49.7109 91.8445 49.7109C91.7542 49.7009 91.6639 49.6908 91.5736 49.6808C90.7409 49.5805 90.1991 49.5202 89.868 48.848L87.0286 41.0722C86.858 40.6107 86.6975 40.1893 86.547 39.788C86.0553 38.4837 85.654 37.4302 85.1825 36.0054C85.062 35.6342 84.9316 35.6342 84.6908 35.6342C84.3196 35.6342 83.828 35.7546 83.5771 35.885C83.4567 36.0054 83.3263 36.1359 83.3263 36.2563C83.2059 36.5071 82.9551 36.9987 82.8347 37.4904L78.7612 46.8715L78.0187 48.4768C77.6475 49.2193 77.2762 49.3397 76.1625 49.4601C76.0421 49.4601 76.0421 49.7109 76.0421 49.8313C76.0421 49.8313 75.9217 49.9517 76.1625 49.9517H80.236C80.4869 49.9517 80.4869 49.8313 80.4869 49.8313C80.4869 49.731 80.507 49.6407 80.527 49.5804C80.5471 49.5002 80.5571 49.4601 80.4869 49.4601H80.3765C79.3632 49.3397 79.1424 49.3096 79.3732 48.5972L80.3564 46.0086C80.4768 45.7578 80.6073 45.517 81.0989 45.517H84.9316C85.1825 45.517 85.4232 45.7678 85.5537 46.0086L86.5369 48.7276C86.7878 49.4701 86.6573 49.5905 85.6741 49.7109C85.6741 49.7109 85.6741 49.9617 85.7945 50.0821C85.7945 50.0821 85.7945 50.2025 86.0453 50.2025H89.256H89.2459ZM84.5503 44.2729H81.7109C81.4601 44.2729 81.3397 44.1525 81.3397 44.022C81.5705 43.42 81.7611 42.9184 81.9317 42.4869C82.3731 41.3431 82.624 40.6809 83.0755 39.6977C83.0755 39.6977 83.3263 39.6977 83.3263 39.8181C83.5771 40.4401 84.0688 41.6742 84.8112 44.012C84.9316 44.1324 84.6908 44.2628 84.5604 44.2628L84.5503 44.2729Z" fill="#FAF9F5"/>
<path d="M123.801 49.6808C122.968 49.5805 122.426 49.5202 122.095 48.848L119.255 41.0722C119.085 40.6107 118.924 40.1893 118.774 39.788C118.282 38.4837 117.881 37.4302 117.409 36.0054C117.289 35.6342 117.158 35.6342 116.918 35.6342C116.546 35.6342 116.055 35.7546 115.804 35.885C115.684 36.0054 115.553 36.1359 115.553 36.2563C115.433 36.5071 115.182 36.9987 115.062 37.4904L110.988 46.8715L110.246 48.4768C109.874 49.2193 109.503 49.3397 108.389 49.4601C108.269 49.4601 108.269 49.7109 108.269 49.8313C108.269 49.8313 108.149 49.9517 108.389 49.9517H112.463C112.714 49.9517 112.714 49.8313 112.714 49.8313C112.714 49.731 112.734 49.6407 112.754 49.5804C112.774 49.5002 112.784 49.4601 112.714 49.4601H112.603C111.59 49.3397 111.359 49.3096 111.6 48.5972L112.583 46.0086C112.704 45.7578 112.834 45.517 113.326 45.517H117.158C117.409 45.517 117.65 45.7678 117.771 46.0086L118.764 48.7276C119.015 49.4701 118.884 49.5905 117.901 49.7109C117.901 49.7109 117.901 49.9617 118.021 50.0821C118.021 50.0821 118.021 50.2025 118.272 50.2025H123.831C124.081 50.2025 124.081 50.0821 124.081 50.0821C124.081 49.9818 124.102 49.8915 124.122 49.8313C124.142 49.751 124.152 49.7109 124.081 49.7109C123.991 49.7009 123.901 49.6908 123.811 49.6808H123.801ZM116.908 44.2829H114.068C113.697 44.2829 113.577 44.1625 113.697 44.0321C113.928 43.4301 114.118 42.9284 114.289 42.497C114.73 41.3532 114.981 40.691 115.433 39.7077C115.433 39.7077 115.684 39.7077 115.684 39.8281C115.934 40.4502 116.426 41.6843 117.169 44.022C117.289 44.1424 117.048 44.2729 116.918 44.2729L116.908 44.2829Z" fill="#FAF9F5"/>
<path d="M176.555 50.0821C176.555 49.9818 176.575 49.8915 176.596 49.8313C176.616 49.751 176.626 49.7109 176.555 49.7109C176.465 49.7009 176.375 49.6908 176.285 49.6808C175.452 49.5805 174.91 49.5202 174.579 48.848L171.619 41.0722C171.448 40.6107 171.288 40.1893 171.137 39.788C170.646 38.4837 170.245 37.4302 169.773 36.0054C169.653 35.6342 169.522 35.6342 169.281 35.6342C168.91 35.6342 168.418 35.7546 168.168 35.885C168.047 36.0054 167.917 36.1359 167.917 36.2563C167.796 36.5071 167.546 36.9987 167.425 37.4904L163.352 46.8715L162.73 48.4768C162.358 49.2193 161.987 49.3397 160.873 49.4601C160.753 49.4601 160.753 49.7109 160.753 49.8313C160.753 49.8313 160.633 49.9517 160.873 49.9517H164.947C165.198 49.9517 165.198 49.8313 165.198 49.8313C165.198 49.731 165.218 49.6407 165.238 49.5804C165.258 49.5002 165.268 49.4601 165.198 49.4601H165.087C164.074 49.3397 163.853 49.3096 164.084 48.5972L165.067 46.0086C165.188 45.7578 165.318 45.517 165.81 45.517H169.643C169.893 45.517 170.134 45.7678 170.255 46.0086L171.238 48.7276C171.489 49.4701 171.358 49.5905 170.375 49.7109C170.375 49.7109 170.375 49.9617 170.495 50.0821C170.495 50.0821 170.495 50.2025 170.746 50.2025H176.305C176.555 50.2025 176.555 50.0821 176.555 50.0821ZM169.392 44.2829H166.552C166.181 44.2829 166.061 44.1625 166.181 44.0321C166.412 43.4301 166.602 42.9284 166.773 42.497C167.214 41.3532 167.465 40.691 167.917 39.7077C167.917 39.7077 168.168 39.7077 168.168 39.8281C168.418 40.4502 168.91 41.6843 169.653 44.022C169.773 44.1424 169.532 44.2729 169.402 44.2729L169.392 44.2829Z" fill="#FAF9F5"/>
<path d="M53.066 50.5737C53.9288 50.2025 54.0492 49.9517 54.0492 49.7109C54.0492 49.3397 53.9288 48.1056 53.9288 46.0086C53.9288 44.2829 53.9288 41.6843 54.0492 39.7077V37.7312C54.1696 36.9887 54.5408 36.8683 55.5341 36.7479C55.6545 36.7479 55.6545 36.4971 55.5341 36.3767C55.5341 36.3767 55.5341 36.2563 55.2833 36.2563C54.9121 36.2563 55.4037 36.2563 54.6612 36.2563H51.4506C51.3302 36.2563 51.1998 36.3767 51.1998 36.3767C51.0794 36.6275 50.9489 36.7479 51.0794 36.7479C52.0626 36.8683 52.5643 36.8683 52.5643 37.6108V39.8381C52.5643 41.3231 52.4439 44.9049 52.6847 45.3966C48.6112 41.8147 47.0059 40.2094 45.2801 38.3532C45.0293 38.1024 43.9256 36.9987 43.6748 36.6275C43.5544 36.5071 43.424 36.3767 43.3036 36.3767C43.1364 36.2964 42.9725 36.2563 42.812 36.2563H40.3438C40.2234 36.2563 40.0929 36.3767 40.0929 36.3767C39.9725 36.6275 39.8421 36.7479 39.9725 36.7479C40.9558 36.8683 41.4575 36.9987 41.4575 37.7312V42.9184L41.3371 48.7176C41.2167 49.4601 40.8454 49.5805 39.8521 49.7009C39.7317 49.7009 39.7317 49.9517 39.8521 50.0721C39.8521 50.0721 39.8521 50.1925 40.103 50.1925C40.4742 50.1925 39.9826 50.1925 40.725 50.1925H43.9357C44.0561 50.1925 44.1865 50.0721 44.1865 50.0721C44.3069 49.8212 44.4373 49.7009 44.3069 49.7009C43.3237 49.5805 42.822 49.5805 42.822 48.838L42.9424 40.1893C42.9424 40.1893 45.1698 42.1659 47.7584 44.8849C49.8553 47.1123 51.4606 48.838 52.6947 50.4433C52.8151 50.5637 52.9456 50.6941 53.066 50.5637V50.5737Z" fill="#FAF9F5"/>
<path d="M106.042 46.3798H105.67C105.55 46.3798 105.42 46.3798 105.42 46.5002C105.299 47.1223 105.169 47.6139 104.928 47.8547C104.436 48.7176 103.072 48.9684 101.597 48.9684C100.604 48.9684 100.363 48.9684 99.9916 48.848C99.6203 48.7276 99.4999 48.5972 99.4999 48.226C99.4999 47.8547 99.3795 47.2427 99.3795 44.2729V37.7312C99.4999 36.9887 99.8712 36.8683 100.864 36.7479C100.985 36.7479 100.985 36.4971 100.864 36.3767C100.864 36.3767 100.864 36.2563 100.614 36.2563H95.4264C95.306 36.2563 95.1756 36.3767 95.1756 36.3767C95.0552 36.6275 94.9248 36.7479 95.0552 36.7479C96.0384 36.8683 96.5401 36.8683 96.5401 37.6108V42.9184L96.4197 48.7176C96.2993 49.4601 95.9281 49.5805 94.9348 49.7009C94.8144 49.7009 94.8144 49.9517 94.9348 50.0721C94.9348 50.0721 94.9348 50.1925 95.1856 50.1925C95.5569 50.1925 95.0652 50.1925 95.8077 50.1925H99.0183L104.085 50.0721H105.068C105.319 50.0721 105.44 49.9517 105.44 49.7009C105.56 48.838 105.811 47.7243 106.182 46.6106C106.182 46.4902 106.062 46.3598 106.062 46.3598L106.042 46.3798Z" fill="#FAF9F5"/>
<path d="M132.84 42.9184L135.058 39.7077L136.543 37.7312C137.034 36.9887 137.285 36.8683 138.148 36.7479C138.268 36.7479 138.268 36.4971 138.268 36.3767C138.268 36.3767 138.268 36.2563 138.148 36.2563H133.452C133.202 36.2563 133.202 36.3767 133.202 36.3767C133.081 36.6275 133.081 36.7479 133.202 36.7479C134.195 36.8683 135.058 36.8683 134.556 37.6108L133.322 39.8381L131.837 41.8147C131.717 41.9351 131.586 42.0655 131.466 41.9351C131.346 41.8147 131.215 41.6843 131.095 41.4435L130.111 39.5873L128.998 37.6108C128.627 36.8683 128.255 36.7479 129.369 36.6275C129.489 36.6275 129.489 36.3767 129.489 36.2563C129.369 36.2563 129.489 36.1359 129.239 36.1359H124.172C124.051 36.1359 124.051 36.2563 124.051 36.2563C124.051 36.5071 124.051 36.6275 124.172 36.6275C124.914 36.7078 125.449 36.9954 125.777 37.4904L127.132 39.7177L128.988 42.9284C129.359 43.6709 129.479 44.0421 129.479 44.2829V46.3798L129.359 48.6072C129.239 49.3497 128.867 49.4701 127.874 49.5905C127.754 49.5905 127.754 49.8413 127.874 49.9617C127.874 49.9617 127.874 50.0821 128.125 50.0821C128.496 50.0821 128.004 50.0821 128.737 50.0821H133.673C133.794 50.0821 133.924 49.9617 133.924 49.9617C134.044 49.7109 134.175 49.5905 134.044 49.5905C133.061 49.4701 132.56 49.4701 132.56 48.7276L132.439 45.7678V44.5337C132.439 43.7913 132.56 43.42 132.81 42.9284L132.84 42.9184Z" fill="#FAF9F5"/>
<path d="M189.89 36.2462H185.194C184.943 36.2462 184.943 36.3666 184.943 36.3666C184.823 36.6175 184.823 36.7379 184.943 36.7379C185.926 36.8583 186.799 36.8583 186.298 37.6007L185.686 38.7144C185.435 39.0857 184.943 39.9485 183.589 41.8047C183.468 41.9251 183.338 42.0555 183.218 41.9251C183.097 41.8047 182.967 41.6742 182.846 41.4334L181.863 39.5773L180.749 37.6007C180.378 36.8583 180.007 36.7379 181.121 36.6175C181.241 36.6175 181.241 36.3666 181.241 36.2462C181.121 36.2462 181.241 36.1258 180.99 36.1258H175.923C175.803 36.1258 175.803 36.2462 175.803 36.2462C175.803 36.4971 175.803 36.6175 175.923 36.6175C176.666 36.6977 177.201 36.9854 177.529 37.4803L178.883 39.7077L180.739 42.9184C181.111 43.6608 181.231 44.0321 181.231 44.2729V46.3698L181.111 48.5972C180.99 49.3397 180.619 49.4601 179.626 49.5804C179.505 49.5804 179.505 49.8313 179.626 49.9517C179.626 49.9517 179.626 50.0721 179.876 50.0721C180.248 50.0721 179.756 50.0721 180.488 50.0721H185.425C185.545 50.0721 185.676 49.9517 185.676 49.9517C185.796 49.7009 185.926 49.5804 185.796 49.5804C184.813 49.4601 184.311 49.4601 184.311 48.7176L184.191 45.7578V44.5237C184.191 43.7812 184.311 43.41 184.562 42.9184L186.789 39.7077L188.274 37.7312C188.766 36.9887 189.017 36.8683 189.88 36.7479C190 36.7479 190 36.4971 190 36.3767C190 36.3767 190 36.2563 189.88 36.2563L189.89 36.2462Z" fill="#FAF9F5"/>
<path d="M155.807 42.1759C155.686 42.1759 155.556 41.9251 155.686 41.9251C155.857 41.8348 155.977 41.7545 156.198 41.5739C156.288 41.5037 156.409 41.4134 156.549 41.303C157.292 40.8114 157.532 39.9485 157.532 39.2061C157.532 37.7211 156.549 36.7379 155.807 36.487C154.823 36.1158 153.71 35.9954 152.847 35.9954L150.379 36.1158L149.516 36.2362H147.288C147.168 36.2362 147.038 36.3566 147.038 36.3566C146.997 36.4268 146.967 36.487 146.937 36.5372C146.867 36.6576 146.827 36.7178 146.917 36.7178C147.9 36.8382 148.402 36.9686 148.402 37.7011V42.8883L148.282 48.6875C148.161 49.43 147.79 49.5504 146.797 49.6707C146.676 49.6707 146.676 49.9216 146.797 50.042C146.797 50.042 146.797 50.1624 147.048 50.1624H151.001L153.589 50.042C153.961 50.042 155.074 49.9216 155.937 49.6707C157.793 49.0487 159.148 47.8146 159.148 45.838C159.148 43.6107 157.292 42.507 155.817 42.1358L155.807 42.1759ZM151.452 37.8917C151.472 37.7813 151.492 37.691 151.492 37.6108C151.492 37.4904 151.492 37.3599 151.743 37.3599C151.994 37.2395 152.365 37.2395 152.486 37.2395C152.977 37.2395 153.599 37.3599 154.091 37.8616C154.583 38.3532 154.713 38.8449 154.713 39.4669C154.713 40.5806 154.462 41.3231 153.85 41.8147C153.479 41.9351 153.108 41.9351 152.736 41.9351C152.536 41.9351 152.365 41.895 152.215 41.8649C152.094 41.8348 151.984 41.8147 151.874 41.8147C151.623 41.8147 151.502 41.6943 151.502 41.4435C151.382 40.9518 151.382 40.089 151.382 38.9753C151.382 38.4134 151.432 38.1124 151.472 37.9017L151.452 37.8917ZM152.847 49.2092C152.265 49.2092 152.124 49.0989 151.703 48.7778L151.613 48.7076C151.553 48.6273 151.502 48.5571 151.462 48.4868C151.241 48.1156 151.241 47.6139 151.241 44.5036C151.241 43.7612 151.362 43.2695 151.492 43.1491C151.743 42.8983 152.476 42.8983 152.847 42.8983C153.459 42.8983 154.452 43.1491 155.195 43.8816C155.686 44.3732 155.937 45.1156 155.937 46.1089C155.937 48.2059 154.211 49.1992 152.847 49.1992V49.2092Z" fill="#FAF9F5"/>
<path d="M5.2775 57.9883C5.2775 56.8746 4.41464 56.0118 2.55848 56.0118C2.23742 56.0118 1.90632 56.0419 1.59529 56.082C1.32439 56.1121 1.06353 56.1422 0.822728 56.1422V62.5635H1.80599V60.2157H2.91968L4.525 62.5635V62.4431H5.7591L3.90294 59.8545C4.7658 59.4833 5.25743 58.8713 5.25743 57.9984L5.2775 57.9883ZM2.68892 59.2224H1.94645V56.8746H2.80932C3.67218 56.8746 4.29424 57.3663 4.29424 57.9883C4.29424 58.7308 3.80261 59.2224 2.68892 59.2224Z" fill="#FAF9F5"/>
<path d="M8.85938 62.5535H12.9329V61.6906H9.85267V59.7141H12.5617V58.8512H9.85267V56.995H12.9329V56.1322H8.85938V62.5535Z" fill="#FAF9F5"/>
<path d="M17.8793 58.8512C17.1368 58.48 16.7656 58.2291 16.7656 57.7375C16.7656 57.2459 17.1368 56.8746 17.8793 56.8746C18.3709 56.8746 18.8625 57.1255 19.2338 57.3663L19.605 56.5034C19.2338 56.2526 18.6217 56.0118 17.9997 56.0118C16.7656 56.0118 15.9027 56.7542 15.9027 57.7375C15.9027 58.6004 16.3944 59.092 17.5081 59.5937C18.4913 60.0853 18.7421 60.3361 18.7421 60.8277C18.7421 61.3194 18.3709 61.811 17.6285 61.811C17.0064 61.811 16.3944 61.5602 15.9027 61.1889L15.5315 62.0518C16.1536 62.423 16.886 62.6739 17.6285 62.6739C18.9829 62.6739 19.8558 61.811 19.605 60.8177C19.605 59.9548 19.2338 59.4632 17.8793 58.8412V58.8512Z" fill="#FAF9F5"/>
<path d="M25.4042 56.0118C23.4277 56.0118 21.9428 57.3663 21.9428 59.3428C21.9428 61.3194 23.4277 62.6739 25.2738 62.6739C27.1199 62.6739 28.7353 61.1889 28.7353 59.3428C28.7353 57.3663 27.2504 56.0118 25.4042 56.0118ZM25.2838 61.821C23.9293 61.821 22.9361 60.7073 22.9361 59.3529C22.9361 57.9984 23.9193 56.8847 25.2838 56.8847C26.6484 56.8847 27.6316 57.9984 27.6316 59.3529C27.6316 60.7073 26.6484 61.821 25.2838 61.821Z" fill="#FAF9F5"/>
<path d="M35.5378 57.9883C35.5378 56.8746 34.675 56.0118 32.8188 56.0118C32.4978 56.0118 32.1667 56.0419 31.8556 56.082C31.5847 56.1121 31.3239 56.1422 31.0831 56.1422V62.5635H32.0663V60.2157H33.18L34.7853 62.5635V62.4431H36.0194L34.1633 59.8545C35.0261 59.4833 35.5178 58.8713 35.5178 57.9984L35.5378 57.9883ZM32.8188 59.2224H32.0764V56.8746H32.9392C33.9225 56.8746 34.4241 57.3663 34.4241 57.9883C34.4241 58.7308 33.9325 59.2224 32.8188 59.2224Z" fill="#FAF9F5"/>
<path d="M37.8756 56.995H39.9826V62.5535H41.0862V56.995H43.1932V56.1322H37.8756V56.995Z" fill="#FAF9F5"/>
<path d="M52.8252 56.0118L49.7349 62.5535H50.7182L51.4606 60.9481H54.1796L54.9221 62.5535H56.0358L52.9456 56.0118H52.8252ZM51.8319 60.2157L52.8151 57.8679L53.9288 60.2157H51.8319Z" fill="#FAF9F5"/>
<path d="M62.8283 60.4565L58.6244 56.0118H58.504V62.5535H59.4872V58.1087L63.6912 62.6739H63.8116V56.1322H62.8283V60.4565Z" fill="#FAF9F5"/>
<path d="M68.8784 56.0118C68.1359 56.0118 67.6443 56.0118 67.0222 56.1322V62.4331C67.6443 62.5535 68.1359 62.5535 68.8784 62.5535C71.5974 62.5535 72.8315 61.0685 72.8315 59.2224C72.8315 57.4967 71.477 56.0118 68.8784 56.0118ZM68.9988 61.6906H68.0155V56.8746H68.9988C70.7245 56.8746 71.7178 57.8579 71.5874 59.2224C71.5874 60.5769 70.8449 61.6906 68.9988 61.6906Z" fill="#FAF9F5"/>
<path d="M82.8246 56.995C83.4467 56.995 84.1791 57.2459 84.6808 57.4867L85.052 56.6238C84.4299 56.2526 83.6975 56.0017 82.8246 56.0017C80.7277 56.0017 79.2428 57.4867 79.2428 59.3328C79.2428 61.3093 80.7277 62.6638 82.8246 62.6638C83.6875 62.6638 84.4299 62.413 85.052 62.2926L84.6808 61.4297C84.1892 61.6806 83.4467 61.9214 82.8246 61.9214C81.3397 61.9214 80.3564 60.8077 80.3564 59.4532C80.3564 57.9683 81.2193 56.985 82.8246 56.985V56.995Z" fill="#FAF9F5"/>
<path d="M89.6172 56.0118L86.5269 62.5535H87.5102L88.2526 60.9481H90.9716L91.7141 62.5535H92.8278L89.7376 56.0118H89.6172ZM88.6239 60.2157L89.6071 57.8679L90.7208 60.2157H88.6239Z" fill="#FAF9F5"/>
<path d="M96.7809 58.8512C96.0384 58.48 95.6672 58.2291 95.6672 57.7375C95.6672 57.2459 96.0384 56.8746 96.7809 56.8746C97.2725 56.8746 97.7642 57.1255 98.1354 57.3663L98.5066 56.5034C98.1354 56.2526 97.5234 56.0118 96.9013 56.0118C95.6672 56.0118 94.8044 56.7542 94.8044 57.7375C94.8044 58.6004 95.296 59.092 96.4097 59.5937C97.3929 60.0853 97.6438 60.3361 97.6438 60.8277C97.6438 61.3194 97.2725 61.811 96.5301 61.811C95.908 61.811 95.296 61.5602 94.8044 61.1889L94.4331 62.0518C95.0552 62.423 95.7876 62.6739 96.5301 62.6739C97.8846 62.6739 98.7575 61.811 98.5066 60.8177C98.5066 59.9548 98.1354 59.4632 96.7809 58.8412V58.8512Z" fill="#FAF9F5"/>
<path d="M102.701 56.1322H101.717V62.5535H102.701V56.1322Z" fill="#FAF9F5"/>
<path d="M110.486 60.4565L106.292 56.0118H106.162V62.5535H107.155V58.1087L111.48 62.6739V56.1322H110.486V60.4565Z" fill="#FAF9F5"/>
<path d="M117.279 56.0118C115.302 56.0118 113.817 57.3663 113.817 59.3428C113.817 61.3194 115.302 62.6739 117.148 62.6739C119.125 62.6739 120.61 61.1889 120.61 59.3428C120.61 57.3663 119.125 56.0118 117.279 56.0118ZM117.279 61.821C115.924 61.821 114.931 60.7073 114.931 59.3529C114.931 57.9984 115.914 56.8847 117.279 56.8847C118.643 56.8847 119.506 57.9984 119.627 59.3529C119.627 60.7073 118.643 61.821 117.279 61.821Z" fill="#FAF9F5"/>
<path d="M121.854 61.811C121.603 61.811 121.362 62.0618 121.362 62.3026C121.362 62.5434 121.613 62.7943 121.974 62.7943C121.854 63.0451 121.724 63.4163 121.362 63.6571L121.483 63.7775C122.095 63.4063 122.466 62.7943 122.466 62.423C122.466 62.0518 122.215 61.801 121.844 61.801L121.854 61.811Z" fill="#FAF9F5"/>
<path d="M130.744 56.1322H129.75V62.5535H133.824V61.6906H130.744V56.1322Z" fill="#FAF9F5"/>
<path d="M139.011 56.0118L135.921 62.5535H136.904L137.646 60.9481H140.365L141.108 62.5535H142.222L139.131 56.0118H139.011ZM138.028 60.2157L139.011 57.8679L140.125 60.2157H138.028Z" fill="#FAF9F5"/>
<path d="M146.305 58.8512C145.563 58.48 145.191 58.2291 145.191 57.7375C145.191 57.2459 145.563 56.8746 146.305 56.8746C146.797 56.8746 147.288 57.1255 147.66 57.3663L148.031 56.5034C147.66 56.2526 147.038 56.0118 146.426 56.0118C145.191 56.0118 144.329 56.7542 144.329 57.7375C144.329 58.6004 144.82 59.092 145.934 59.5937C146.917 60.0853 147.168 60.3361 147.168 60.8277C147.168 61.3194 146.797 61.811 146.054 61.811C145.432 61.811 144.82 61.5602 144.329 61.1889L143.957 62.0518C144.579 62.423 145.312 62.6739 146.054 62.6739C147.409 62.6739 148.272 61.811 148.031 60.8177C148.031 59.9548 147.66 59.4632 146.305 58.8412V58.8512Z" fill="#FAF9F5"/>
<path d="M155.937 60.6973L153.961 56.1322H152.726L155.807 62.6739H155.937L159.017 56.1322H157.904L155.937 60.6973Z" fill="#FAF9F5"/>
<path d="M161.114 62.5535H165.067V61.6906H162.108V59.7141H164.827V58.8512H162.108V56.995H165.067V56.1322H161.114V62.5535Z" fill="#FAF9F5"/>
<path d="M170.626 56.8746C171.248 56.8746 171.86 57.1255 172.482 57.4967L172.974 56.7542C172.231 56.2626 171.489 56.0118 170.505 56.0118C168.649 56.0118 166.923 57.3663 166.923 59.3428C166.923 61.3194 168.649 62.6739 170.505 62.6739C171.489 62.6739 172.231 62.423 172.974 61.9314V59.2124H170.375V60.0753H172.101V61.4297C171.609 61.6806 171.238 61.801 170.616 61.801C169.261 61.801 168.148 60.6873 168.148 59.3328C168.148 57.9783 169.01 56.8646 170.616 56.8646L170.626 56.8746Z" fill="#FAF9F5"/>
<path d="M177.91 56.0118L174.82 62.5535H175.803L176.545 60.9481H179.385L180.127 62.5535H181.111L178.02 56.0118H177.9H177.91ZM177.047 60.2157L178.03 57.8679L179.144 60.2157H177.047Z" fill="#FAF9F5"/>
<path d="M185.325 58.8512C184.582 58.48 184.211 58.2291 184.211 57.7375C184.211 57.2459 184.582 56.8746 185.325 56.8746C185.816 56.8746 186.308 57.1255 186.679 57.3663L187.05 56.5034C186.679 56.2526 186.067 56.0118 185.445 56.0118C184.211 56.0118 183.348 56.7542 183.348 57.7375C183.348 58.6004 183.84 59.092 184.953 59.5937C185.937 60.0853 186.187 60.3361 186.187 60.8277C186.187 61.3194 185.816 61.811 185.074 61.811C184.462 61.811 183.84 61.5602 183.348 61.1889L182.977 62.0518C183.589 62.423 184.331 62.6739 185.074 62.6739C186.428 62.6739 187.301 61.811 187.05 60.8177C187.05 59.9548 186.679 59.4632 185.325 58.8412V58.8512Z" fill="#FAF9F5"/>
</svg>
