<svg width="200" height="45" viewBox="0 0 200 45" fill="none" xmlns="http://www.w3.org/2000/svg">
<path fill-rule="evenodd" clip-rule="evenodd" d="M140.357 0.238037C130.357 0.238037 123.214 6.30947 123.214 14.8809C123.214 23.4523 130.357 29.5238 140.357 29.5238C150.476 29.5238 157.619 23.4523 157.619 14.8809C157.619 6.30947 150.476 0.238037 140.357 0.238037ZM199.524 4.16661C199.524 5.59518 198.333 6.78566 196.905 6.78566C195.476 6.78566 194.286 5.59518 194.286 4.16661C194.286 2.73804 195.476 1.54756 196.905 1.54756C198.333 1.54756 199.524 2.73804 199.524 4.16661ZM198.809 4.1681C198.809 2.97762 197.976 2.14429 196.904 2.14429C195.833 2.14429 195 2.97762 195 4.1681C195 5.35857 195.833 6.19191 196.904 6.19191C197.976 6.19191 198.809 5.23952 198.809 4.1681ZM196.429 4.40284H196.786L197.5 5.59332H198.095L197.262 4.40284C197.619 4.40284 197.976 4.16475 197.976 3.68856C197.976 3.09332 197.619 2.85522 196.905 2.85522H195.834V5.59332H196.31L196.429 4.40284ZM196.905 3.21423H196.429V4.04756H196.905C197.262 4.04756 197.5 3.92851 197.5 3.57137C197.5 3.33328 197.143 3.21423 196.905 3.21423ZM130.714 15.1203C130.714 21.906 133.214 27.9774 140.357 27.9774C145.714 27.9774 150.119 24.287 150 15.1203C150 7.3822 147.262 1.90601 140.357 1.90601C134.048 1.90601 130.714 6.31077 130.714 15.1203ZM25.1191 26.9047C24.8657 26.9047 24.6122 26.9051 24.3593 26.9055C18.5514 26.915 12.9762 26.9242 12.9762 21.9047V6.54756C12.9762 4.28566 13.5715 3.45232 15.3572 2.73804C15.4295 2.71995 15.5184 2.69636 15.6216 2.66895C16.198 2.51592 17.2233 2.24372 18.3334 2.1428V1.42851H0.595261V2.1428C1.42859 2.26185 2.73812 2.49994 3.33336 2.61899C5.35717 3.33328 5.9524 4.4047 5.9524 6.66661V22.619C5.9524 25.238 5.71431 26.3095 3.92859 27.1428C3.85732 27.1606 3.76204 27.1864 3.64755 27.2175C2.9971 27.3937 1.72656 27.738 0.714308 27.738V28.5714H33.3334V20.3571H32.5C31.3095 25.119 29.6429 26.9047 25.1191 26.9047ZM62.1429 28.8095V24.5238C58.2143 28.4523 53.3334 29.4047 49.4048 29.5238C42.8572 29.5238 38.5714 25.3571 38.5714 19.0476V6.9047C38.5714 4.76185 37.8572 3.57137 35.9524 2.85708C35.5953 2.73804 34.0476 2.38089 33.3334 2.38089V1.66661H50.8334V2.38089C50.1191 2.38089 48.6905 2.73804 48.2143 2.85708C46.3095 3.57137 45.5953 4.6428 45.5953 6.9047V20.119C45.5953 24.0476 47.8572 26.3095 51.5476 26.3095C54.1667 26.3095 59.2857 24.9999 62.2619 22.0238V6.54756C62.1429 4.52375 61.5476 3.33328 59.6429 2.61899C59.2857 2.49994 57.7381 2.1428 57.0238 2.1428V1.42851H73.9286V2.26185C73.4149 2.34746 72.6549 2.55623 72.0914 2.71101C71.8714 2.77144 71.6814 2.82366 71.5476 2.85708C69.2857 3.69042 69.1667 4.99994 69.1667 7.49994V23.5714C69.1667 25.9523 69.6429 26.7857 71.7857 27.619C72.2619 27.738 73.4524 27.9761 74.1667 28.0952V28.8095H62.1429ZM195.834 26.6681C192.738 24.049 186.786 17.7395 186.786 17.7395V17.6205C191.31 16.311 193.095 13.3348 193.095 10.1205C193.095 5.71572 189.524 2.14429 180.834 2.14429H160.834V2.85857C161.548 2.85857 163.095 3.21572 163.453 3.33476C165.357 4.04905 166.072 5.23953 166.072 7.38238V23.3348C166.072 25.5967 165.357 26.549 163.453 27.2633C162.976 27.3824 161.548 27.7395 160.834 27.7395V28.4538H178.214V27.7395C177.5 27.7395 175.953 27.3824 175.595 27.2633C174.167 26.7871 173.453 25.9538 173.214 24.6443V24.5252C173.214 24.476 173.194 24.4063 173.17 24.3247C173.136 24.2091 173.095 24.0695 173.095 23.93V18.4538C175.953 18.4538 180.595 18.5729 182.024 19.8824C182.677 20.5357 183.34 21.1622 184.028 21.8134C185.849 23.5353 187.852 25.4306 190.357 28.4538H199.762V27.8586C198.214 27.7395 196.905 27.5014 195.834 26.6681ZM172.976 3.92851V16.9047C179.048 17.2618 185.476 15.3571 185.595 10.238C185.595 6.19042 183.214 3.92851 178.929 3.92851H172.976ZM98.6905 9.52375L97.7381 8.57137L90.4762 1.42851H79.2857V2.1428H79.5238C80.4762 2.1428 81.5476 2.38089 82.381 2.73804C83.5714 3.21423 84.5238 4.04756 85.7143 5.35708C85.7143 5.35708 95.3572 14.8809 95.7143 15.119C95.3572 15.4761 86.0714 24.5238 86.0714 24.5238C84.881 25.7142 83.9286 26.5476 82.7381 27.1428C81.9484 27.4813 80.9448 27.6059 80.0314 27.7193L79.881 27.738H79.6429V28.4523H90.8334C90.8334 28.4523 97.5 21.9047 99.5238 19.8809L98.6905 9.52375ZM120.952 27.9761V28.6904H109.405C109.405 28.6904 102.738 22.1428 100.714 20.119L101.548 9.6428C104.167 7.1428 109.762 1.54756 109.762 1.54756H121.429V2.38089H121.19C119.524 2.38089 118.333 2.85708 117.381 3.33328C115.952 4.04756 114.643 4.88089 113.69 5.95232L104.286 15.3571C104.643 15.7142 113.214 24.4047 113.214 24.4047C114.286 25.4761 115.595 26.4285 116.905 27.0238C117.052 27.0789 117.204 27.1397 117.364 27.2031C118.236 27.5505 119.305 27.9761 120.714 27.9761H120.952ZM137.024 37.9761L134.048 44.7618H135.595L136.19 43.2142H139.048L139.643 44.7618H141.19L138.214 37.9761H137.024ZM137.619 39.7618L136.786 42.0238H138.452L137.619 39.7618ZM151.548 40.8316C150.357 40.5935 150 40.3554 150 39.9983C150 39.6411 150.238 39.403 150.833 39.403C151.31 39.403 152.024 39.6411 152.619 40.1173L153.452 38.9268C152.738 38.4506 151.905 38.0935 150.833 38.0935C149.405 38.0935 148.452 38.9268 148.452 40.1173C148.452 41.4268 149.286 41.903 150.714 42.1411C151.905 42.3792 152.024 42.6173 152.024 42.9745C152.024 43.3316 151.667 43.5697 151.072 43.5697C150.238 43.5697 149.643 43.2126 149.048 42.7364L148.214 43.8078C149.048 44.5221 150.119 44.8792 151.191 44.8792C152.738 44.8792 153.691 44.0459 153.691 42.7364C153.572 41.5459 152.857 41.0697 151.548 40.8316ZM112.5 42.0238H109.286L109.167 43.4523H112.857V44.7618H107.738V37.9761H112.857V39.2857H109.286V40.7142H112.5V42.0238ZM60.5953 37.9761L57.6191 44.7618H59.1667L59.7619 43.2142H62.6191L63.2143 44.7618H64.7619L61.7857 37.9761H60.5953ZM61.1905 39.7618L60.3572 42.0238H62.0238L61.1905 39.7618ZM97.0242 42.8554L95.2385 38.0935H93.5718L96.3099 44.8792H97.6194L100.358 38.0935H98.8099L97.0242 42.8554ZM73.5724 39.9983C73.5724 40.3554 73.9295 40.5935 75.12 40.8316C76.4295 41.0697 77.2629 41.5459 77.2629 42.7364C77.2629 44.0459 76.3105 44.8792 74.7629 44.8792C73.6914 44.8792 72.62 44.5221 71.7867 43.8078L72.62 42.7364C73.2152 43.2126 73.8105 43.5697 74.6438 43.5697C75.239 43.5697 75.5962 43.3316 75.5962 42.9745C75.5962 42.6173 75.4771 42.3792 74.2867 42.1411C72.8581 41.903 72.0248 41.4268 72.0248 40.1173C72.0248 38.9268 72.9771 38.0935 74.4057 38.0935C75.4771 38.0935 76.3105 38.4506 77.0248 38.9268L76.1914 40.1173C75.5962 39.6411 75.001 39.403 74.4057 39.403C73.8105 39.403 73.5724 39.6411 73.5724 39.9983ZM47.1429 37.9761H45.5953V44.7618H50.4762V43.4523H47.1429V37.9761ZM125.476 42.1409H124.048V40.8314H127.024V43.8076C126.309 44.4028 125.238 44.879 124.048 44.879C121.905 44.879 120.476 43.4505 120.476 41.4267C120.476 39.4028 122.024 37.8552 124.048 37.8552C125.238 37.8552 125.952 38.2124 126.667 38.8076L125.714 39.9981C125.119 39.5219 124.762 39.2838 123.928 39.2838C122.857 39.2838 122.024 40.2362 122.024 41.4267C122.024 42.7362 122.857 43.5695 124.048 43.5695C124.643 43.5695 125.119 43.3314 125.476 43.0933V42.1409Z" fill="#FAF9F5"/>
</svg>
