<svg width="200" height="34" viewBox="0 0 200 34" fill="none" xmlns="http://www.w3.org/2000/svg">
<path fill-rule="evenodd" clip-rule="evenodd" d="M7.0701 31.72C6.9901 31.72 6.9601 31.79 6.9501 31.91C6.9301 32.15 6.8001 32.5 6.6701 32.66C6.4101 33 5.9901 33.01 5.4301 33.01C4.6001 33.01 4.3301 32.92 4.1501 32.74C3.9301 32.52 3.9301 31.66 3.9301 30.06V27.87C3.9301 25.98 3.9301 25.63 3.9501 25.23C3.9701 24.79 4.0601 24.58 4.3401 24.52C4.4701 24.5 4.6401 24.48 4.7501 24.48C4.8801 24.48 4.9401 24.46 4.9401 24.37C4.9401 24.28 4.8701 24.26 4.7201 24.26C4.3101 24.26 3.5301 24.3 3.2801 24.3C2.9901 24.3 2.3301 24.26 1.8301 24.26C1.6701 24.26 1.6001 24.28 1.6001 24.37C1.6001 24.46 1.6601 24.48 1.7801 24.48C1.9201 24.48 2.0501 24.49 2.1301 24.52C2.4801 24.61 2.5601 24.81 2.5901 25.23C2.6101 25.63 2.6101 25.98 2.6101 27.87V30.06C2.6101 31.21 2.6101 32.19 2.5601 32.71C2.5201 33.07 2.4601 33.34 2.2501 33.39C2.1601 33.42 2.0301 33.44 1.8701 33.44C1.7401 33.44 1.7001 33.48 1.7001 33.54C1.7001 33.63 1.7701 33.67 1.9101 33.67C2.3301 33.67 3.0001 33.63 3.2401 33.63C4.1001 33.63 4.8001 33.7 6.3201 33.7C6.8701 33.7 6.9201 33.64 6.9901 33.36C7.0701 33 7.1501 32.07 7.1501 31.93C7.1501 31.78 7.1401 31.72 7.0701 31.72Z" fill="#FAF9F5"/>
<path fill-rule="evenodd" clip-rule="evenodd" d="M31.5199 33.44C31.3899 33.44 31.2299 33.43 31.0699 33.39C30.8499 33.33 30.5399 33.15 30.1399 32.03C29.4599 30.14 27.7699 25.05 27.5199 24.37C27.4099 24.08 27.3499 23.97 27.2499 23.97C27.1399 23.97 27.0799 24.11 26.9499 24.47L24.2899 32.29C24.0799 32.91 23.8799 33.34 23.3899 33.41C23.3099 33.42 23.1599 33.43 23.0599 33.43C22.9799 33.43 22.9299 33.46 22.9299 33.53C22.9299 33.63 22.9899 33.66 23.1299 33.66C23.6799 33.66 24.2599 33.62 24.3799 33.62C24.7099 33.62 25.1599 33.66 25.4999 33.66C25.6199 33.66 25.6799 33.64 25.6799 33.53C25.6799 33.46 25.6499 33.43 25.5199 33.43H25.3599C25.0299 33.43 24.9399 33.27 24.9399 33.04C24.9399 32.89 24.9899 32.59 25.0999 32.28L25.6699 30.5C25.6899 30.42 25.7099 30.4 25.7699 30.4H28.1299C28.1799 30.4 28.2099 30.42 28.2399 30.49L29.0899 33.13C29.1399 33.28 29.0699 33.39 28.9999 33.42C28.8899 33.43 28.8499 33.46 28.8499 33.53C28.8499 33.62 28.9799 33.62 29.1699 33.63C30.0199 33.65 30.7899 33.65 31.1699 33.65C31.5499 33.65 31.6599 33.63 31.6599 33.52C31.6599 33.43 31.6099 33.42 31.5199 33.42V33.44ZM27.9399 29.79H25.9899C25.9899 29.79 25.9399 29.75 25.9499 29.7L26.9199 26.64C26.9299 26.59 26.9499 26.53 26.9799 26.53C27.0099 26.53 27.0199 26.59 27.0299 26.64L27.9799 29.72C27.9799 29.72 27.9799 29.79 27.9299 29.79H27.9399Z" fill="#FAF9F5"/>
<path fill-rule="evenodd" clip-rule="evenodd" d="M50.41 27.98L50.11 27.72C49.23 26.94 48.99 26.5 48.99 25.93C48.99 25.18 49.47 24.65 50.25 24.65C50.94 24.65 51.24 25.02 51.4 25.26C51.62 25.58 51.68 25.97 51.68 26.08C51.68 26.23 51.71 26.3 51.79 26.3C51.87 26.3 51.91 26.2 51.91 25.93C51.91 24.96 51.95 24.6 51.95 24.44C51.95 24.35 51.9 24.31 51.8 24.29C51.52 24.2 51.08 24.08 50.39 24.08C48.92 24.08 47.94 25.06 47.94 26.43C47.94 27.44 48.34 28.31 49.51 29.38L50 29.83C50.88 30.63 51.04 31.21 51.04 31.82C51.04 32.48 50.57 33.24 49.62 33.24C48.96 33.24 48.34 32.9 48.11 31.98C48.06 31.77 48.01 31.51 48.01 31.34C48.01 31.24 48 31.13 47.9 31.13C47.82 31.13 47.78 31.27 47.77 31.45C47.76 31.65 47.72 32.4 47.72 33.08C47.72 33.35 47.75 33.42 47.92 33.5C48.38 33.74 48.85 33.82 49.47 33.82C50.03 33.82 50.62 33.71 51.15 33.31C51.91 32.72 52.14 31.86 52.14 31.14C52.14 29.96 51.67 29.12 50.4 27.96L50.41 27.98Z" fill="#FAF9F5"/>
<path fill-rule="evenodd" clip-rule="evenodd" d="M98.0299 24.25C97.7099 24.25 97.2099 24.29 97.0399 24.29C96.8999 24.29 96.4599 24.25 95.9299 24.25C95.7299 24.25 95.6299 24.27 95.6299 24.37C95.6299 24.46 95.7099 24.47 95.8099 24.47C95.9499 24.47 96.1099 24.48 96.2299 24.53C96.3199 24.57 96.3699 24.67 96.3699 24.77C96.3699 24.88 96.3299 25.07 96.2799 25.23C96.0299 26.05 94.6499 30.06 94.1899 31.43H94.1499L92.3299 25.78C92.1799 25.33 92.0899 24.98 92.0899 24.82C92.0899 24.71 92.1199 24.62 92.1999 24.56C92.2799 24.49 92.4399 24.47 92.6099 24.47C92.7099 24.47 92.7699 24.45 92.7699 24.36C92.7699 24.27 92.6499 24.25 92.5299 24.25C91.9999 24.25 91.4899 24.29 91.2299 24.29C90.8599 24.29 90.2599 24.25 89.6899 24.25C89.5299 24.25 89.4099 24.26 89.4099 24.36C89.4099 24.44 89.4399 24.47 89.5399 24.47C89.6199 24.47 89.7899 24.47 89.9499 24.52C90.3299 24.65 90.5099 24.78 90.7599 25.47L93.4299 33.08C93.6299 33.66 93.6899 33.84 93.8299 33.84C93.9799 33.84 94.0399 33.64 94.3199 32.92C94.5499 32.3 95.0499 30.94 95.7299 29.12C96.2999 27.59 96.5899 26.91 96.9999 25.74C97.2799 24.94 97.4399 24.73 97.5799 24.62C97.7699 24.47 97.9899 24.47 98.0999 24.47C98.2099 24.47 98.2699 24.45 98.2699 24.36C98.2699 24.27 98.1899 24.25 98.0499 24.25H98.0299Z" fill="#FAF9F5"/>
<path fill-rule="evenodd" clip-rule="evenodd" d="M120.52 31.77C120.45 31.77 120.43 31.82 120.4 31.96C120.33 32.47 120.2 32.73 119.92 32.88C119.64 33.03 119.2 33.03 118.93 33.03C117.85 33.03 117.68 32.84 117.66 31.98C117.66 31.62 117.66 30.47 117.66 30.05V29.07C117.66 28.99 117.67 28.94 117.73 28.94C117.98 28.94 119.03 28.95 119.23 28.98C119.62 29.03 119.77 29.22 119.82 29.47C119.85 29.63 119.85 29.79 119.86 29.92C119.86 29.98 119.88 30.03 119.96 30.03C120.06 30.03 120.06 29.89 120.06 29.79C120.06 29.7 120.08 29.21 120.1 28.96C120.13 28.32 120.19 28.13 120.19 28.05C120.19 27.97 120.16 27.95 120.12 27.95C120.07 27.95 120.02 28.01 119.95 28.11C119.85 28.23 119.69 28.27 119.44 28.3C119.2 28.32 117.98 28.32 117.75 28.32C117.69 28.32 117.67 28.27 117.67 28.18V25.03C117.67 24.94 117.69 24.9 117.75 24.9C117.96 24.9 119.07 24.93 119.25 24.95C119.78 25.03 119.89 25.18 119.96 25.4C120.01 25.55 120.02 25.76 120.02 25.85C120.02 25.96 120.04 26.02 120.12 26.02C120.2 26.02 120.21 25.95 120.23 25.88C120.25 25.73 120.27 25.18 120.28 25.06C120.31 24.49 120.36 24.34 120.36 24.25C120.36 24.19 120.35 24.14 120.3 24.14C120.25 24.14 120.18 24.18 120.13 24.19C120.05 24.21 119.88 24.24 119.67 24.26C119.47 24.27 117.36 24.27 117.02 24.27C116.72 24.27 116.06 24.23 115.5 24.23C115.34 24.23 115.27 24.25 115.27 24.34C115.27 24.43 115.33 24.45 115.45 24.45C115.6 24.45 115.78 24.46 115.86 24.49C116.21 24.58 116.29 24.78 116.31 25.2C116.33 25.6 116.33 25.95 116.33 27.84V30.03C116.33 31.18 116.33 32.16 116.28 32.68C116.24 33.04 116.19 33.32 115.97 33.36C115.87 33.39 115.75 33.41 115.59 33.41C115.46 33.41 115.42 33.45 115.42 33.51C115.42 33.6 115.5 33.64 115.63 33.64C116.05 33.64 116.72 33.6 116.96 33.6C117.58 33.6 118.29 33.67 119.89 33.67C120.29 33.67 120.39 33.67 120.46 33.35C120.51 33.1 120.6 32.25 120.6 31.97C120.6 31.85 120.6 31.75 120.51 31.75L120.52 31.77Z" fill="#FAF9F5"/>
<path fill-rule="evenodd" clip-rule="evenodd" d="M147.01 28.99C146.66 28.99 146.1 29.03 145.77 29.03C145.44 29.03 144.78 28.99 144.23 28.99C144.08 28.99 144.01 29.02 144.01 29.12C144.01 29.19 144.07 29.22 144.17 29.22C144.32 29.22 144.5 29.23 144.58 29.26C144.93 29.35 145.02 29.55 145.03 29.97C145.04 30.34 145.04 30.82 145.04 31.44V32.61C145.04 32.82 145 32.98 144.84 33.07C144.59 33.21 144.22 33.21 143.94 33.21C141.71 33.21 140.26 31.2 140.26 28.53C140.26 27 140.64 26.06 141.23 25.48C141.97 24.76 142.75 24.71 143.33 24.71C144.53 24.71 145.37 25.28 145.69 25.68C145.96 26.03 146.02 26.43 146.05 26.71C146.06 26.81 146.08 26.87 146.16 26.87C146.24 26.87 146.28 26.81 146.28 26.61C146.28 25.05 146.35 24.7 146.35 24.57C146.35 24.48 146.33 24.43 146.2 24.42C145.96 24.41 145.59 24.33 145.36 24.28C145.15 24.23 144.22 24.08 143.49 24.08C142.6 24.08 141.66 24.17 140.64 24.89C139.68 25.57 138.8 26.97 138.8 28.96C138.8 32.4 141.1 33.84 143.69 33.84C144.52 33.84 145.55 33.7 146.24 33.28C146.37 33.19 146.38 33.17 146.38 32.83V31.46C146.38 30.84 146.38 30.34 146.39 29.97C146.4 29.53 146.51 29.32 146.79 29.26C146.92 29.23 146.99 29.22 147.08 29.22C147.16 29.22 147.22 29.19 147.22 29.12C147.22 29.02 147.15 28.99 147.01 28.99Z" fill="#FAF9F5"/>
<path fill-rule="evenodd" clip-rule="evenodd" d="M172.43 33.44C172.3 33.44 172.14 33.43 171.99 33.39C171.77 33.33 171.46 33.15 171.06 32.03C170.38 30.14 168.69 25.05 168.43 24.37C168.33 24.08 168.26 23.97 168.17 23.97C168.06 23.97 168 24.11 167.87 24.47L165.21 32.29C165 32.91 164.8 33.34 164.31 33.41C164.23 33.42 164.08 33.43 163.98 33.43C163.9 33.43 163.85 33.46 163.85 33.53C163.85 33.63 163.91 33.66 164.05 33.66C164.6 33.66 165.18 33.62 165.3 33.62C165.63 33.62 166.08 33.66 166.42 33.66C166.54 33.66 166.6 33.64 166.6 33.53C166.6 33.46 166.57 33.43 166.44 33.43H166.28C165.95 33.43 165.86 33.27 165.86 33.04C165.86 32.89 165.91 32.59 166.02 32.28L166.59 30.5C166.61 30.42 166.63 30.4 166.69 30.4H169.05C169.1 30.4 169.13 30.42 169.15 30.49L170 33.13C170.05 33.28 169.98 33.39 169.91 33.42C169.8 33.43 169.76 33.46 169.76 33.53C169.76 33.62 169.89 33.62 170.08 33.63C170.93 33.65 171.7 33.65 172.08 33.65C172.46 33.65 172.57 33.63 172.57 33.52C172.57 33.43 172.52 33.42 172.43 33.42V33.44ZM168.85 29.79H166.9C166.9 29.79 166.85 29.75 166.86 29.7L167.83 26.64C167.84 26.59 167.86 26.53 167.89 26.53C167.92 26.53 167.93 26.59 167.94 26.64L168.89 29.72C168.89 29.72 168.89 29.79 168.84 29.79H168.85Z" fill="#FAF9F5"/>
<path fill-rule="evenodd" clip-rule="evenodd" d="M191.93 27.98L191.63 27.72C190.75 26.94 190.51 26.5 190.51 25.93C190.51 25.18 190.99 24.65 191.77 24.65C192.46 24.65 192.76 25.02 192.92 25.26C193.14 25.58 193.2 25.97 193.2 26.08C193.2 26.23 193.23 26.3 193.3 26.3C193.39 26.3 193.42 26.2 193.42 25.93C193.42 24.96 193.46 24.6 193.46 24.44C193.46 24.35 193.41 24.31 193.31 24.29C193.03 24.2 192.59 24.08 191.9 24.08C190.43 24.08 189.46 25.06 189.46 26.43C189.46 27.44 189.86 28.31 191.03 29.38L191.52 29.83C192.4 30.63 192.56 31.21 192.56 31.82C192.56 32.48 192.1 33.24 191.14 33.24C190.48 33.24 189.86 32.9 189.63 31.98C189.58 31.77 189.53 31.51 189.53 31.34C189.53 31.24 189.52 31.13 189.42 31.13C189.34 31.13 189.3 31.27 189.29 31.45C189.28 31.65 189.24 32.4 189.24 33.08C189.24 33.35 189.27 33.42 189.44 33.5C189.9 33.74 190.37 33.82 190.99 33.82C191.55 33.82 192.14 33.71 192.67 33.31C193.43 32.72 193.67 31.86 193.67 31.14C193.67 29.96 193.2 29.12 191.93 27.96V27.98Z" fill="#FAF9F5"/>
<path fill-rule="evenodd" clip-rule="evenodd" d="M197.96 0.0999658C197.96 0.0999658 197.94 0.0999658 197.93 0.0999658C197.89 0.0999658 197.85 0.0899658 197.81 0.0899658C196.7 0.0899658 195.76 0.939966 195.76 2.09997C195.76 3.25997 196.7 4.11997 197.81 4.11997C197.82 4.11997 197.84 4.11997 197.85 4.11997C197.89 4.11997 197.92 4.12997 197.96 4.12997C199.06 4.12997 200 3.27997 200 2.10997C200 0.939966 199.06 0.0999658 197.96 0.0999658ZM197.84 3.78997C196.97 3.72997 196.31 3.03997 196.31 2.10997C196.31 1.17997 197.01 0.459966 197.92 0.439966C198.78 0.499966 199.44 1.18997 199.44 2.09997C199.44 3.05997 198.74 3.76997 197.84 3.77997V3.78997Z" fill="#FAF9F5"/>
<path fill-rule="evenodd" clip-rule="evenodd" d="M198.89 1.60995C198.89 1.14995 198.62 0.949951 198.07 0.949951H198C198 0.949951 197.95 0.949951 197.92 0.949951H197.03V3.26995H197.53V2.26995H197.79L198.4 3.26995H198.94L198.28 2.24995C198.62 2.20995 198.88 2.02995 198.88 1.60995H198.89ZM197.54 1.95995V1.24995H197.97C198.18 1.25995 198.38 1.32995 198.38 1.57995C198.38 1.93995 198.11 1.95995 197.81 1.95995H197.54Z" fill="#FAF9F5"/>
<path fill-rule="evenodd" clip-rule="evenodd" d="M186.85 0.280034C186.3 0.200034 185.63 0.160034 185.07 0.160034C184.28 0.160034 183.45 0.240034 182.77 0.370034C177.5 1.38003 175.49 5.77003 175.52 9.18003C175.55 13.07 177.92 17.45 183.36 18.13C183.8 18.19 184.25 18.22 184.73 18.22C186.35 18.24 187.81 17.94 189.07 17.38C192.4 15.92 194.38 12.7 194.42 8.87003C194.48 3.42003 190.9 0.850034 186.86 0.280034H186.85ZM191.17 10.1C190.95 16.38 187.32 17.09 185.73 17.08C183.88 17.06 182.33 16.38 181.17 15.25C180.71 14.8 180.31 14.27 179.96 13.68C179.12 12.22 178.66 10.46 178.68 8.46003C178.71 6.20003 179.11 4.66003 179.83 3.55003V3.57003C180.94 1.85003 182.76 1.25003 184.37 1.26003C186.8 1.29003 188.98 2.61003 190.15 4.92003C190.81 6.22003 191.19 7.83003 191.17 9.69003C191.17 9.83003 191.17 9.96003 191.16 10.1H191.17Z" fill="#FAF9F5"/>
<path fill-rule="evenodd" clip-rule="evenodd" d="M37.88 14.4399C37.88 14.4399 37.88 14.4799 37.88 14.5099C37.88 14.4499 37.88 14.4099 37.82 14.4099C37.66 14.4099 37.61 14.4999 37.57 14.7599C37.42 15.7099 37.14 16.1899 36.55 16.4699C35.95 16.7499 34.99 16.7599 34.39 16.7699C32.67 16.7799 32.01 16.5999 31.76 15.8899C31.67 15.6299 31.59 15.2899 31.58 14.8599C31.55 14.1899 31.58 12.0699 31.58 11.2899V9.46993C31.58 9.32993 31.58 9.23993 31.7 9.23993C32.25 9.23993 34.54 9.23993 34.97 9.27993C35.82 9.35993 36.15 9.70993 36.27 10.1699C36.34 10.4699 36.34 10.7699 36.37 10.9999C36.37 11.1099 36.4 11.1999 36.56 11.1999C36.74 11.1799 36.78 11.0699 36.78 10.7599C36.78 10.5999 36.82 9.67993 36.86 9.20993C36.92 8.02993 37.05 7.61993 37.05 7.48993C37.05 7.48993 37.03 7.38993 36.97 7.38993C36.92 7.38993 36.92 7.25993 36.58 7.64993C36.37 7.87993 35.95 7.94993 35.4 8.00993C34.91 8.05993 32.3 8.07993 31.53 8.08993V1.99993C31.53 1.99993 31.53 1.96993 31.53 1.95993C31.55 1.83993 31.72 1.71993 32.67 1.77993C33.49 1.82993 34.57 1.81993 35.33 1.91993C35.59 1.94993 35.82 1.99993 35.98 2.06993C36.85 2.42993 36.34 3.77993 36.84 3.77993C37 3.77993 37.04 3.64993 37.06 3.52993C37.1 3.24993 37.14 2.23993 37.16 2.00993C37.22 0.949929 37.33 0.669929 37.33 0.509929C37.33 0.429929 37.31 0.359929 37.27 0.319929C37.27 0.289929 37.12 0.279929 36.9 0.399929C36.71 0.449929 36.34 0.499929 35.9 0.549929C35.46 0.579929 30.84 0.619929 30.1 0.619929C29.45 0.619929 27.95 0.449929 26.72 0.459929C26.37 0.459929 26.29 0.539929 26.24 0.699929C26.24 0.719929 26.24 0.749929 26.24 0.769929C26.24 0.929929 26.38 0.989929 26.64 0.989929C26.96 0.989929 27.36 1.00993 27.54 1.04993C28.3 1.19993 28.52 1.56993 28.57 2.35993V16.2099C28.48 16.8799 28.4 17.3899 27.94 17.4799C27.73 17.5299 27.46 17.5599 27.11 17.5599C26.86 17.5599 26.76 17.6399 26.75 17.7399C26.75 17.7399 26.75 17.7599 26.75 17.7699C26.75 17.9299 26.91 17.9999 27.21 17.9999C28.13 17.9999 29.58 17.9099 30.11 17.9099C31.47 17.8999 33.02 18.0199 36.5 17.9899C37.38 17.9899 37.58 17.9899 37.74 17.3799C37.85 16.9199 38.02 15.3499 38.02 14.8199C38.02 14.4699 37.99 14.4799 37.89 14.4299L37.88 14.4399Z" fill="#FAF9F5"/>
<path fill-rule="evenodd" clip-rule="evenodd" d="M86.8401 14.28C86.6201 14.28 86.5601 14.39 86.5201 14.6C86.3701 15.55 85.9101 16.13 85.3201 16.41C84.7201 16.69 83.3301 16.66 82.7301 16.67C81.2601 16.68 80.5401 16.55 80.2001 16.06C79.9901 15.77 79.9201 15.35 79.9001 14.75V2.66998C79.9001 1.78998 80.2101 0.999984 81.6201 0.899984C81.8701 0.879984 81.8401 0.669984 81.8401 0.669984H81.8501C81.8501 0.509984 81.7601 0.449984 81.4401 0.449984C80.5401 0.449984 78.8601 0.549984 78.3001 0.549984C77.6801 0.549984 76.3001 0.439984 75.2201 0.449984C74.9201 0.449984 74.8701 0.499983 74.8701 0.669984C74.8701 0.839984 75.0201 0.919984 75.2401 0.919984C75.5201 0.919984 75.8201 0.939984 76.0701 0.999984C76.5801 1.10998 76.8701 1.49998 76.8701 2.27998V16.25C76.8701 16.93 76.6601 17.31 76.2101 17.41C76.0001 17.46 75.7301 17.55 75.3801 17.55C75.1101 17.55 75.0101 17.66 75.0101 17.77H75.0001C75.0001 17.93 75.1601 18 75.4601 18C76.3801 18 77.8301 17.91 78.3601 17.91C80.2301 17.89 81.7501 18.04 85.0701 18.01C86.2701 18 86.3801 17.88 86.5201 17.37C86.5601 17.23 86.7001 16.42 86.7401 16.16C86.9501 14.69 87.1801 14.28 86.8501 14.28H86.8401Z" fill="#FAF9F5"/>
<path fill-rule="evenodd" clip-rule="evenodd" d="M62.8799 14.28C62.6599 14.28 62.5999 14.39 62.5599 14.6C62.4099 15.55 61.9499 16.13 61.3599 16.41C60.7599 16.69 59.3699 16.66 58.7699 16.67C57.2999 16.68 56.5799 16.55 56.2399 16.06C56.0299 15.77 55.9599 15.35 55.9399 14.75V2.66998C55.9399 1.78998 56.2499 0.999984 57.6599 0.899984C57.9099 0.879984 57.8799 0.669984 57.8799 0.669984H57.8899C57.8899 0.509984 57.7999 0.449984 57.4799 0.449984C56.5799 0.449984 54.8999 0.549984 54.3499 0.549984C53.7299 0.549984 52.3499 0.439984 51.2699 0.449984C50.9699 0.449984 50.9199 0.499983 50.9199 0.669984C50.9199 0.839984 51.0699 0.919984 51.2899 0.919984C51.5699 0.919984 51.8699 0.939984 52.1199 0.999984C52.6299 1.10998 52.9199 1.49998 52.9199 2.27998V16.25C52.9199 16.93 52.7099 17.31 52.2599 17.41C52.0499 17.46 51.7799 17.55 51.4299 17.55C51.1599 17.55 51.0599 17.66 51.0599 17.77H51.0499C51.0499 17.93 51.2099 18 51.5099 18C52.4299 18 53.8799 17.91 54.4099 17.91C56.2799 17.89 57.7999 18.04 61.1199 18.01C62.3199 18 62.4299 17.88 62.5699 17.37C62.6099 17.23 62.7499 16.42 62.7899 16.16C62.9999 14.69 63.2299 14.28 62.8999 14.28H62.8799Z" fill="#FAF9F5"/>
<path fill-rule="evenodd" clip-rule="evenodd" d="M114.9 17.59C114.62 17.59 114.28 17.57 113.93 17.51C113.07 17.31 112.57 16.37 111.81 14.61C110.3 11.12 107.54 4.14 106.98 2.87C106.75 2.34 105.96 0.16 105.64 0.04C105.64 0.04 105.59 0 105.51 0C105.28 0 105.15 0.26 104.87 0.93L99.21 15.46C98.76 16.62 98.33 17.4 97.27 17.55C97.09 17.58 96.76 17.6 96.56 17.6C96.37 17.6 96.28 17.65 96.28 17.79C96.28 17.8 96.28 17.81 96.28 17.82C96.3 17.97 96.43 18.02 96.71 18.01C97.91 18 99.17 17.92 99.43 17.92C99.97 17.92 100.96 18.02 101.87 18.01C102.13 18.01 102.26 18.01 102.26 17.82V17.8C102.26 17.66 102.18 17.58 101.9 17.58H101.57C100.65 17.6 100.65 17.04 100.64 16.63C100.64 16.35 100.84 15.88 101.06 15.3L102.26 11.94H107.7L109.65 17.04C109.78 17.34 109.74 17.59 109.47 17.59C109.24 17.62 109.13 17.66 109.13 17.8C109.15 18.02 109.29 18 109.82 18C110.57 18.01 111.27 17.89 111.9 17.88C112.82 17.88 113.54 18 114.18 18C115.09 18 115.24 18.03 115.24 17.78C115.24 17.62 115.08 17.57 114.89 17.58L114.9 17.59ZM102.68 10.74L104.86 4.83L104.97 4.71C105.04 4.71 105.07 4.83 105.1 4.92L107.26 10.74H102.68Z" fill="#FAF9F5"/>
<path fill-rule="evenodd" clip-rule="evenodd" d="M141.67 16.97C141.75 16.86 141.76 16.7 141.76 16.3L141.74 13.76C141.74 12.61 141.72 11.69 141.74 10.99C141.76 10.18 141.98 9.79004 142.6 9.67004C142.88 9.62004 143.04 9.60004 143.22 9.60004C143.38 9.60004 143.52 9.55004 143.52 9.41004C143.52 9.40004 143.5 9.39004 143.5 9.38004C143.48 9.23004 143.32 9.18004 143.04 9.19004C142.28 9.19004 141.06 9.28004 140.34 9.28004C139.65 9.28004 138.19 9.23004 137 9.24004C136.68 9.24004 136.52 9.29004 136.52 9.48004C136.52 9.62004 136.66 9.66004 136.87 9.66004C137.19 9.66004 137.58 9.68004 137.77 9.72004C138.53 9.88004 138.74 10.24 138.77 11.03C138.8 11.72 138.81 12.6 138.82 13.75L138.84 15.92C138.84 16.31 138.75 16.61 138.41 16.78C137.86 17.04 137.05 17.05 136.45 17.05C134.57 17.07 132.95 16.53 131.66 15.57C129.6 14.05 128.4 11.49 128.37 8.45004C128.36 6.72004 128.65 5.41004 129.18 4.39004C129.52 3.74004 129.95 3.21004 130.45 2.78004C132.05 1.43004 133.73 1.32004 135 1.31004C137.6 1.29004 139.46 2.33004 140.16 3.06004C140.76 3.70004 140.89 4.44004 140.96 4.97004C140.98 5.13004 141.02 5.23004 141.14 5.26004C141.18 5.31004 141.25 5.30004 141.34 5.23004C141.42 5.17004 141.45 5.04004 141.45 4.79004C141.43 1.91004 141.58 1.26004 141.58 1.01004C141.58 0.970038 141.58 0.930038 141.57 0.900038C141.54 0.810038 141.46 0.750038 141.26 0.740038C140.73 0.720038 139.92 0.590038 139.44 0.500038C138.98 0.410038 136.94 0.150038 135.35 0.170038C134.55 0.170038 133.71 0.210038 132.87 0.350038C131.68 0.540038 130.44 0.930038 129.15 1.73004C127.06 3.02004 125.17 5.61004 125.2 9.30004C125.25 15.53 130.07 18.18 135.58 18.24C135.61 18.24 136.1 18.24 136.13 18.24C137.89 18.24 140.1 17.99 141.5 17.16C141.6 17.1 141.66 17.06 141.71 17L141.67 16.97Z" fill="#FAF9F5"/>
<path fill-rule="evenodd" clip-rule="evenodd" d="M163.31 17.5799C162.98 17.4299 160.83 18.1999 160.9 14.7299V2.65994C160.9 2.65994 160.74 0.929943 162.56 0.929943C162.63 0.929943 162.97 0.899943 162.97 0.689943C162.97 0.559943 162.97 0.449943 162.31 0.449943C161.43 0.449943 160.01 0.499943 159.43 0.499943C158.76 0.499943 157.31 0.429943 156.43 0.439943C156.06 0.439943 155.88 0.489943 155.88 0.629943C155.88 0.809943 156.02 0.859943 156.25 0.859943C156.53 0.859943 156.83 0.879943 157.08 0.949943C157.59 1.05994 157.82 1.46994 157.88 2.24994V16.2599C157.82 16.9299 157.68 17.3599 157.22 17.4599C157.01 17.5099 156.74 17.5599 156.39 17.5599C156.11 17.5599 156.03 17.6799 156.03 17.7899C156.04 17.9399 156.2 18.0199 156.49 18.0199C157.41 18.0199 158.9 17.9299 159.43 17.9299C159.99 17.9299 161.11 18.0199 162.69 18.0099C163.24 18.0099 163.47 17.9499 163.46 17.8299C163.46 17.7999 163.46 17.7799 163.44 17.7599C163.35 17.7599 163.22 17.7599 163.08 17.7599C163.23 17.7599 163.36 17.7599 163.46 17.7599C163.41 17.7099 163.44 17.6499 163.3 17.5899L163.31 17.5799Z" fill="#FAF9F5"/>
<path fill-rule="evenodd" clip-rule="evenodd" d="M9.15 7.92002C10.42 6.89002 11.5 5.75002 11.49 3.85002C11.48 2.73002 10.84 0.770024 7.55 0.450024C7.23 0.420024 6.89 0.400024 6.51 0.400024C5.72 0.400024 4.81 0.480024 3.67 0.490024C3.21 0.490024 1.74 0.440024 0.51 0.450024C0.16 0.460024 0 0.510024 0 0.670024C0 0.870024 0.24 0.880024 0.4 0.880024C0.73 0.880024 1.12 0.900024 1.31 0.940024C2.08 1.10002 2.27 1.47002 2.32 2.26002C2.37 3.00002 2.4 3.65002 2.43 7.19002V11.28C2.45 13.42 2.48 15.23 2.37 16.21C2.28 16.88 2.17 17.4 1.71 17.49C1.5 17.54 1.22 17.58 0.87 17.58C0.59 17.58 0.5 17.65 0.5 17.77C0.5 17.78 0.5 17.79 0.5 17.8C0.53 17.97 0.67 18.01 0.96 18.01C1.89 18.01 3.35 17.92 3.89 17.91C4.59 17.91 6.7 18.03 7.26 18.02C9.92 18 11.66 16.99 12.59 15.62C13.16 14.79 13.43 13.84 13.42 12.9C13.4 10.18 11.06 8.55002 9.15 7.92002ZM5.15 1.81002C5.15 1.55002 5.19 1.46002 5.36 1.41002C5.59 1.36002 5.8 1.36002 6.13 1.36002C7.72 1.35002 8.62 2.63002 8.94 3.94002C9.06 4.30002 9.08 4.84002 9.06 5.27002C9.04 5.74002 8.93 6.17002 8.78 6.52002C8.62 6.90002 8.4 7.21002 8.14 7.40002C7.94 7.55002 7.44 7.83002 7.18 7.82002L5.2 7.83002L5.16 1.80002L5.15 1.81002ZM10.48 14.92C10.1 16.54 8.69 16.96 7.8 16.97C7.26 16.97 6.73 16.96 6.1 16.71C5.79 16.59 5.59 16.44 5.46 16.21C5.28 15.88 5.25 15.38 5.24 14.49V8.84002C5.58 8.84002 5.96 8.84002 6.35 8.86002C7.26 8.90002 7.79 9.06002 8.28 9.40002C8.95 9.86002 9.44 10.42 9.79 11.02C10.37 12.01 10.57 13.09 10.57 13.98C10.57 14.34 10.53 14.65 10.47 14.93L10.48 14.92Z" fill="#FAF9F5"/>
</svg>
